<svg xmlns="http://www.w3.org/2000/svg" viewBox="334 37 1024 1024"><style>.st0{fill:#e3f2fd}.st5,.st6{fill:#fff}.st6{opacity:.4;enable-background:new}.st14{fill:#14499e}.st17{fill:#feb966}.st18{fill:#fd6733}.st19{fill:#ffea76}.st20{fill:#feb152}.st21{fill:#2b66b1}.st22{fill:#3374ba}.st25{fill:none}</style><g id="Layer_1"><g id="XMLID_87_"><path class="st0" d="M739.6 1074.7h-.3l-3.6-2.4c1.4.9 2.6 1.7 3.9 2.4zM1358 37v1024H722.8c4.2 4.3 8.6 8.1 13 11.3-4.7-3.1-9.3-7-13.7-11.3H334V874.6c-1.9-2.5-2.9-5.2-2.9-8 1.1.6 2.1 1.4 2.9 2.2v-13.4c-1.7-1.2-3.4-2.5-3.3-3.6.1-1.2 1.6-1.8 3.3-1.9v-12c-1.8-1.3-3.3-2.8-4.2-4.7-.4-.6-.6-1.3-.2-2 .2-.6 1.2-1.2 2.3-1.3.8 0 1.5.2 2.2.6v-32.9c-.3-.2-.6-.5-.9-.7-.6-.5-1.3-.9-1.9-1.3l2.8-1.5V793c-.1-.1-.3-.2-.4-.3-.2-.2-.7-.8-1.4-1.5l1.8 1V37H1358z"/><g id="XMLID_62_"><linearGradient id="SVGID_1_" gradientUnits="userSpaceOnUse" x1="737.7224" y1="1072.9329" x2="737.7151" y2="1074.7081"><stop offset="0" stop-color="#ffe98a"/><stop offset=".677" stop-color="#b63e59"/><stop offset="1" stop-color="#68126f"/></linearGradient><path d="M739.6 1074.7h-.3l-3.6-2.4c1.4.9 2.6 1.7 3.9 2.4z" fill="url(#SVGID_1_)"/><linearGradient id="SVGID_2_" gradientUnits="userSpaceOnUse" x1="846.3703" y1="385.3845" x2="843.1661" y2="1157.9073" gradientTransform="matrix(1 0 0 -1 -7.5e-7 1185.3199)"><stop offset="0" stop-color="#ffe98a"/><stop offset=".677" stop-color="#b63e59"/><stop offset="1" stop-color="#68126f"/></linearGradient><path d="M1358 1061V37H722.8c4.2-4.3 8.6-8.1 13-11.3-4.7 3.1-9.3 7-13.7 11.3H334v186.4c-1.9 2.5-2.9 5.2-2.9 8 1.1-.6 2.1-1.4 2.9-2.2v13.4c-1.7 1.2-3.4 2.5-3.3 3.6.1 1.2 1.6 1.8 3.3 1.9v12c-1.8 1.3-3.3 2.8-4.2 4.7-.4.6-.6 1.3-.2 2 .2.6 1.2 1.2 2.3 1.3.8 0 1.5-.2 2.2-.6v32.9c-.3.2-.6.5-.9.7-.6.5-1.3.9-1.9 1.3l2.8 1.5v1.2c-.1.1-.3.2-.4.3-.2.2-.7.8-1.4 1.5l1.8-1V1061H1358z" fill="url(#SVGID_2_)"/><g transform="translate(14 23)" opacity=".3"><circle cx="441.8" cy="239.8" r="3.4" fill="#fff" fill-opacity=".4"/><circle class="st5" cx="340.6" cy="26.2" r="3.4"/><circle class="st5" cx="384.5" cy="115" r="2.2"/><circle class="st5" cx="620.5" cy="204.9" r="2.2"/><circle class="st6" cx="722.8" cy="26.2" r="3.4"/><circle class="st5" cx="790.3" cy="239.8" r="3.4"/><circle class="st5" cx="880.2" cy="82.4" r="3.4"/><circle class="st5" cx="777.9" cy="103.8" r="2.2"/><circle class="st5" cx="1148.9" cy="182.5" r="2.2"/><circle class="st5" cx="1058.9" cy="81.3" r="2.2"/><circle class="st6" cx="1262.4" cy="239.8" r="3.4"/><circle class="st5" cx="1003.9" cy="206.1" r="3.4"/><path class="st5" d="M1232.1 15c0 1.9-1.5 3.4-3.4 3.4s-3.4-1.5-3.4-3.4c0-.3 0-.7.1-1h6.5c.1.3.2.6.2 1z"/><circle class="st5" cx="1317.5" cy="115" r="2.2"/></g><g transform="translate(0 550)"><linearGradient id="SVGID_3_" gradientUnits="userSpaceOnUse" x1="845.3885" y1="388.1624" x2="846.7741" y2="153.3606"><stop offset="0" stop-color="#f7eab9"/><stop offset="1" stop-color="#e5765e"/></linearGradient><path d="M1358 156.1V427H334V142.1c73.7-32.1 148-66.7 278.1-69.9h1.1c6-.1 12.1-.2 18.3-.2h2.6c43.4.1 79.2 4.1 110.1 10.5 6.3 1.3 12.4 2.7 18.3 4.2 6.1 1.6 12 3.2 17.8 4.9 68 20.4 112.4 52.7 174.2 76.1 42 15.9 92 27.8 162.8 29.1 4.6.1 9.4.1 14.2.1 83.9 0 159.9-18.1 226.5-40.8z" fill="url(#SVGID_3_)"/><linearGradient id="SVGID_4_" gradientUnits="userSpaceOnUse" x1="845.7236" y1="440.7534" x2="847.1281" y2="202.7436"><stop offset="0" stop-color="#f7eab9"/><stop offset="1" stop-color="#e5765e"/></linearGradient><path d="M1358 149.3V479H334V308.8c1.2-.1 2.4-.3 3.6-.4 2.3-.3 4.5-.5 6.8-.8 1.5-.2 3.1-.4 4.6-.6 5.1-.7 10.2-1.3 15.1-2 8.7-1.2 17.2-2.6 25.4-3.9 17.6-3 34.2-6.2 50.2-9.6 10.6-2.2 20.9-4.5 31.1-6.8l23.7-5.4c1.4-.3 2.7-.6 4.1-.9 2.4-.6 4.9-1.1 7.3-1.7 20.7-4.7 41.8-9.2 64.3-13.3 22.3-4.1 46-7.7 72.4-10.5 4.3-.5 8.6-.9 13.1-1.3l3-.3c.5 0 1-.1 1.5-.1 8.7-.8 17.6-1.5 26.9-2.1 1.1-.1 2.3-.2 3.4-.2 6.7-.4 13.2-1 19.5-1.6 12-1.2 23.5-2.8 34.5-4.7.6-.1 1.2-.2 1.9-.3 16.6-2.9 32.2-6.6 47-10.8 20.7-5.9 40-12.8 58.7-20.3 34.3-13.7 66.6-29.2 102.1-43.3 60.6-24 130.5-44.1 235.5-44.2h.9c72.9-.1 124.6 10.5 167.4 25.6z" fill="url(#SVGID_4_)"/><linearGradient id="SVGID_5_" gradientUnits="userSpaceOnUse" x1="1312.312" y1="460.2315" x2="1229.442" y2="143.4609"><stop offset="0" stop-color="#a22a50"/><stop offset="1" stop-color="#ee7566"/></linearGradient><path d="M1358 149.2V449h-167.1c3.9-3.4 7.7-6.7 11.3-10 4.5-4.1 8.8-8.1 12.8-12 1.8-1.7 3.5-3.4 5.2-5 30.3-29.9 48.5-55.2 54.5-76 .9-3.1 1.5-6 1.9-8.9 2.5-20.1-7.9-35.3-31.4-45.6-4.3-1.9-9.1-3.7-14.3-5.2-16.3-4.9-30.5-10.3-42.8-15.8-4.5-2.1-8.8-4.1-12.9-6.3-.4-.2-.8-.4-1.3-.7-4.3-2.3-8.3-4.6-12-7-1.4-.9-2.8-1.8-4.1-2.7-.9-.6-1.8-1.2-2.6-1.8-1.8-1.3-3.5-2.5-5.1-3.8-21.8-16.8-31.4-34.6-32.8-51.4-3.3-39.2 38.1-72.6 72.7-73.3h1c72.6.1 124.2 10.7 167 25.7z" fill="url(#SVGID_5_)"/><linearGradient id="SVGID_6_" gradientUnits="userSpaceOnUse" x1="1300.6973" y1="485.7992" x2="1255.2317" y2="312.0069"><stop offset="0" stop-color="#a22a50"/><stop offset="1" stop-color="#ee7566"/></linearGradient><path d="M1358 322.3V449h-167c3.9-3.4 7.7-6.7 11.3-10 4.5-4.1 8.8-8.1 12.8-12 1.8-1.7 3.5-3.4 5.2-5 30.3-29.9 48.4-55.2 54.5-76 .9-3.1 1.5-6 1.9-8.9 2.6-20-7.7-35.2-30.7-45.5-4.5-2-9.5-3.9-14.9-5.5l17.6 5 90.8 26 13.4 3.8 5.1 1.4z" fill="url(#SVGID_6_)"/><linearGradient id="SVGID_7_" gradientUnits="userSpaceOnUse" x1="845.8673" y1="474.4538" x2="846.282" y2="197.9105"><stop offset="0" stop-color="#f7eab9"/><stop offset="1" stop-color="#e5765e"/></linearGradient><path d="M1358 308.1V511H334V260.9c.1 0 .2-.1.2-.1 2.7-1.3 5.3-2.6 8-4l9.6-4.8c.8-.4 1.7-.8 2.5-1.3 6.6-3.3 13.3-6.6 20-9.8 1.4-.7 2.8-1.3 4.2-2 1.9-.9 3.9-1.8 5.8-2.7 4-1.9 8.1-3.7 12.3-5.5 3.6-1.6 7.3-3.2 11.1-4.7 25-10.3 52.7-19.2 86-25.4 2.4-.5 4.8-.9 7.3-1.3 3.4-.6 6.8-1.1 10.3-1.6 9.6-1.4 19.6-2.6 30.1-3.5 2-.2 4-.3 6-.5h.8c.8-.1 1.7-.1 2.5-.2 1.6-.1 3.3-.2 4.9-.3 13-.8 26.8-1.2 41.5-1.2h6.7c1.5 0 3 0 4.5.1 1.9 0 3.7.1 5.6.1.6 0 1.2 0 1.9.1 1.1 0 2.1.1 3.2.1 1.7.1 3.4.1 5.1.2 21.4 1 41.6 3.3 60.6 6.6 22.7 3.9 43.8 9.2 63.8 15.5 15.7 5 30.8 10.6 45.2 16.6 12.2 5.1 24 10.5 35.6 16.2 2 1 4 2 6 2.9 14.5 7.3 28.6 14.8 42.5 22.4l2.7 1.5c.9.5 1.8 1 2.6 1.5 13.9 7.7 27.6 15.4 41.3 23 5 2.8 10.1 5.5 15.1 8.2 1 .5 1.9 1 2.9 1.5 7.2 3.8 14.5 7.6 21.8 11.3 19.2 9.6 38.8 18.3 59.3 25.7 4.8 1.7 9.6 3.3 14.6 4.9l1.8.6 9 2.7c3.6 1 7.2 2 10.8 2.9 21.1 5.3 43.4 9 67.4 10.5 62.6 3.9 107.6-5.8 147.7-21h.1c13.5-5.1 26.5-10.9 39.4-16.9 8.4-3.9 16.8-8 25.2-12.1 6-3.1 12.2-6.1 18.5-9z" fill="url(#SVGID_7_)"/><linearGradient id="SVGID_8_" gradientUnits="userSpaceOnUse" x1="580.9283" y1="534.7704" x2="506.2513" y2="249.3173"><stop offset="0" stop-color="#a22a50"/><stop offset="1" stop-color="#ee7566"/></linearGradient><path d="M748.5 262v.5c0 8.8-1.2 16.8-3.4 24.2-.4 1.3-.8 2.7-1.3 4-.6 1.5-1.2 3.1-1.9 4.6-.2.5-.5 1-.7 1.5-1.2 2.4-2.4 4.8-3.9 7.1-3.9 6.3-8.8 12.2-14.5 17.7-1.8 1.7-3.7 3.4-5.7 5.1l-.3.3c-17.1 14.3-40.3 26.4-67.8 38.8l-.6.3c-3.5 1.6-7 3.1-10.6 4.7-.6.3-1.2.5-1.8.8-1 .4-2 .9-3 1.3-22.4 10.4-36.1 23.8-41.8 38.4-2 5.2-3.1 10.4-3.1 15.8-.1 5.9 1 11.8 3.2 17.7 4.5 12 13.6 23.7 27 34.3 5.8 4.6 12.4 8.9 19.7 13 13.7 7.5 30.1 14.1 49.1 19H334V260.9c.1 0 .2-.1.2-.1 2.7-1.3 5.3-2.6 8-4l9.6-4.8c.8-.4 1.7-.8 2.5-1.3 6.6-3.3 13.3-6.6 20-9.8 1.4-.7 2.8-1.3 4.2-2 1.9-.9 3.9-1.8 5.8-2.7 4-1.9 8.1-3.7 12.3-5.5 3.6-1.6 7.3-3.2 11.1-4.7 25-10.3 52.7-19.2 86-25.4 2.4-.5 4.8-.9 7.3-1.3 3.4-.6 6.8-1.1 10.3-1.6 9.6-1.4 19.6-2.6 30.1-3.5 2-.2 4-.3 6-.5h.8c.8-.1 1.7-.1 2.5-.2 1.6-.1 3.3-.2 4.9-.3 13-.8 26.8-1.2 41.5-1.2h6.7c1.5 0 3 0 4.5.1 1.9 0 3.7.1 5.6.1.6 0 1.2 0 1.9.1 1.1 0 2.1.1 3.2.1 1.7.1 3.4.1 5.1.2 20.9 1.1 41.5 3.5 59.9 8.2 29 7.4 52.1 20.2 60.9 41.6.9 2.3 1.7 4.6 2.3 7.1.8 4 1.3 8.1 1.3 12.5z" fill="url(#SVGID_8_)"/><linearGradient id="SVGID_9_" gradientUnits="userSpaceOnUse" x1="586.7204" y1="358.1486" x2="470.1975" y2="580.5385"><stop offset="0" stop-color="#a22a50"/><stop offset="1" stop-color="#ee7566"/></linearGradient><path d="M687 511H334v-14.8l10.3-4.3 31.4-13 125.9-52 5.3-2.2 20.5-8.5 105.3-43.5 3.3-1.3c-1 .4-2 .9-3 1.3-22.4 10.4-36.1 23.8-41.8 38.4-2 5.2-3.1 10.4-3.1 15.8-.1 5.9 1 11.8 3.2 17.7 4.5 12 13.6 23.7 27 34.3 5.8 4.6 12.4 8.9 19.7 13 13.7 7.6 30.1 14.1 49 19.1z" fill="url(#SVGID_9_)"/></g><g id="XMLID_38_"><g id="XMLID_42_"><path class="st14" d="M884.3 922.8H334v-48.2c-1.9-2.5-2.9-5.2-2.9-8 1.1.6 2.1 1.4 2.9 2.2v-13.4c-1.7-1.2-3.4-2.5-3.3-3.6.1-1.2 1.6-1.8 3.3-1.9v-12c-1.8-1.3-3.3-2.8-4.2-4.7-.4-.6-.6-1.3-.2-2 .2-.6 1.2-1.2 2.3-1.3.8 0 1.5.2 2.2.6v-32.9c-.3-.2-.6-.5-.9-.7-.6-.5-1.3-.9-1.9-1.3l2.8-1.5.9-.5.9-.5 7.1-3.8 15.1-8.1 26.9-14.5 101.9-55 51.4 27.3 9 4.8.8.4 82.6 43.9 10.9 5.8 14.2 7.5 3.4 1.8 1.3.7 25.1 13.3 4.1 2.2 4.5 2.4 8.5 4.5 35.4 18.8.8.4 2.2 1.1 11.8 6.3 3.4 1.8 14 7.4 52.6 28 23.6 12.5 33.3 17.7 4.5 2.5z"/><path id="XMLID_43_" fill="#ff9e49" d="M486.9 711.7l36.6 54.3h-27.6l70.5 44.4 64.4-22.3z"/></g></g><linearGradient id="XMLID_2_" gradientUnits="userSpaceOnUse" x1="2278.8379" y1="427.4303" x2="2278.8379" y2="637.5508" gradientTransform="rotate(180 1561.87475 398)"><stop offset="0" stop-color="#fff" stop-opacity="0"/><stop offset="1" stop-color="#fff"/></linearGradient><path id="XMLID_85_" d="M501.4 284.3c-5.6-39.9 5-84.4 36.2-110s84.4-24 107.4 9.2c11.7 17 14.1 38.5 22 57.5s25.9 37.4 46.2 33.4c14-2.9 23.6-15.2 34.2-24.6 10.8-9.4 27.7-16 38.5-6.7 4.3 3.7 6.5 9.3 9.7 14 9.4 14 29.1 20.2 45 14.2 12.8-4.9 25.4-16.7 38-11.6 8.3 3.3 12.4 12.8 20.1 17.6 9.7 6.1 22.2 3 33.6 1.4 20.6-2.8 41.4.4 61.8 3.5 66.2 10.2 132.6 20.3 198.9 30.5-63.6 13.6-130.1-3.8-194.6 5.3-34.3 4.8-67.6 17.1-102.1 17.6-24.5.4-49.3-5.3-73.3-.2-35.6 7.4-67.7 37.4-103.3 29.9-28.1-6-50-34.8-78.6-32-8.1.7-15.7 4.1-23.2 7.3-25.4 10.8-53.3 20.6-80.1 14s-49.3-36.7-37.9-61.8l1.5-8.5z" fill="url(#XMLID_2_)"/><g id="XMLID_3_"><g id="XMLID_89_"><g id="XMLID_127_"><path id="XMLID_129_" class="st17" d="M804.7 524.4S767 652.8 779.3 722.3l6.2 35.9h-45.3l6.2-35.9c12.2-69.5-25.4-197.9-25.4-197.9s47.1-46.8 83.7 0z"/><path id="XMLID_128_" class="st18" d="M762.8 758.3H740.1l6.2-35.9c12.2-69.5-25.4-197.9-25.4-197.9s18.4-18.3 41-20.6l.9 254.4z"/></g><g id="XMLID_90_"><g id="XMLID_124_"><path id="XMLID_126_" class="st19" d="M759.3 323c14.6-13.9 15.2-36.8 1.3-51.4-11.6-12.3-29.8-14.6-44-6.8-12.4 18.4-10.9 43.6 5 60.4 2.8 3 5.9 5.5 9.2 7.5 10.2 1.1 20.6-2.1 28.5-9.7z"/><path id="XMLID_125_" class="st20" d="M792.1 258.6c-18.4-19.4-49.1-20.2-68.5-1.8-2.6 2.5-4.9 5.3-6.8 8.1h.1c-4.8 6.9-4.3 16.6 1.8 23 6.9 7.3 18.5 7.7 25.8.7 7.3-6.9 7.7-18.5.7-25.8-.4-.4-.7-.7-1.1-1 6.2 1.7 12 5 16.7 10 13.9 14.6 13.3 37.5-1.3 51.4-7.9 7.5-18.3 10.8-28.3 9.8 18.3 11.6 42.9 9.8 59.3-5.7 19.3-18.6 20-49.4 1.6-68.7z"/></g><g id="XMLID_121_"><path id="XMLID_123_" class="st19" d="M822 375.6c0-24.6 20-44.7 44.7-44.7 20.8 0 38.3 14.2 43.3 33.5-5.9 26.7-29.7 46.6-58.1 46.6-5 0-9.9-.6-14.5-1.8-9.4-8.1-15.4-20.2-15.4-33.6z"/><path id="XMLID_122_" class="st20" d="M851.8 291.9c32.9 0 59.6 26.7 59.6 59.6 0 4.4-.5 8.7-1.4 12.9v-.1c-2.2 10.2-11.1 17.8-22 17.8-12.4 0-22.5-10-22.5-22.5 0-12.4 10-22.5 22.5-22.5.6 0 1.2 0 1.8.1-6.7-4.1-14.6-6.5-23.1-6.5-24.6 0-44.7 20-44.7 44.7 0 13.4 5.9 25.4 15.3 33.6-25.8-6.5-45.1-29.9-45.1-57.8 0-32.6 26.7-59.3 59.6-59.3z"/></g><g id="XMLID_118_"><path id="XMLID_120_" class="st17" d="M795.2 313.5c-1.7-9.8 4.9-19 14.7-20.7 8.3-1.4 16.1 3.1 19.4 10.4-.6 11-8.6 20.4-20 22.4-2 .4-3.9.4-5.9.2-4.1-2.7-7.2-7-8.2-12.3z"/><path id="XMLID_119_" class="st18" d="M801.4 278.4c13-2.2 25.4 6.6 27.5 19.6.2 1.8.4 3.5.4 5.3-.1 4.2-3.2 7.8-7.5 8.5-4.9.8-9.6-2.5-10.4-7.4s2.5-9.6 7.4-10.4c.2 0 .5-.1.7-.1-3-1.2-6.2-1.6-9.6-1-9.8 1.7-16.4 10.9-14.7 20.7.8 5.3 4.1 9.7 8.3 12.3-10.6-.8-19.9-8.8-21.6-19.9-2.2-13.1 6.6-25.4 19.5-27.6z"/></g><g id="XMLID_115_"><path id="XMLID_117_" class="st19" d="M689.9 350.5c-10.2-9.7-10.6-25.8-1-36 8.1-8.6 20.9-10.3 30.7-4.8 8.7 12.9 7.7 30.6-3.6 42.3-1.9 2-4.2 3.8-6.5 5.3-6.8.8-14-1.5-19.6-6.8z"/><path id="XMLID_116_" class="st20" d="M667 305.3c12.9-13.6 34.4-14.1 48-1.2 1.8 1.8 3.5 3.7 4.8 5.6 3.3 4.9 3 11.6-1.2 16-4.9 5.1-12.9 5.4-18.1.5-5.1-4.9-5.4-12.9-.5-18.1l.7-.7c-4.3 1.2-8.4 3.5-11.7 6.9-9.7 10.2-9.2 26.3 1 36 5.5 5.3 12.8 7.5 19.9 6.9-12.8 8.1-30 6.9-41.5-4.1-13.8-12.6-14.3-34.1-1.4-47.8z"/></g><g id="XMLID_112_"><path id="XMLID_114_" class="st17" d="M875.2 448.2c9-23.3 35.2-34.9 58.4-25.8 19.6 7.5 31 27.4 28.6 47.2-15.3 23-45 33.1-71.9 22.8-4.8-1.8-9.1-4.2-13-6.9-5.8-11.1-7-24.6-2.1-37.3z"/><path id="XMLID_113_" class="st18" d="M933.7 380.1c31.1 12 46.5 46.9 34.6 77.8-1.7 4.2-3.7 8.1-6.1 11.7v-.1c-5.7 8.8-17 12.8-27.3 8.8-11.7-4.5-17.5-17.7-13-29.3 4.5-11.7 17.7-17.5 29.3-13 .6.2 1.1.5 1.7.7-4.9-6.3-11.5-11.4-19.4-14.5-23.3-9-49.4 2.6-58.4 25.8-4.9 12.7-3.7 26.1 2.2 37.2-22-15.5-31.6-44.6-21.4-70.9 11.9-30.8 46.8-46.2 77.8-34.2z"/></g><g id="XMLID_109_"><path id="XMLID_111_" class="st17" d="M629.8 432.4c-8.3-11.8-24.6-14.8-36.5-6.6-10 6.9-13.6 19.7-9.6 30.6 11.8 10.9 29.9 12.4 43.6 3 2.4-1.7 4.5-3.6 6.3-5.7 1.8-7 .7-14.8-3.8-21.3z"/><path id="XMLID_110_" class="st18" d="M587.4 402.1c-15.8 11-19.7 32.8-8.7 48.7 1.4 2.2 3.2 4.1 5 5.7 4.4 4.2 11.4 4.9 16.6 1.2 6-4.2 7.4-12.3 3.2-18.3s-12.3-7.4-18.3-3.2c-.2.2-.6.5-.8.6 1.9-4.2 4.9-8 9-10.9 11.8-8.3 28.2-5.4 36.5 6.6 4.5 6.5 5.7 14.2 3.9 21.3 10.3-11.8 11.6-29.5 2.3-42.9-11.2-16-32.9-19.8-48.7-8.8z"/></g><g id="XMLID_106_"><path id="XMLID_108_" class="st19" d="M672.2 489.1c-15.9-11.8-38.4-8.6-50.2 7.3-10 13.4-9.2 31.5.7 43.9 20 9 44.2 3.2 58-15.1 2.4-3.2 4.3-6.7 5.9-10.2-.9-9.8-5.8-19.4-14.4-25.9z"/><path id="XMLID_107_" class="st20" d="M604 468.1c-15.8 21.2-11.5 51.2 9.7 67 2.9 2.2 5.9 3.9 9 5.3v-.1c7.5 3.6 16.9 1.4 22-5.6 6-8 4.3-19.3-3.7-25.2-8-6-19.3-4.3-25.2 3.7-.2.4-.6.8-.8 1.2.6-6.3 2.9-12.4 6.9-17.9 11.8-15.9 34.3-19.1 50.2-7.3 8.6 6.5 13.5 16 14.3 25.9 8.3-19.7 2.4-43.4-15.5-56.8-21.2-15.7-51.1-11.4-66.9 9.8z"/></g><g id="XMLID_103_"><path id="XMLID_105_" class="st19" d="M875.1 519.6c17.9-10.3 40.8-4.2 51.1 13.8 8.7 15.1 5.7 33.7-6.2 45.3-21.8 6.8-46.2-2-58.1-22.7-2-3.6-3.7-7.4-4.8-11.2 2-10.2 8.2-19.6 18-25.2z"/><path id="XMLID_104_" class="st20" d="M948.2 506.2c13.8 23.8 5.5 54.3-18.3 68-3.2 1.9-6.6 3.3-9.9 4.4h.1c-8.3 2.8-17.6-.6-22.1-8.5-5.1-9-2-20.4 6.9-25.6s20.4-2 25.6 6.9c.2.5.5.8.7 1.3.1-6.6-1.4-13.3-4.9-19.4-10.3-17.9-33.1-24-51.1-13.8-9.7 5.6-15.9 14.9-17.9 25.1-6.1-21.5 2.9-45.2 23.1-56.8 23.6-13.6 54-5.4 67.8 18.4z"/></g><g id="XMLID_100_"><path id="XMLID_102_" class="st17" d="M771.5 384.7c10.3-20.4 2-45.2-18.4-55.5-17.2-8.6-37.5-4.2-49.6 9.7-6.2 24.5 5.1 50.9 28.7 62.7 4.2 2 8.4 3.6 12.8 4.5 11.1-2.8 20.9-10.2 26.5-21.4z"/><path id="XMLID_101_" class="st18" d="M781.7 303.2c-27.1-13.6-60.4-2.8-74 24.5-1.8 3.7-3.2 7.4-4.2 11.2v-.1c-2.5 9.3 1.8 19.4 10.8 23.9 10.3 5.1 22.7 1.1 27.9-9.2 5.1-10.3 1.1-22.7-9.2-27.9-.5-.2-1-.5-1.6-.7 7.3-.6 14.7.7 21.8 4.3 20.4 10.3 28.6 35.2 18.4 55.5-5.6 11.1-15.4 18.5-26.5 21.4 24 5.4 49.6-6 61.2-29.1 13.5-27.1 2.7-60.2-24.6-73.8z"/></g><g id="XMLID_97_"><path id="XMLID_99_" class="st19" d="M725 448.2c0-27.7-22.5-50.2-50.2-50.2-23.3 0-42.9 15.9-48.6 37.5 6.7 29.9 33.4 52.4 65.3 52.4 5.6 0 11.1-.7 16.3-2 10.6-9.1 17.2-22.6 17.2-37.7z"/><path id="XMLID_98_" class="st20" d="M691.5 354.2c-37 0-66.8 29.9-66.8 66.8 0 5 .6 9.8 1.6 14.6v-.1c2.4 11.5 12.6 20.1 24.6 20.1 13.9 0 25.2-11.2 25.2-25.2 0-13.9-11.2-25.2-25.2-25.2-.7 0-1.3 0-2 .1 7.5-4.5 16.4-7.2 25.8-7.2 27.7 0 50.2 22.5 50.2 50.2 0 15.1-6.6 28.6-17.1 37.7 29.1-7.3 50.6-33.6 50.6-64.9.1-37-29.9-66.9-66.9-66.9z"/></g><g id="XMLID_94_"><path id="XMLID_96_" class="st17" d="M750.1 503.2c-12.1-17.2-35.8-21.5-53-9.4-14.6 10.2-19.9 28.6-14 44.5 17.1 15.8 43.5 18.2 63.4 4.3 3.5-2.4 6.6-5.3 9.3-8.4 2.6-10.3.9-21.6-5.7-31z"/><path id="XMLID_95_" class="st18" d="M688.5 459.2c-23 16-28.7 47.7-12.7 70.7 2.2 3.1 4.7 5.9 7.3 8.4v-.1c6.5 6.1 16.5 7.1 24 1.8 8.6-6 10.8-17.9 4.8-26.7-6.1-8.6-17.9-10.8-26.7-4.8-.5.2-.8.6-1.2 1 2.8-6.1 7.1-11.6 12.9-15.7 17.2-12.1 41-7.8 53 9.4 6.6 9.3 8.3 20.7 5.7 31 14.9-17.1 17-42.8 3.3-62.3-15.7-23.1-47.4-28.7-70.4-12.7z"/></g><g id="XMLID_91_"><path id="XMLID_93_" class="st17" d="M759.2 481c13.2-34.1 51.4-51.1 85.5-37.9 28.7 11.1 45.2 39.9 41.9 69.1-22.4 33.7-65.8 48.6-105.1 33.4-6.9-2.6-13.3-6.1-19.1-10.2-8.6-16.1-10.4-35.9-3.2-54.4z"/><path id="XMLID_92_" class="st18" d="M844.8 381.3c45.4 17.5 68 68.5 50.5 114-2.4 6.1-5.4 11.8-8.8 17.1v-.1c-8.4 12.9-24.9 18.8-39.8 12.9-17.1-6.6-25.6-25.8-19-42.9 6.6-17.1 25.8-25.6 42.9-19 .8.4 1.7.7 2.4 1.1-7.2-9.2-16.7-16.6-28.3-21.2-34.1-13.2-72.3 3.8-85.5 37.9-7.2 18.5-5.4 38.3 3.1 54.5-32.3-22.7-46.3-65.2-31.5-103.7 17.7-45.5 68.7-68.2 114-50.6z"/></g></g></g><g id="XMLID_19_"><path class="st21" d="M739.6 1074.7h-.3l-3.6-2.4c1.4.9 2.6 1.7 3.9 2.4zM899 859.1c-.7 2.5-1.4 4.9-2.1 7.3-5.7 19.5-11.4 37.5-17.1 54-.3.8-.5 1.6-.8 2.4-1.8 5.3-3.7 10.5-5.5 15.6l-.9 2.4c-4.8 13.1-9.6 25.1-14.3 36.2-2.7 6.2-5.3 12.1-8 17.7-6.2 13-12.2 24.4-18.3 34.3-2.8 4.7-5.7 9-8.5 12.9-5.2 7.4-10.4 13.8-15.5 19.1h-85.4c-5.4-5.6-10.7-12-15.7-19.1-2.9-4.1-5.8-8.4-8.6-12.9-6.6-10.7-12.8-22.3-18.5-34.3-2.8-5.8-5.5-11.8-8-17.7-3.1-7.2-6-14.4-8.8-21.5-4.2-10.9-8.1-21.6-11.5-31.6-.1-.3-.2-.6-.3-1-.8-2.4-1.6-4.8-2.4-7.1-5.2-16-9.3-29.9-12.1-40-.5-2-1-3.8-1.5-5.4-.7-2.6-1.3-4.8-1.7-6.5-.5-1.9-.8-3.3-1-4 0-.2-.1-.3-.1-.4 0-.2-.1-.3-.1-.3s.1-.1.2-.4c0-.1.1-.2.2-.4.1-.1.1-.3.2-.5 0-.1.1-.2.1-.3.1-.1.1-.2.2-.4 0-.1.1-.2.1-.3.1-.1.1-.3.2-.4.1-.3.3-.5.4-.8.2-.3.3-.6.5-.9.2-.3.3-.7.5-1 .4-.7.7-1.5 1.1-2.4.5-1 1-2 1.5-3.2.9-1.8 1.8-3.8 2.8-6v-.1c.1-.1.1-.3.2-.4v-.1c1.6-3.3 3.4-7.1 5.3-11 .9-1.9 1.8-3.8 2.8-5.8.3-.5.5-1.1.8-1.6.9-1.8 1.8-3.7 2.7-5.6l1.5-3.3c.6-1.3 1.3-2.6 1.9-4 .8-1.6 1.5-3.3 2.3-4.9.4-.7.7-1.4 1-2.2.2-.3.3-.7.5-1l.6-1.2c8.3-17.5 16.9-35.8 23.5-50.2.3-.6.5-1.1.8-1.7 1.8-3.8 3.3-7.3 4.7-10.4.2-.4.4-.9.6-1.3.1-.3.2-.5.3-.8 0 0 .6-.6 1.5-1.7.4-.4.8-.8 1.2-1.3 2.9-3.2 7.8-8.7 13-14.4.4-.4.8-.9 1.2-1.3.3-.3.5-.6.8-.9 8.9-9.9 13.3-49.4 28.1-67.2 0 0 1 .7 2.6 1.6.1.1.3.2.4.2 2 1.2 4.8 2.8 7.9 4.2 2.8 1.3 5.8 2.6 8.6 3.4.5.2 1 .3 1.6.4.8.2 1.5.3 2.3.4 1.1.2 2.1.2 3.1.2 1.2 0 2.2-.3 3.2-.7v.1c3.2 1.5 8 .6 12.7-1.1 8.5-3 17-8.7 17-8.7 14.7 17.7 19.3 57.2 28.1 67.1 9 9.8 17.8 19.7 17.8 19.7 2.8 6.4 6.7 14.9 11.1 24.4 9.4 20.3 21.3 45.1 30.7 64.8 3 6.3 5.8 12.1 8.1 17 .4.8.7 1.5 1.1 2.3 3.1 6.5 5.4 11.2 6.3 13.1.6.6.8.9.8.9z"/><path class="st22" d="M773.7 1029c0 4.5-.1 8.9-.3 12.9-.3 7.2-.7 13.6-1.4 19.1h-49.3c4.2 4.3 8.6 8.1 13 11.3-4.7-3.1-9.3-7-13.7-11.3-5.6-5.5-11-12-16.1-19.1-3-4.1-5.9-8.4-8.7-12.9-6.6-10.6-12.8-22.3-18.5-34.3-2.8-5.8-5.4-11.8-8-17.7-3-7.2-5.9-14.4-8.6-21.5-4.2-11-8-21.8-11.3-31.9-.1-.3-.2-.5-.3-.8-.8-2.3-1.5-4.6-2.2-6.9-5.1-16.1-9-30.1-11.7-40.3-.5-1.9-1-3.7-1.4-5.4-.7-2.6-1.2-4.8-1.6-6.5-.5-1.9-.8-3.3-1-4.1 0-.2-.1-.3-.1-.4 0-.2-.1-.3-.1-.3s.1-.1.2-.4c0-.1.1-.2.2-.4.1-.1.1-.3.2-.5 0-.1.1-.2.1-.3.1-.1.1-.2.2-.4 0-.1.1-.2.1-.3.1-.1.1-.3.2-.4.1-.3.3-.5.4-.8.2-.3.3-.6.5-.9.2-.3.3-.7.5-1 .4-.7.7-1.5 1.1-2.4.5-1 1-2 1.5-3.2.9-1.9 1.9-4 3-6.2 1.6-3.4 3.5-7.2 5.4-11.3.9-1.9 1.8-3.8 2.8-5.8.3-.5.5-1.1.8-1.6.9-1.8 1.8-3.7 2.7-5.6.5-1.1 1-2.2 1.6-3.3.6-1.3 1.3-2.6 1.9-4 .8-1.6 1.6-3.3 2.4-4.9.3-.7.7-1.4 1-2.2.2-.3.3-.7.5-1l.6-1.2c8.3-17.5 16.9-35.8 23.5-50.1.3-.6.5-1.1.8-1.7 1.7-3.8 3.3-7.3 4.7-10.4.2-.4.4-.9.6-1.3.1-.3.2-.5.3-.8 0 0 .6-.6 1.5-1.7.4-.4.8-.8 1.2-1.3 2.9-3.3 7.8-8.7 13-14.4.4-.4.8-.9 1.2-1.3.3-.3.5-.6.8-.9 8.9-9.9 13.3-49.4 28.1-67.2 0 0 1 .7 2.6 1.6.1.1.3.2.4.2 2 1.2 4.8 2.8 7.9 4.3 2.8 1.3 5.8 2.6 8.6 3.4.5.2 1 .3 1.6.4.8.2 1.5.3 2.3.4 1.1.2 2.1.2 3.1.2 1.2 0 2.2-.3 3.2-.7v.1s-1.3 6.4-3.1 16.5c-3.7 20-9.9 54.5-13.4 82.1v.1c-.3 2.2-.5 4.3-.8 6.4-1.2 10.1-1.9 19-1.9 25.3v2.1c.1 2.3.2 4.8.4 7.4.3 3.9.8 8.1 1.5 12.5v.2c1.1 7.7 2.6 16.1 4.2 24.7.5 2.3.9 4.6 1.4 7 .1.5.2.9.3 1.4l1.5 7.5c.1.7.3 1.4.4 2.1.3 1.4.6 2.9.9 4.3.5 2.4 1 4.9 1.5 7.3l.6 3c3.3 16 6.2 31 7.3 42.2.4 3.8.8 7.5 1.1 11.2.8 7.9 1.5 15.8 2.1 23.5v.5c.8 10.3 1.6 20.3 2.2 30.1.4 6 .7 12 .9 17.7.7 12.3 1 23.9.9 34.3z"/></g></g><path id="XMLID_73_" d="M796.2 843.9c-.2-.1-.5-.1-.7-.1l.9.2c-.1 0-.1 0-.2-.1zm442.5-36.2c0 .1-.1.3-.2.4l1-.3c-.3 0-.6-.1-.8-.1zm116.1-41.5c-1.7 1.3-3.1 3.6-.2 4.1 1.2.2 2.3-.1 3.4-.6v-6.3c-.9.9-2 1.9-3.2 2.8zm1.4 9.9c-1.6 1.1-3.1 2.4-3.1 3.8L1320 788c-.8-1.2-1.6-2.5-2.1-3.7-.1-.4-1-1.8-.6-2.2 1.1-1 4.1 1.6 4.5 1.8 1.1.6 2.6 1 4.1.7 1-.2 1.7-.8 1.8-1.3.1-.6-.2-1.2-.7-1.7-.7-.7-1.8-1.3-3-1.8-2-1.1-4-1.9-5.2-3.2-1.2-1.3-1.7-2.8-1.6-4.2 0-.1 0-.1.1-.2.2-.1.6-.1.9 0 1.2.4 1.8 1.1 2.3 1.8.7 1.1 2 1.9 4.3 1.9 1.7 0 3.5-.6 3.6-1.5.1-.5-.4-1-.7-1.4-2.1-2.2-5.9-3.9-8.6-5.9-1.7-1.2-3.1-2.6-3.5-4.2-.1-.5-.7-1.7 0-2 .2-.1.7-.1 1.1-.1.4.1.7.2 1 .4 2.2 1.2 4.4 2.5 7.7 1.9.4 0 .7-.1.8-.4.1-.1.1-.2.1-.4.1-1.5-1.8-2.4-3.4-3.5-2.9-2-3.3-5.3-4.5-7.6-1.4-3-2.6-6-3.9-9.1-.2-.6-.6-1.2-1.4-1.5-3.1-1.1-3 2.9-3.1 3.6-.5 1.8-1 3.6-1.8 5.4-1.6 3.6-4 7-7.9 10-1.7 1.3-3.1 3.6-.2 4.1 4.1.7 7.2-4.4 10.2-2.8-.4 1.8-2.3 3.1-4.1 4.7-1.6 1.3-2.8 2.6-4.6 4-1.6 1.1-3.1 2.4-3.1 3.8 0 .5.2 1 1 1.2.5.1 1 .2 1.4.2 2 0 4.2-.4 5.5-1.2.6-.4 1.1-.7 1.7-1.1.6-.4 1.6-.6 2.4-.4 3.5.6-1.2 5.3-2.3 6-1.1.7-2.2 1.4-3.4 2-1.6.8-3.2 1.8-4.4 2.8-1.3 1-2.2 2.1-2.2 3.5.1.8.7 1.7 2 1.9 1 .2 2.3.1 3.1-.2.9-.4 1.7-.8 2.3-1.3.8-.6 1.7-1.2 2.4-1.9.5-.4 1.8-1.3 2.6-.6.4.3-.5 1.5-.6 1.9-.6 1.3-2 2.5-3.7 3.6-1.4.9-3 1.8-4.4 2.8l-26.1 6.4-6.3 1.5-3.8.9c-.5-.3-.9-.7-1.4-1.2-1.2-1.3-1.7-2.8-1.6-4.2 0-.1 0-.1.1-.2.2-.1.6-.1 1 0 1.2.4 1.8 1.1 2.3 1.8.7 1.1 2 1.9 4.3 1.9 1.7 0 3.5-.6 3.6-1.5.1-.2 0-.5-.2-.7-.2-.3-.4-.5-.6-.8-.4-.4-1-.9-1.5-1.3-2.1-1.6-4.9-3-7.1-4.6-1.7-1.2-3.1-2.6-3.5-4.2-.1-.5-.7-1.7 0-2 .2-.1.7-.1 1.1-.1.4.1.7.2 1 .3 1.5.8 3.1 1.8 5 2 .8.1 1.7.1 2.6-.1.4 0 .7-.1.8-.4.1-.1.1-.2.1-.4.1-1.5-1.8-2.4-3.3-3.5-2.9-2-3.3-5.3-4.6-7.6-1.4-3-2.6-6-3.9-9.1-.2-.6-.6-1.2-1.4-1.5-3.1-1.1-3 2.9-3.1 3.6-.5 1.8-.9 3.6-1.8 5.4-1.5 3.6-3.9 7.1-7.9 10-1.7 1.3-3.1 3.6-.2 4.1 4.1.7 7.2-4.4 10.2-2.8-.4 1.8-2.3 3.1-4.1 4.7-1.6 1.3-2.8 2.6-4.5 3.9-1.6 1.1-3.1 2.4-3.1 3.8 0 .5.2 1 1 1.2.5.1 1 .2 1.4.2 1.3 0 2.6-.1 3.7-.4.7-.2 1.3-.4 1.8-.8.6-.4 1.1-.7 1.7-1.1.6-.3 1.6-.6 2.4-.3 3.5.6-1.2 5.3-2.3 6l-.9.6c-.8.5-1.6 1-2.5 1.5-1.4.8-3 1.7-4.2 2.5l-6.7 1.7h.1l-4.9 1.2-.4-.4c-1.2-1.3-1.7-2.8-1.6-4.2 0-.1 0-.1.1-.2.2-.1.6-.1 1 0 1.2.4 1.8 1.1 2.3 1.8.5.7 1.3 1.4 2.6 1.7v-.2c.1-.5-.4-1-.7-1.4-2.2-2.1-5.9-3.9-8.6-5.9-1.7-1.2-3.1-2.6-3.5-4.2-.1-.5-.7-1.7 0-2 .2-.1.7-.1 1.1-.1.4.1.7.2 1 .4 2.2 1.2 4.4 2.5 7.7 1.9.4 0 .7-.1.8-.4.1-.1.1-.2.1-.3.1-1.6-1.8-2.4-3.4-3.5-2.9-2-3.3-5.3-4.5-7.6-1.4-3-2.6-6-3.9-9.1-.2-.6-.6-1.2-1.4-1.6-3.1-1.1-3 2.9-3.1 3.6-.5 1.8-1 3.6-1.8 5.4-1.5 3.6-3.9 7.1-7.9 10.1-1.7 1.3-3.1 3.6-.2 4.1 4.1.7 7.2-4.4 10.2-2.8-.4 1.8-2.3 3.1-4.1 4.7-1.5 1.3-2.8 2.6-4.5 4-1.6 1.1-3.1 2.4-3.1 3.8 0 .5.2.9.9 1.2.5.1 1 .2 1.4.2 2 0 4.2-.4 5.5-1.2.6-.4 1.1-.7 1.7-1.1.6-.4 1.6-.6 2.4-.4 3.5.6-1.2 5.3-2.3 6-1.1.7-2.2 1.4-3.3 2-.5.2-1 .5-1.4.8l-25.6 6.4-4.8 1.2c-.7-.6-1.7-1.1-2.6-1.5-2-1.1-4-1.9-5.2-3.2-.5-.6-.9-1.2-1.2-1.8-.2-.5-.3-1-.4-1.5v-.9c0-.1 0-.1.1-.2.2-.1.6-.1 1 0l.6.3c.8.4 1.3 1 1.6 1.5.7 1.1 2 1.9 4.3 1.9 1.7 0 3.5-.6 3.6-1.5.1-.5-.4-1-.7-1.4-2.1-2.2-5.9-3.9-8.6-5.9-1.7-1.2-3.1-2.6-3.5-4.2-.1-.5-.7-1.7 0-2 .2-.1.7-.1 1.1-.1.4.1.7.2 1 .4 2.2 1.2 4.4 2.5 7.7 1.9.4 0 .7-.1.8-.4.1-.1.1-.2.1-.4.1-1.5-1.8-2.4-3.3-3.5-2.9-2-3.3-5.3-4.5-7.6-1.4-3-2.6-6-4-9.1-.2-.6-.6-1.2-1.4-1.5-2.7-.9-3 1.9-3.1 3.2v.4c-.5 1.8-1 3.6-1.8 5.4-.2.5-.5 1.1-.8 1.6-.3.6-.7 1.2-1 1.8-1.5 2.3-3.4 4.6-6.1 6.6-.8.6-1.6 1.5-1.8 2.3-.2.8.1 1.5 1.6 1.7.4.1.7.1 1 0 3.5-.2 6.3-4.2 9-2.8h.1c-.4 1.8-2.3 3.1-4.1 4.6-.3.3-.6.5-.9.8-1.2 1-2.2 2.1-3.6 3.1-1.6 1.1-3.1 2.4-3.1 3.8 0 .5.2 1 1 1.2.5.1 1 .2 1.4.2 2 0 4.2-.4 5.5-1.2.6-.4 1.1-.7 1.7-1.1.6-.4 1.6-.6 2.4-.4 1.2.2 1.4.9 1.2 1.7-.4 1.3-1.9 3-2.9 3.8-.2.2-.4.3-.5.4-1.1.7-2.2 1.4-3.2 2-1.6.8-3.2 1.8-4.4 2.8-1.3 1-2.1 2.1-2.1 3.5 0 .7.6 1.4 1.7 1.8l-2.4.6-29.6 7.2c-1.4-1.7-2.6-3.3-3.1-5.1-.1-.2 0-.7.5-.7.2 0 .5 0 .6.1 2.6 1.1 2.5 3 6.1 3.6 2.6.4 6.3-.4 6.6-1.9.1-1.2-1.8-2.1-3.3-3.1-3.7-2-6.7-4.4-8.7-7.1-1-1.3-1.8-2.6-2.3-3.9-.1-.4-.9-1.8-.6-2.2 1.1-1 4.1 1.6 4.5 1.8 1.1.6 2.6 1 4.1.7.9-.2 1.7-.8 1.8-1.3.1-.6-.2-1.2-.7-1.7-.7-.7-1.8-1.3-3-1.8-2-1.1-3.9-1.9-5.1-3.2-1.2-1.3-1.7-2.8-1.6-4.2 0-.1 0-.1.1-.2.2-.1.6-.1.9 0 1.2.4 1.8 1.1 2.3 1.8.7 1.1 2 1.9 4.3 1.9 1.7 0 3.5-.6 3.6-1.6.1-.5-.4-1-.7-1.4-2.1-2.2-5.9-4-8.6-5.9-1.7-1.2-3.1-2.6-3.5-4.2-.1-.5-.7-1.7 0-2 .2-.1.7-.1 1.1-.1.4.1.7.2.9.4 2.2 1.2 4.4 2.5 7.7 1.9.4 0 .7-.1.8-.4.1-.1.1-.2.1-.4.1-1.5-1.8-2.4-3.3-3.5-2.9-2-3.3-5.3-4.5-7.7-1.4-3-2.6-6-3.9-9.1-.2-.6-.6-1.2-1.4-1.6-3.1-1.1-3 2.9-3.1 3.6-.5 1.8-1 3.6-1.8 5.4-1.6 3.6-4 7-7.9 10-1.7 1.3-3.1 3.6-.2 4.1 4.1.7 7.2-4.4 10.2-2.8-.4 1.8-2.3 3.1-4.1 4.7-1.6 1.3-2.8 2.6-4.5 4-1.6 1.1-3.1 2.4-3.1 3.8 0 .5.2 1 1 1.2.5.1 1 .2 1.4.2 2 0 4.2-.4 5.5-1.2.6-.4 1.1-.7 1.7-1.1.6-.4 1.6-.6 2.4-.4 3.5.6-1.2 5.3-2.3 6-1.1.7-2.2 1.4-3.2 2-1.6.8-3.2 1.8-4.4 2.8-.5.4-1 .8-1.4 1.3-.5.7-.8 1.4-.8 2.2.1.8.7 1.6 1.9 1.9h.1c1 .2 2.3.1 3.1-.2 1-.4 1.7-.8 2.3-1.3.8-.6 1.7-1.2 2.4-1.9.5-.4 1.8-1.3 2.6-.6.4.4-.5 1.5-.6 1.9-.6 1.3-2 2.5-3.7 3.6-1.5 1-3.2 2-4.8 3-1.9 1.3-3.7 2.6-4.4 4.3-.6 1.4.5 3.2 3.1 3.4 1.9 0 3-.9 4.3-1.8 1.1-.8 2.2-1.6 3.9-1.7.5 1.5-.5 2.9-2 4.2-1.4 1.1-3.2 2.2-4.8 3.2-1.5.9-3 2.1-3.8 3.4v.1l-.3.6h-.1l-16.7 4.1-2 .5c-1.9-1-3.8-1.8-4.9-3.1-.6-.7-1.1-1.4-1.3-2.2-.2-.7-.3-1.3-.3-2 0-.1 0-.1.1-.2.2-.1.6-.1 1 0 1.2.4 1.8 1.1 2.3 1.8.1.2.2.3.4.5.8.8 2 1.4 3.9 1.4 1.6 0 3.3-.5 3.6-1.4v-.1c.1-.5-.4-1-.7-1.4-2.2-2.2-5.9-3.9-8.6-5.9-1.7-1.2-3.1-2.6-3.5-4.2-.1-.5-.7-1.7 0-2 .2-.1.7-.1 1.1-.1.4.1.7.2 1 .4 2.1 1.2 4.4 2.5 7.6 1.9.4 0 .7-.1.8-.4.1-.1.1-.2.1-.4.1-1.6-1.8-2.4-3.3-3.5-2.9-2-3.4-5.3-4.5-7.7-1.4-3-2.6-6-4-9.1-.2-.6-.6-1.2-1.4-1.6-3.1-1.1-3 2.9-3.1 3.6-.5 1.8-1 3.6-1.8 5.4-1.6 3.6-3.9 7.1-7.9 10-1.7 1.3-3.1 3.6-.2 4.1 4.1.7 7.2-4.4 10.2-2.8-.4 1.8-2.3 3.1-4.1 4.7-1.6 1.3-2.8 2.6-4.5 3.9-1.6 1.1-3.1 2.4-3.1 3.8 0 .5.2 1 .9 1.2.5.1 1 .2 1.4.2.9 0 1.9-.1 2.8-.2 1.1-.2 2-.5 2.7-1 .6-.4 1.1-.7 1.7-1.1.6-.4 1.6-.6 2.4-.4 1.5.3 1.5 1.3.9 2.4-.8 1.5-2.5 3.2-3.2 3.6-1.1.7-2.2 1.4-3.2 2-1.6.8-3.2 1.8-4.4 2.8-1.2 1-2 2-2 3.2l-12 3c-.6-.4-1.1-.7-1.4-1.2-1.2-1.3-1.7-2.8-1.6-4.2 0-.1 0-.1.1-.2.2-.1.6-.1 1 0 1.2.4 1.8 1.1 2.3 1.8.7 1.1 2 1.9 4.3 1.9 1.7 0 3.5-.6 3.6-1.5.1-.5-.4-1-.7-1.4-2.2-2.2-5.9-3.9-8.6-5.9-1.2-.8-2.2-1.8-2.9-2.8-.3-.4-.5-.9-.6-1.4-.1-.5-.7-1.7 0-2 .2-.1.7-.1 1.1-.1.4.1.7.2 1 .4 2.2 1.2 4.4 2.5 7.7 1.9.4 0 .7-.1.8-.4.1-.1.1-.2.1-.4.1-1.6-1.8-2.4-3.3-3.5-2.9-2-3.3-5.3-4.5-7.7-1.4-3-2.6-6-4-9.1-.2-.6-.6-1.2-1.4-1.6-3.1-1.1-3 2.9-3.1 3.6-.5 1.8-1 3.6-1.8 5.4-1.6 3.6-3.9 7.1-7.9 10-1.7 1.3-3.1 3.6-.2 4.1 4.1.7 7.2-4.4 10.2-2.8-.4 1.8-2.3 3.1-4.1 4.7-1.6 1.3-2.8 2.6-4.5 3.9-.1.1-.3.2-.4.3-1.4 1-2.7 2.2-2.7 3.5 0 .5.2 1 1 1.2.5.1 1 .2 1.4.2 2 0 4.2-.4 5.5-1.2.6-.4 1.1-.7 1.7-1.1.6-.4 1.6-.6 2.4-.4 3.5.6-1.2 5.3-2.3 6-1.1.7-2.2 1.4-3.4 2-1.4.8-3.1 1.7-4.3 2.6l-36.5 9h-74.7l-17.3-3.3-3.3-.6c.1-.6-.2-1.2-.7-1.7-.7-.7-1.8-1.3-3-1.8-2-1.1-3.9-1.9-5.1-3.2-.3-.3-.5-.6-.7-1-.7-1-.9-2.1-.8-3.2 0-.1 0-.1.1-.2.2-.1.6-.1 1 0 1.2.4 1.8 1.1 2.3 1.8.5.7 1.3 1.4 2.4 1.7.5.2 1.2.2 1.9.2.6 0 1.3-.1 1.8-.2.9-.3 1.7-.7 1.8-1.3.1-.5-.4-1-.7-1.4-2.1-2.2-5.9-4-8.6-5.9-1.7-1.2-3.1-2.6-3.5-4.2-.1-.5-.7-1.7 0-2 .2-.1.7-.1 1.1-.1.4.1.7.2 1 .4 2.2 1.2 4.4 2.5 7.7 1.9.4 0 .7-.1.8-.4v-.1c.1-.1.1-.2.1-.3.1-.8-.4-1.4-1.1-2-.6-.5-1.5-1-2.2-1.5-2.9-2-3.4-5.3-4.5-7.7-1.4-3-2.6-6-3.9-9.1 0-.1-.1-.2-.1-.2-.2-.5-.6-1-1.3-1.3-.5-.2-1-.2-1.4-.2-1.7.3-1.7 3.2-1.8 3.7-.5 1.8-.9 3.6-1.8 5.4-1.6 3.6-4 7-7.9 10-1.7 1.3-3.1 3.6-.2 4.1 4.1.7 7.2-4.4 10.2-2.8-.4 1.8-2.3 3.1-4.1 4.7-1.6 1.3-2.8 2.6-4.6 4-1.5 1.1-3.1 2.4-3.1 3.8 0 .5.2 1 1 1.2.5.1 1 .2 1.4.2 2 0 4.2-.4 5.5-1.2.6-.4 1.1-.7 1.7-1.1s1.5-.6 2.4-.4c2 .3 1.3 2.1.1 3.6-.8 1.1-1.9 2.1-2.4 2.4-.7.5-1.4 1-2.2 1.3l-19.4-3.7-13.2-2.5c-.5-.6-.9-1.3-1.2-2-.3-.6-.5-1.2-.7-1.7-.1-.2 0-.7.5-.7h.3c.1 0 .2 0 .3.1 2.6 1.1 2.5 3 6.1 3.6 2.6.4 6.3-.4 6.6-1.9.1-1.2-1.8-2.2-3.4-3.1-3.7-2-6.7-4.4-8.7-7.1-1-1.3-1.8-2.6-2.3-4-.1-.3-1-1.8-.6-2.1 1.1-1 4.1 1.6 4.5 1.8 1.1.6 2.6 1 4.1.7 1-.2 1.7-.8 1.8-1.3.1-.6-.2-1.2-.7-1.7-.7-.7-1.8-1.3-3-1.8-2-1.1-4-1.9-5.1-3.2-1.2-1.3-1.7-2.8-1.6-4.2 0-.1 0-.1.1-.2.2-.1.6-.1 1 0 1.2.4 1.8 1.1 2.3 1.8.7 1.1 2 1.9 4.3 1.9 1.7 0 3.5-.6 3.6-1.5.1-.5-.4-1-.7-1.4-2.1-2.1-5.9-3.9-8.6-5.9-1.7-1.2-3.1-2.6-3.5-4.2-.1-.5-.7-1.7 0-2 .2-.1.7-.1 1.1-.1.4.1.7.2 1 .4 2.2 1.2 4.4 2.5 7.7 1.9.4 0 .7-.1.8-.4.1-.1.1-.2.1-.4.1-1.5-1.8-2.4-3.3-3.5-2.9-2-3.4-5.3-4.5-7.7-.9-1.8-1.6-3.6-2.4-5.4-.5-1.2-1-2.5-1.6-3.7-.2-.6-.6-1.2-1.4-1.5-2.2-.8-2.8 1-3 2.3-.1.5-.1 1-.1 1.3-.5 1.8-1 3.6-1.8 5.4-1.5 3.6-3.9 7-7.9 10-1.7 1.3-3.1 3.6-.2 4.1 4.1.7 7.2-4.4 10.2-2.8-.4 1.8-2.3 3.1-4.1 4.7-1.6 1.3-2.8 2.6-4.5 3.9-1.6 1.1-3.1 2.4-3.1 3.8 0 .5.2 1 1 1.2.5.1 1 .2 1.4.2 2 0 4.2-.4 5.5-1.2.6-.4 1.1-.7 1.7-1.1.6-.4 1.6-.6 2.4-.4 3.5.6-1.2 5.3-2.3 6-1.1.7-2.1 1.4-3.3 2-1.5.8-3.2 1.8-4.4 2.8-1.3 1-2.1 2.2-2.1 3.5.1.8.7 1.7 2 1.9 1 .2 2.3.1 3.1-.2 1-.4 1.7-.8 2.3-1.3.8-.6 1.7-1.2 2.4-1.9.5-.4 1.8-1.3 2.6-.6.4.4-.5 1.6-.6 1.9-.6 1.3-2 2.5-3.7 3.6-3.4 2.3-7.9 4.3-9.2 7.3l-20.1-3.8c-.8-1.2-1.2-2.4-1.1-3.6 0-.1 0-.1.1-.2.1 0 .2-.1.3-.1l-3.3-.6c.2-.1.5-.2.6-.2.6-.4 1.1-.7 1.7-1.1.6-.4 1.6-.6 2.4-.4 1.8.2 1.5 1.4.8 2.8l-1.3-.3c1 .4 1.5 1 2 1.7.7 1.1 2 1.9 4.3 1.9 1.7 0 3.5-.6 3.6-1.6.1-.5-.4-1-.7-1.4-2.1-2.2-5.9-3.9-8.6-5.9-1.7-1.2-3.1-2.6-3.5-4.2-.1-.5-.7-1.7 0-2 .2-.1.7-.1 1.1-.1.4.1.7.2 1 .4 2.2 1.2 4.4 2.5 7.7 1.9.4 0 .7-.1.8-.4.1-.1.1-.2.1-.4.1-1.5-1.8-2.4-3.3-3.5-2.9-2-3.3-5.3-4.5-7.6-1.4-3-2.6-6-4-9.1-.2-.6-.6-1.2-1.4-1.5-3.1-1.1-3 2.9-3.1 3.6-.5 1.8-1 3.6-1.8 5.4-1.6 3.6-4 7.1-7.9 10-1.7 1.3-3.1 3.6-.2 4.1 4.1.7 7.2-4.4 10.2-2.8-.4 1.8-2.3 3.1-4.1 4.7-1.5 1.3-2.8 2.6-4.5 4-1.5 1.1-3.1 2.4-3.1 3.8v.2H664.8c.4-.4.5-.8.4-1.3-.5-2.4-4.4-4.2-7.9-5.7-3.2-1.6-5.4-2.6-6-5-.1-.2-.1-.6.1-.8.2-.2.9-.5 1.3-.2.7.7 1.7 1.4 2.6 2 .6.4 1.3.7 2.2 1 .8.2 1.9.2 2.6-.1 1.2-.5.7-1.6.2-2.3-.5-.8-1.1-1.7-2-2.5-.8-.6-1.9-1.1-2.9-1.5-1.9-1-3.7-2-5.5-3.1-.3-.2-.7-.4-1-.7-.2-.2-.4-.4-.4-.6-.4-.9.3-1.1 1.2-1 .6.1 1.2.3 1.7.5 1.2.6 1.9 1.4 3 2 1.7.8 4.9 1.2 5.9 0 .5-.5.2-1.1 0-1.5-1.3-2.5-5-4.5-7.8-6.6-1.8-1.3-3.2-2.7-3.5-4.4-.1-.4-.1-.8.5-1.1.6-.2 1.4 0 1.9.4s1.5 1.3 2.7 1.8c1 .5 2.2.7 3.2-.2.4-.2.4-.6.4-.8-.1-1-.7-2-1.6-2.9-.9-1-2.1-1.9-3-2.8-.7-.8-3.8-3.6.1-3.7 2 0 3.5 1.4 5.2 1.6h1c1.1-.2 1.4-.8 1.4-1.4 0-.4-.2-.8-.4-1.2-.1-.2-.3-.3-.4-.5-.3-.4-.6-.7-.9-1.1-1.2-1.3-2.4-2.5-3.3-3.9-1-1.4-1.6-3-2-4.5-1.4-4.1-2.9-8.1-1.9-12.2.1-.5.2-1-.1-1.4-.4-.5-1.4-.7-2.3-.5-.3.1-.5.3-.7.6-3 4.7-3.6 10-6.8 14.7-.9 1.3-2 2.6-3.4 3.7-.8.7-1.9 1.4-2 2.4-.1.8 1.1 1.9 2.8 1.8 1.7-.1 1.8-1.1 2.9-1.5.5-.2 1.2-.2 1.6 0 .1.1.2.2.2.4.1.7-.3 1.4-.8 2l-.1.1c-2 2.5-5.1 4.6-6.4 7.2-.2.6-.2 1.3.7 1.5 1.1.2 2-.4 2.8-1 .7-.6 1.9-1.1 2.9-.6.4.1.5.5.6.7 1 3.5-4.9 6-7.8 8.6-.6.5-1.2 1.1-1.2 1.7 0 .7.8 1.5 2.2 1.8 1.9.4 1.9-.2 2.8-1.1.4-.4 1.2-.7 1.9-.5.5.1.6.4.7.6.7 1.7-1 3.2-3 4.5-2 1.3-4.4 2.4-5.7 3.9-.7.8-1.1 1.9-1.2 2.9-.1.5-.1 1 .1 1.3.6 1.1 2.2 1.1 3.6.6 2-.8 3.8-1.8 5.4-2.8-1.2 2.5-3.7 4.9-7 6.7-1 .5-2 1.1-3 1.8l-51.4-27.5h-20c-1.7-1.4-3.2-2.9-5-4.3-.7-.6-3.1-1.7-3-2.5.1-1.1 2.6-1.1 3.7-.5 1 .5 1.2 1.2 1.7 1.9.5.6 1.4 1.3 2.8 1.3 1.1 0 1.9-.4 2.4-1 .1-.1.2-.3.2-.4.1-.4.1-.8 0-1.3-.4-1.1-1.2-2.2-2.5-3.1-2.9-2-7.2-3.2-8.7-5.9-.1-.4-.2-.6-.1-1s.6-.6 1.2-.6 1 .2 1.4.4c1.2.6 3 1.8 4.9 1.1 1.1-.5 1.1-1.3.6-2-1.8-2.5-6.9-4-9.5-6.3-.6-.6-1.1-1.2-.8-1.8.4-1.1 2.5-1.3 3.9-.7 1.4.6 2.2 2.3 4.5 1.8 1.6-.4 1.6-1.5 1.1-2.4-1.1-2-3-3.8-5.4-5.5-2.1-1.4-5.1-2.4-4.7-4.4.5-2.3 4.4 2 5 2.5 1 .7 2.4 1.4 3.8 1.1 1-.2 1.3-.8 1.3-1.4.4-3.6-5.3-6.3-9.3-9.2-.7-.5-3.2-3.6.2-3.2.8.1 1.4.5 1.9 1 .7.7 1.4 1.4 2.5 2 1.1.6 3 .8 4.2.4.8-.2 1.2-.8 1.3-1.3 0-.5-.2-1.1-.6-1.5-1.2-1.7-3.1-3.2-5.5-4.6-2-1.1-4.7-2.1-4.8-3.7 0-.4.1-.6.5-.8.6-.4 1.6-.4 2.4-.1 1.5.5 1.9 1.4 3.9 1.3 1.2 0 2.3-.6 2.5-1.3.4-.6 0-1.3-.4-1.9-1.2-2-3.6-3.7-5.6-5.4-2-1.7-3.7-3.6-3.7-5.6v-.2-.2c0-.3.2-.4.5-.6.8-.4 1.5.1 2 .5.1 0 .2.1.3.1.8.5 2.3.6 3.3.2.6-.1 1-.4 1.3-.7.2-.3.3-.6.3-.8-.1-.6-1.1-1.2-1.9-1.7-6.1-3.9-6.8-9.3-7.4-14.3-.1-.6-.2-3.2-1.9-3.3-1.9 0-1.7 3-1.7 3.6-.1 2.3.6 4.3-.2 6.6-.7 2-2.2 4-4.3 5.8-.3.2-.5.5-.8.7-.8.6-1.7 1.2-2 1.9-.4.7-.1 1.6 1.1 2 .7.2 1.9.4 2.6 0 .7-.4.2-1.2 1.1-1.3.5-.1 1.1.1 1.3.4s.1.6.1.8c-.1.3-.2.6-.3.8-.8 1.3-2.3 2.5-3.7 3.6-1.7 1.4-3.3 3-3.1 4.7 0 .1 0 .2.1.4h.1c.3.2 1.1.1 1.5 0 1.4-.5 2.9-2 4.8-1.6 2.6.6-1 3.2-2.4 3.7-1.1.4-2.4.6-3.3 1.1-.8.4-1.4.8-1.8 1.3-.4.5-.4 1.1.2 1.4 2.2 1.4 5-2 7.1-1.4 2.6.7-3.1 4.7-4.3 5.1-1.9 1-3.8 1.9-4.1 3.3 0 .4 0 .7.5 1 .5.2 1.3.3 2 .2 1.1-.1 2.2-.4 3-.8.4-.2.7-.5 1.2-.6.5-.1 1.1-.2 1.5-.1.7.1.8.7.7 1.1-.4 1.1-2.3 2.4-3.5 3.3-1.4 1.3-3.1 2.5-4.5 3.8-.5.4-1 .8-1.1 1.2-.1.5.1 1 .8 1.2 1 .4 2.2.1 3-.4.8-.4 1.3-1 2.2-1.3.8-.4 2-.6 3-.2 1.2.4 1 1.3.4 2-1.4 1.9-3.5 2.6-6 4-2.6 1.3-4.4 3.2-5.5 5-.2.4-.4.7-.1 1 .5.8 2.6.8 4.1.5 1.7-.6 3.3-1.9 5.6-1.9 2.6 0 2.5 1.9 1.8 2.9-1.1 1.4-3.3 2.6-5 3.9-.3.2-.6.5-.9.7-2.2 1.7-3.5 3.7-3.6 5.7 0 .2 0 .5.1.6 1.3 1.4 4.3-1.2 5-1.6.5-.4 1-.6 1.7-.8.6-.2 1.6-.2 2.2 0 .4.1.6.4.7.6 1.1 1.8-2.1 3-4.1 4.2-2 1.3-3.7 2.9-4.8 4.4-.5.8-.6 1.9.8 2.2 1 .2 2.2-.1 3-.5.7-.5 1.3-1 2-1.3.4-.1.7-.2 1.2-.4 3.3-.1.1 2.9-.7 3.3-1.2.7-2.6 1.2-3.8 1.9-1.1.6-1.9 1.2-2.6 1.9H515c-.2-.4-.5-.7-.8-1.1-1.2-1.3-3-2.4-4.5-3.5-3-2.3-5-4.9-5.9-7.5-.1-.2 0-.7.5-.7.2 0 .5 0 .6.1 2.6 1.1 2.5 3 6.1 3.6 2.6.4 6.3-.4 6.6-1.9.1-1.2-1.8-2.1-3.3-3.1-2.9-1.6-5.3-3.4-7.2-5.3-.5-.6-1-1.1-1.5-1.7-1-1.3-1.8-2.6-2.3-4-.1-.3-.9-1.6-.7-2.1v-.1c1.1-.9 4.1 1.6 4.5 1.8 1.1.6 2.6.9 4.1.7 1-.2 1.7-.8 1.8-1.3.1-.6-.2-1.2-.7-1.7-.7-.7-1.8-1.3-3-1.8-2-1.1-4-1.9-5.1-3.2-1.2-1.3-1.7-2.8-1.6-4.2 0-.1 0-.1.1-.2.2-.1.6-.1 1 0 1.2.4 1.8 1.1 2.3 1.8.7 1.1 2 1.9 4.3 1.9 1.7 0 3.5-.6 3.6-1.5.1-.3-.1-.5-.3-.8-.1-.2-.3-.4-.5-.6-2.2-2.2-5.9-3.9-8.6-5.9-1.7-1.2-3.1-2.6-3.5-4.2v-.1c-.2-.5-.6-1.6 0-1.9.2-.1.7-.1 1.1-.1.4.1.7.2 1 .4 1.1.6 2.3 1.3 3.5 1.7 1.2.4 2.5.5 4.1.2.3 0 .6-.1.8-.2l.1-.1c.1-.1.1-.2.1-.4.1-1.5-1.8-2.4-3.4-3.5-2.9-2-3.3-5.3-4.5-7.7-.8-1.6-1.5-3.3-2.2-5-.6-1.3-1.1-2.7-1.7-4.1-.2-.6-.6-1.2-1.4-1.6-3.1-1.1-3 2.9-3.1 3.6-.3 1.1-.6 2.3-1 3.4-.1.4-.3.8-.5 1.2-.1.3-.2.5-.4.8-1.3 3-3.2 5.9-6 8.5l-1.8 1.5c-1.7 1.3-3.1 3.6-.2 4.1h.4c3.5.3 6.4-3.6 9-3.1.3.1.5.1.8.3-.1.4-.3.8-.5 1.2-.8 1.2-2.2 2.3-3.6 3.4-1.6 1.3-2.8 2.6-4.5 4-1.5 1.1-3.1 2.4-3.1 3.8 0 .5.2 1 .9 1.2.5.1 1 .2 1.4.2 2 0 4.2-.4 5.5-1.2.6-.4 1.1-.7 1.7-1.1.6-.4 1.6-.6 2.4-.4 3.5.6-1.2 5.3-2.3 6-1.1.7-2.2 1.4-3.2 2-1.5.8-3.2 1.8-4.4 2.8-.5.4-1 .8-1.3 1.3-.5.7-.8 1.4-.8 2.2 0 .2.1.3.1.5.2.7.8 1.3 1.9 1.5 1 .2 2.3.1 3.1-.2 1-.4 1.7-.8 2.3-1.3.8-.6 1.7-1.2 2.4-1.9.5-.4 1.8-1.3 2.6-.6.4.4-.5 1.6-.6 1.9-.6 1.3-2 2.5-3.7 3.6-3.3 2.3-7.9 4.3-9.2 7.3-.3.7-.2 1.5.3 2.1.2.3.5.6 1 .8.5.3 1.1.4 1.8.5 3.6 0 4.5-3.2 8.1-3.5 1 2.9-3.3 5.3-6.8 7.4-2.3 1.4-4.4 3.5-4.3 5.4H417l-6 3.2-.4-.4c-1-1.3-1.8-2.6-2.3-3.9-.1-.4-1-1.8-.6-2.2 1.1-1 4.1 1.5 4.5 1.8 1.1.6 2.6 1 4.1.7 1-.2 1.7-.8 1.8-1.3.1-.6-.2-1.2-.7-1.7-.7-.7-1.8-1.3-3-1.8-2-1.1-4-1.9-5.2-3.2-1.2-1.3-1.7-2.8-1.5-4.2 0-.1 0-.1.1-.2.2-.1.6-.1 1 0 1.2.4 1.8 1.1 2.3 1.8.7 1.1 2 1.9 4.3 1.9 1.7 0 3.5-.6 3.6-1.6.1-.5-.4-.9-.7-1.4-2.2-2.1-5.9-3.9-8.6-5.9-1.7-1.2-3.1-2.6-3.5-4.2-.1-.5-.7-1.7 0-2 .2-.1.7-.1 1.1-.1.4.1.7.2 1 .4 2.2 1.2 4.4 2.5 7.7 1.9.4 0 .7-.1.8-.3.1-.1.1-.2.1-.4.1-1.6-1.8-2.4-3.4-3.5-2.9-2-3.3-5.3-4.5-7.6-.4-.9-.8-1.7-1.2-2.6-.9-2.1-1.8-4.3-2.8-6.5-.2-.6-.6-1.2-1.4-1.6-3.1-1.1-3 2.9-3.1 3.6-.5 1.8-1 3.6-1.8 5.4-.6 1.3-1.2 2.6-2 3.8-1.4 2.2-3.3 4.3-5.9 6.3-1.7 1.3-3.1 3.6-.2 4.1 4.1.7 7.2-4.4 10.2-2.8-.3 1.8-2.3 3.1-4.1 4.7-1.6 1.3-2.8 2.6-4.5 3.9-1.5 1.1-3.1 2.4-3.1 3.8 0 .5.2.9 1 1.2.5.1 1 .2 1.4.2 2 0 4.2-.4 5.5-1.2.6-.4 1.1-.7 1.7-1.1.6-.4 1.6-.6 2.4-.4 3.5.6-1.2 5.3-2.3 6-1.1.7-2.1 1.4-3.3 2-1.5.8-3.2 1.8-4.4 2.8-1.3 1-2.2 2.2-2.2 3.5.1.8.7 1.7 2 1.9 1 .2 2.3.1 3.1-.2 1-.4 1.7-.8 2.3-1.3.8-.6 1.7-1.2 2.4-1.9.5-.4 1.8-1.3 2.6-.6.4.4-.5 1.5-.6 1.9-.6 1.3-2 2.5-3.7 3.6-2.5 1.7-5.8 3.3-7.8 5.4l-.2.2-26.5-14.7-10.7-6-12.3-6.9-3.6-2-1.8-1-1.8-1c.7.7 1.2 1.3 1.4 1.5.1.1.3.2.4.3v1.2l-2.8 1.5c.6.4 1.3.8 1.9 1.3.3.2.6.5.9.7v32.9c-.6-.3-1.4-.6-2.2-.6-1.1.1-2 .7-2.3 1.3-.4.7-.1 1.4.2 2 1 1.9 2.4 3.4 4.2 4.7v12c-1.6 0-3.1.7-3.3 1.9-.1 1.1 1.6 2.5 3.3 3.6v13.4c-.8-.9-1.8-1.6-2.9-2.2 0 2.7 1 5.5 2.9 8V1061h388.1c4.4 4.4 9 8.2 13.7 11.3-4.5-3.2-8.8-7-13-11.3H1358V774.6l-1.8 1.5zm-524 74.6c.3-.2.7-.5 1-.7.8-.5 1.7-.9 2.8-.9.2.8.1 1.5-.4 2.3l-2.8-.6-.6-.1zm340.1-28c.4-.1.8-.1 1.1.2.2.2.1.5 0 .8-.1.2-.1.3-.2.5l-4.5 1.1c.7-.6 1.5-1.2 2.2-1.8.2-.2.8-.7 1.4-.8zm7-1.6c.8-.6 2.1.1 3.2.8l-2.9.7c-.2-.6-.5-1.3-.3-1.5zm-522 20.5c.5.5 1.3 1 2.1 1.3H654c-2-1-3.7-2-3.8-3.5 2.5-.9 5.4.8 7.1 2.2zm-18.1.2c.7-.3 1.3-.5 2-.9 0 .2-.1.5-.2.7v.1c0 .1-.1.2-.1.3 0 .1-.1.1-.1.2v.1c-.1.2-.3.5-.5.7h-.5l-.8-.5-.6-.3c.2-.2.5-.3.8-.4zm96.6 230.5l3.6 2.4h.3c-1.4-.7-2.6-1.5-3.9-2.4z" fill="#42a5f5"/><path id="XMLID_10_" d="M1282 846.3c.1-.2.2-.5.2-.7.1-1.4-1.8-2.6-3.3-3.7-3.7-2.5-6.7-5.5-8.7-8.7-.9-1.5-1.8-3.2-2.3-4.9-.1-.5-1-2.2-.6-2.6 1.1-1.2 4.1 1.9 4.5 2.3 1.1.7 2.6 1.2 4.1.8 1-.2 1.7-1 1.8-1.7.1-.7-.2-1.4-.7-2-.7-.8-1.8-1.5-3-2.3-2-1.3-3.9-2.3-5.1-4.1-1.2-1.7-1.7-3.5-1.6-5.3 0-.1 0-.2.1-.2.2-.2.6-.1 1 0 1.2.5 1.8 1.3 2.3 2.2.7 1.3 2 2.4 4.3 2.3 1.7-.1 3.5-.7 3.6-1.9.1-.6-.4-1.2-.7-1.8-2.2-2.8-5.9-4.8-8.6-7.3-1.7-1.6-3.1-3.2-3.5-5.2v-.1c-.2-.6-.6-1.9 0-2.4.2-.2.7-.2 1.1-.1.4.1.7.2 1 .5.6.4 1.1.8 1.7 1.1 1.7 1 3.5 1.7 5.9 1.1.4-.1.7-.1.8-.3.1-.1.1-.2.1-.5 0-.7-.2-1.3-.6-1.9-.5-.6-1.2-1.1-1.9-1.7-.3-.2-.5-.4-.8-.6-.5-.4-.9-.9-1.3-1.4-1.8-2.4-2.3-5.5-3.3-7.9-.1-.2-.2-.4-.2-.6-1.3-3.5-2.5-7-3.7-10.5-.2-.7-.6-1.4-1.4-1.9-3.1-1.3-3 3.5-3.1 4.3-.5 2.3-1 4.4-1.8 6.6-1.6 4.4-3.9 8.6-7.9 12.4l-.3.3c-1.6 1.7-2.7 4.2 0 4.7.9.2 1.8 0 2.7-.4 2.8-1.3 5.2-4.6 7.5-3.1-.4 2.3-2.3 3.8-4.1 5.6-1.5 1.6-2.8 3.2-4.5 4.8-1.6 1.4-3.1 3-3.1 4.8 0 .6.2 1.2 1 1.4.5.2.9.2 1.4.2 2 .1 4.2-.5 5.5-1.5.6-.5 1.1-1 1.7-1.3.6-.4 1.6-.7 2.4-.5 3.5.7-1.2 6.5-2.3 7.4-1.1.8-2.1 1.7-3.3 2.5-1.6 1.1-3.2 2.2-4.4 3.4-1.3 1.2-2.1 2.8-2.1 4.2.1 1 .7 2 2 2.4 1 .2 2.3.1 3.1-.2 1-.4 1.7-1 2.3-1.6.8-.7 1.7-1.5 2.4-2.4.5-.5 1.8-1.7 2.6-.7.4.4-.5 1.9-.6 2.3-.6 1.7-2 3.1-3.7 4.4-2.6 2.2-5.9 4.3-7.8 6.8-.2.2-.4.5-.5.7l-2.1-.2-.7-.1-1.4-.2H1044l-2.9 1-15.1 5.5-30 10.8h-43.4c.2-.2.4-.6.5-1 .1-1.4-1.8-2.6-3.3-3.7-3.7-2.5-6.7-5.5-8.7-8.7-1-1.5-1.8-3.2-2.3-4.9-.1-.5-1-2.1-.6-2.6 1.1-1.2 4.1 1.9 4.5 2.3 1.1.7 2.6 1.2 4.1.8 1-.2 1.7-1 1.8-1.7.1-.7-.2-1.4-.7-2-.7-.8-1.8-1.5-3-2.3-2-1.3-3.9-2.3-5.1-4.1-1.2-1.7-1.7-3.5-1.6-5.3 0-.1 0-.2.1-.2.2-.2.6-.1 1 0 1.2.5 1.8 1.3 2.3 2.2.7 1.3 2 2.4 4.3 2.3 1.7-.1 3.5-.7 3.6-1.9.1-.6-.4-1.2-.7-1.8-2.1-2.8-5.9-4.8-8.6-7.3-1.7-1.5-3.1-3.2-3.5-5.1-.1-.6-.7-2 0-2.5.2-.2.7-.2 1.1-.1.4.1.7.2 1 .5 2.2 1.4 4.4 3 7.7 2.3.4-.1.7-.1.8-.4.1-.1.1-.2.1-.5.1-1.9-1.8-2.9-3.3-4.2-2.9-2.5-3.3-6.5-4.5-9.3-1.4-3.7-2.6-7.4-3.9-11.1-.2-.7-.6-1.4-1.4-1.9-3.1-1.3-3 3.5-3.1 4.3-.5 2.3-1 4.4-1.8 6.6-1.6 4.4-4 8.6-7.9 12.4-1.7 1.7-3.1 4.4-.2 5 4.1.8 7.2-5.4 10.2-3.5-.4 2.3-2.3 3.8-4.1 5.6-1.6 1.6-2.8 3.2-4.5 4.8-1.6 1.4-3.1 3-3.1 4.8 0 .6.2 1.2 1 1.4.5.2.9.2 1.4.2 2 .1 4.2-.5 5.5-1.5.6-.5 1.1-1 1.7-1.3.6-.4 1.5-.7 2.4-.5 3.5.7-1.2 6.5-2.3 7.4-1.1.8-2.2 1.7-3.2 2.5-1.6 1.1-3.2 2.2-4.4 3.4-1.3 1.2-2.1 2.8-2.1 4.2.1 1 .7 2 2 2.4 1 .2 2.3.1 3.1-.2 1-.3 1.7-1 2.3-1.5.8-.7 1.7-1.5 2.4-2.4.5-.5 1.8-1.7 2.6-.7.4.4-.5 1.9-.6 2.3-.6 1.7-2 3.1-3.7 4.4-1 .8-2.1 1.6-3.1 2.4-2.6 2-5.1 4-6 6.5-.3 1-.1 2 .6 2.9H776.5l-6.3 4.1-11 7.2-3.2 2.1c-.1-.1-.2-.4-.4-.5-.9-1.6-1.8-3.2-2.3-4.9-.1-.5-1-2.2-.6-2.6 1.1-1.2 4.1 1.9 4.5 2.3.4.3.8.5 1.3.6.9.3 1.8.4 2.8.2 1-.2 1.7-1 1.8-1.7.1-.7-.2-1.4-.7-2-.7-.8-1.8-1.5-3-2.3-.8-.5-1.6-1-2.3-1.5-1.1-.7-2.1-1.5-2.8-2.6-.8-1.1-1.3-2.3-1.5-3.5-.1-.6-.1-1.1-.1-1.7 0-.1 0-.2.1-.2.2-.2.6-.1 1 0 .9.4 1.5 1 2 1.6.1.2.2.3.3.5.7 1.3 2 2.4 4.3 2.3 1.7-.1 3.5-.7 3.6-1.9.1-.6-.4-1.2-.7-1.8-2-2.5-5.2-4.4-7.8-6.6-.3-.2-.6-.5-.8-.7-.2-.2-.5-.4-.7-.6-1.4-1.4-2.5-2.8-2.8-4.5-.1-.6-.7-2 0-2.5.2-.2.7-.2 1.1-.1.1 0 .2.1.3.1.2.1.5.2.6.4 2.1 1.4 4.4 3 7.6 2.3.4-.1.7-.1.8-.4.1-.1.1-.2.1-.5.1-1.9-1.8-2.9-3.4-4.2-2.9-2.5-3.3-6.5-4.5-9.3-1.4-3.7-2.6-7.4-4-11.1-.2-.7-.6-1.4-1.4-1.9-.1 0-.1 0-.2-.1-2.9-1-2.8 3.6-2.9 4.4-.5 2.3-1 4.4-1.8 6.6-1.6 4.4-3.9 8.6-7.9 12.4-1.7 1.7-3.1 4.4-.2 5 3.7.8 6.7-4.4 9.4-3.8.3 0 .5.1.8.3-.2 1.4-1.1 2.6-2.1 3.7-.6.7-1.3 1.3-2 2-.8.9-1.6 1.8-2.4 2.6-.1.1-.2.3-.4.4-.5.6-1.1 1.2-1.8 1.8-1.6 1.4-3.1 3-3.1 4.8 0 .6.2 1.2.9 1.4.5.2 1 .2 1.4.2h.8c1.8 0 3.6-.6 4.7-1.6.6-.5 1.1-1 1.7-1.3.6-.4 1.6-.7 2.4-.5 3.5.7-1.2 6.5-2.3 7.4-1.1.8-2.2 1.7-3.3 2.5-1.6 1.1-3.2 2.1-4.4 3.3-1.3 1.2-2.2 2.8-2.2 4.2.1 1 .7 2 2 2.4 1 .2 2.3.1 3.1-.2 1-.3 1.7-1 2.3-1.5.8-.7 1.7-1.5 2.4-2.4.5-.5 1.8-1.7 2.6-.7.4.4-.5 1.9-.6 2.3-.6 1.7-2 3.1-3.7 4.4-1.5 1.3-3.5 2.6-5 3.9h-15.1c.1-.1.2-.1.5-.2 1-.7 1.1-1.7 1-2.6-.1-.6-.3-1.1-.5-1.6-1.6-3.1-6-5.5-9.9-7.8-4.2-2.5-7-4.2-8-8.1-.1-.5-.1-1 .1-1.4.4-.5 1.2-.7 1.8-.5 1 1.2 2.2 2.3 3.5 3.3.8.6 1.7 1.2 2.8 1.6 1.1.4 2.5.4 3.5-.2 1.5-.8 1-2.4.4-3.7-.7-1.4-1.4-2.8-2.8-4-1.1-1-2.5-1.8-3.8-2.5-1.6-.9-3-2-4.5-3-.9-.7-1.9-1.4-2.8-2-.8-.6-1.7-1.2-1.9-2-.7-2.3 2.2-1.8 3.7-.7 1.6 1 2.5 2.3 4.1 3.2 2.2 1.4 6.5 1.8 7.8.1.6-.7.4-1.7 0-2.5-2.4-5.7-10.7-9.5-13.8-14.9-.6-1-1-2-1.1-3-.1-.6-.1-1.3.7-1.7.8-.4 1.9 0 2.5.6 1.2 1.1 5 5.6 7.8 2.8.4-.4.5-1 .5-1.4-.1-3.5-3.8-6.3-6.1-9.3-1-1.3-5-5.9.1-6 3.1-.1 5.3 3.1 8.3 2.4 2.4-.5 2.2-2.8 1.2-4.3-1.9-3-4.5-5.9-6.2-8.9-.1-.1-.1-.3-.2-.4-1.2-2.3-1.9-4.6-2.6-6.9-1.9-6.6-3.7-13.2-2.5-19.7.1-.8.4-1.5-.2-2.3-.5-.7-1.9-1.2-2.9-.7-.5.2-.7.6-.8 1-5.1 9.6-5 21.2-13.4 29.9l-.6.6c-1 1-1.9 2-2 3.3-.2 1.4 1.4 3 3.6 2.9 2.3-.2 2.4-1.8 3.7-2.5.6-.4 1.7-.4 2 0 .2.1.2.4.4.6.2 1.1-.5 2.3-1.1 3.2-2.5 3.7-6.2 7.1-8.1 10.9-.1.3-.3.6-.4.9-.4 1-.4 2.2 1.1 2.5 1.3.3 2.6-.5 3.4-1.3l.2-.2c.8-.8 2.5-1.7 3.7-1.1.5.2.6.7.7 1.1.2.9.1 1.8-.1 2.6-1.1 4.3-7 7.8-10.2 11.4-.7.8-1.5 1.7-1.5 2.8-.1 1.2 1.2 2.5 2.9 2.9 2.5.5 2.5-.5 3.7-1.7.5-.6 1.7-1.1 2.6-.8.6.2.8.6 1 1.1 1 2.6-1.3 5.3-3.9 7.4-.2.1-.3.3-.5.4-2.5 1.9-5.5 3.7-7.1 6-.9 1.4-1.4 3-1.7 4.5-.1.7-.2 1.4.1 2.2.8 1.7 2.9 1.8 4.8.8 2.6-1.3 5-2.9 7.1-4.5-1.6 4.1-4.9 7.9-9.3 10.9-3.6 2.4-8.4 5.6-5.7 8.5 1.5 1.7 5 2.2 7.8 1.7 2.9-.5 5.1-1.8 7.4-3.1-.2 1.4-.8 2.8-1.7 3.9h-36.2c-1.2-.8-2.3-1.7-3.1-2.8-1.2-1.7-1.7-3.5-1.5-5.3 0-.1 0-.2.1-.2.2-.2.6-.1 1 0 1.2.5 1.8 1.3 2.3 2.2.7 1.3 2 2.4 4.3 2.3 1.7-.1 3.5-.7 3.6-1.9.1-.6-.4-1.2-.7-1.8-2.2-2.8-5.9-4.8-8.6-7.3-1.7-1.6-3.1-3.2-3.5-5.1-.1-.6-.7-2 0-2.5.2-.2.7-.2 1.1-.1.4.1.7.2.9.5 2.2 1.4 4.4 3 7.7 2.3.4-.1.7-.1.8-.4.1-.1.1-.2.1-.5.1-1.9-1.8-2.9-3.3-4.2-2.9-2.5-3.3-6.5-4.5-9.3-1.4-3.7-2.6-7.4-3.9-11.1v-.1c-.2-.7-.6-1.3-1.4-1.7-3.1-1.3-3 3.5-3.1 4.3-.5 2.3-1 4.4-1.8 6.6-.2.7-.5 1.4-.8 2.1-.1.2-.2.5-.3.7-1.5 3.4-3.7 6.7-6.8 9.7-1.7 1.7-3.1 4.4-.2 5 .6.1 1.1.1 1.7 0 3.3-.7 5.9-5.1 8.5-3.4-.4 2.3-2.3 3.8-4.1 5.6-1.4 1.5-2.6 3-4.2 4.5l-.3.3c-1.6 1.4-3.1 3-3.1 4.8 0 .6.2 1.2 1 1.4.5.2 1 .2 1.4.2.9.1 1.8 0 2.7-.2h.1c1.1-.3 2-.7 2.7-1.3.6-.5 1.1-1 1.7-1.3.6-.4 1.5-.7 2.4-.5 3.5.7-1.2 6.5-2.3 7.4-.5.4-1 .7-1.4 1.1h-108l-21.6-8.1c-1.2-2.9-3.8-4.5-7.9-6.2-3.8-1.6-8.4-4.2-8.6-7.3 3.2-1.5 7.3 1.1 9.5 3.4s6.9 4.7 9.6 2.6c1-.7 1.1-1.7 1-2.6-.6-4-5.9-6.8-10.4-9.5-4.2-2.5-7.1-4.2-8-8.1-.1-.5-.1-1 .1-1.4.4-.5 1.2-.7 1.8-.5 1 1.2 2.2 2.3 3.5 3.3.8.6 1.7 1.2 2.8 1.5 1.1.4 2.5.4 3.5-.2 1.5-.8 1-2.4.4-3.7-.7-1.4-1.4-2.8-2.8-3.9-1.1-1-2.5-1.8-3.8-2.5-1.7-1-3.2-2.1-4.8-3.2-.8-.6-1.7-1.2-2.5-1.8-.8-.6-1.7-1.2-1.9-2-.7-2.3 2.1-1.8 3.7-.7 1.6 1 2.5 2.3 4.1 3.2.2.2.5.3.8.4 2.3 1.1 5.8 1.2 7-.3.3-.4.4-.9.3-1.4-.1-.4-.2-.8-.3-1.1-2.9-6.7-13.9-10.9-15-17.9-.1-.6-.1-1.3.7-1.7.8-.4 1.9 0 2.5.6 1.2 1.1 5 5.6 7.8 2.8.4-.4.5-1 .5-1.4-.1-3.5-3.8-6.3-6.1-9.3-1-1.3-5-5.8.1-6 3.1-.1 5.3 3.1 8.3 2.4 1.2-.2 1.7-.9 1.9-1.8.1-.8-.2-1.8-.7-2.6-1.1-1.8-2.5-3.5-3.8-5.2-.9-1.2-1.8-2.4-2.5-3.7-1.3-2.4-2-4.9-2.8-7.3-.9-3.1-1.8-6.1-2.3-9.2l-.3-1.5c-.4-3-.5-6 0-9 .1-.8.4-1.6-.2-2.3-.2-.2-.4-.4-.7-.6-.6-.3-1.5-.5-2.2-.1-.5.2-.7.6-.8 1-1.5 2.7-2.5 5.6-3.4 8.5-.6 1.9-1.1 3.8-1.7 5.7-1.7 5.6-3.8 11.1-8.3 15.7-1.2 1.2-2.5 2.4-2.6 3.8-.2 1.4 1.4 3 3.6 2.9 2.3-.2 2.4-1.8 3.7-2.5.6-.4 1.7-.4 2 0 .2.1.2.3.3.6.2.9-.2 1.8-.7 2.6-.1.2-.3.4-.4.6-2.8 4-6.8 7.7-8.5 11.8-.4 1-.4 2.1 1.1 2.5 1.4.4 2.8-.6 3.6-1.4.8-.8 2.2-1.5 3.3-1.2.1 0 .3.1.4.1.3.1.5.4.6.6.1.2.1.3.2.5.8 3.6-2.1 6.5-5.2 9.3-1.8 1.6-3.7 3.1-5.1 4.7-.7.8-1.5 1.7-1.5 2.8-.1 1.2 1.2 2.5 2.9 2.9 2.5.5 2.5-.5 3.7-1.7.5-.6 1.7-1.1 2.6-.8.6.2.8.6 1 1.1 1 2.6-1.3 5.3-4 7.4-2.3 1.8-5.1 3.5-6.9 5.5-.2.3-.4.5-.6.8-1 1.4-1.4 3-1.7 4.5-.1.7-.2 1.4.1 2.2.8 1.7 2.9 1.8 4.8.8 2.6-1.3 5-2.9 7-4.5-1.5 4.1-4.9 7.9-9.3 10.9-1.2.8-2.5 1.7-3.7 2.6l-27.8-10.5-3.3-1.3h-41.9c.5-.6.6-1.4.5-2-.6-4-5.9-6.8-10.4-9.5-4.2-2.5-7.1-4.2-8-8.1-.1-.5-.1-1 .1-1.4.4-.5 1.2-.7 1.8-.5 1 1.2 2.1 2.3 3.5 3.3.8.6 1.7 1.2 2.8 1.6 1.1.4 2.5.4 3.5-.2.4-.2.7-.5.8-.8.4-.8 0-1.9-.5-2.9-.7-1.4-1.4-2.8-2.8-3.9-1.1-1-2.5-1.8-3.8-2.5-2.6-1.5-4.9-3.3-7.3-5-.8-.6-1.7-1.2-1.9-2-.7-2.3 2.1-1.8 3.7-.7 1.6 1 2.5 2.3 4.1 3.2 2.2 1.4 6.5 1.8 7.8.1.6-.7.4-1.7 0-2.5-2.5-5.8-11.1-9.7-14-15.3-.5-.8-.8-1.7-.9-2.7-.1-.6-.1-1.3.7-1.7.8-.4 1.9 0 2.5.6.4.3 1 1.1 1.9 1.8 1.7 1.5 4.1 2.9 5.9 1 .4-.3.5-1 .5-1.4 0-.8-.2-1.5-.6-2.3-1.2-2.5-3.8-4.7-5.5-7-1-1.3-5-5.9.1-6 3.1-.1 5.3 3.1 8.3 2.4 2.4-.5 2.2-2.8 1.2-4.3-1-1.6-2.2-3.1-3.4-4.7-1-1.4-2-2.8-2.8-4.2-1.3-2.4-2-4.9-2.8-7.3-1.9-6.6-3.7-13.2-2.5-19.7.1-.8.4-1.6-.2-2.3-.5-.7-1.9-1.2-2.9-.7-.5.2-.7.6-.8 1-5.1 9.6-5 21.2-13.4 29.9-1.2 1.2-2.5 2.4-2.6 3.8-.2 1.4 1.4 3 3.6 2.9 2.3-.2 2.4-1.8 3.7-2.5.6-.4 1.7-.4 2 0 .2.1.2.4.4.6.2 1.1-.5 2.3-1.1 3.2-2.3 3.3-5.5 6.5-7.5 9.9-.4.6-.7 1.3-1 2-.4 1-.4 2.1 1.1 2.5 1.4.4 2.8-.6 3.6-1.4.8-.8 2.5-1.7 3.7-1.1.5.2.6.7.7 1.1 1.2 5.6-6.5 9.7-10.3 14-.7.8-1.4 1.6-1.5 2.5v.2c-.1 1.2 1.2 2.5 2.9 2.9 2.5.5 2.5-.5 3.7-1.7.5-.6 1.7-1.1 2.6-.8.6.2.8.6 1 1.1.7 1.9-.3 3.9-2 5.6-.6.6-1.3 1.3-2 1.8-2.6 2-5.9 3.9-7.5 6.3-1 1.4-1.4 3-1.7 4.5-.1.7-.2 1.4.1 2.2.8 1.7 2.9 1.8 4.8.8 2.6-1.3 5-2.9 7-4.5-1.5 4.1-4.9 7.9-9.3 10.9-3.6 2.4-8.4 5.6-5.7 8.5 1 1.1 2.8 1.7 4.8 1.8h-19v9.6c-1.6 0-3.1.7-3.3 1.9-.1 1.1 1.6 2.5 3.3 3.6v13.4c-.8-.9-1.8-1.6-2.9-2.2 0 2.7 1 5.5 2.9 8v167.3h1024V855.8l-77-9.5zm-13-2.8c.2 0 .5 0 .6.1.7.4 1.3.8 1.8 1.3l-2.8-.4c0-.1-.1-.1-.1-.2-.1-.3 0-.7.5-.8zm-343.9 15.1c1.5-1.2 2.8-2.9 5-3.1.4 1.1.1 2-.4 3.1h-4.6zm14.2-2.2c-.1-.4 0-.8.5-.8.2 0 .5 0 .6.1 1.5.7 2.2 1.9 3.2 2.9H940l-.6-1.5c0-.3-.1-.5-.1-.7zm-226 17.7c.9.9 2.3 2 3.8 2.6.2.1.5.2.7.3h-7.5c-3.2-1.5-6.2-3.7-6.5-6.2 3.3-1.6 7.3 1 9.5 3.3zM480.9 858c.2-.1.4-.2.6-.4 0 .1-.1.4-.1.5l-.5-.1zm-96.4-18.6c.7.7 1.7 1.6 2.9 2.1h-7.3c-2.2-1.1-4-2.6-4.7-4.3-.2-.4-.3-.8-.3-1.2.2-.1.5-.2.7-.3 2.8-.8 6.1 1.1 8.2 3 .2.3.4.5.5.7zm-28.5 2c2.9-.5 5.1-1.8 7.4-3.1-.2 1.1-.6 2.1-1.2 3.2h-7.7c.5 0 1-.1 1.5-.1z" fill="#3d82c4"/><path id="XMLID_16_" class="st22" d="M735.8 1072.3l3.6 2.4h.3c-1.4-.7-2.6-1.5-3.9-2.4zm536.1-95.3l-51.6-5h-.1l-249.8-24.4h-49.2l-48.6-6.8-10.6-1.5-9.3-1.3-11.1 1.1-23.4 2.4-48.4 4.9-12.2 1.2-105.9-23.8-.8-.2-3.4-.8-9.6-2.2-6.4-1.4H602c0-.6-.4-1.2-.8-1.7-.8-.8-1.9-1.6-3.1-2.3-2.2-1.3-4.2-2.3-5.5-4.1-1.2-1.7-1.8-3.5-1.7-5.3 0-.1 0-.2.1-.2.2-.2.7-.1 1 0 1.3.5 1.9 1.3 2.4 2.1.8 1.3 2.2 2.4 4.7 2.3 1.8-.1 3.7-.7 3.8-1.9.1-.6-.4-1.2-.8-1.8-2.3-2.8-6.2-4.8-9.2-7.3-1.8-1.5-3.3-3.2-3.7-5.1-.1-.6-.8-2 0-2.5.4-.2.8-.2 1.2-.1.4.1.7.2 1 .5 2.3 1.4 4.7 3 8.3 2.3.4-.1.7-.1 1-.4.1-.1.1-.2.1-.5.2-1.9-1.9-2.9-3.6-4.2-3.1-2.5-3.6-6.5-4.9-9.3-.6-1.4-1.1-2.7-1.6-4.1-.9-2.3-1.7-4.7-2.6-7-.2-.7-.6-1.4-1.6-1.9-3.3-1.3-3.1 3.5-3.3 4.3-.3 1.6-.7 3.1-1.2 4.7-.2.7-.4 1.3-.7 1.9-1.7 4.4-4.3 8.6-8.5 12.4-1.8 1.7-3.2 4.4-.2 5 4.3.8 7.7-5.4 10.9-3.5-.5 2.3-2.5 3.8-4.3 5.6-1.7 1.5-2.9 3.2-4.8 4.8-1.7 1.4-3.4 3-3.2 4.8 0 .6.2 1.2 1 1.4.5.2 1.1.2 1.5.2 2.2.1 4.4-.5 5.9-1.5.6-.5 1.1-1 1.8-1.3.7-.4 1.7-.7 2.6-.5 3.7.7-1.2 6.5-2.4 7.4-1.1.8-2.3 1.7-3.5 2.5-1.7 1.1-3.3 2.2-4.8 3.4-.1.1-.2.2-.4.5h-91.8l-86.2-23.2c-3.1-2.2-5.6-4.7-7.4-7.4-1.1-1.5-1.9-3.2-2.4-4.9-.1-.5-1.1-2.2-.6-2.6 1.2-1.2 4.3 1.9 4.9 2.3 1.1.7 2.9 1.2 4.3.8 1.1-.2 1.8-1 1.9-1.7.1-.7-.2-1.4-.8-2-.8-.8-1.9-1.6-3.1-2.3-2.2-1.3-4.2-2.3-5.5-4.1-1.2-1.7-1.8-3.5-1.7-5.3 0-.1 0-.2.1-.2.2-.2.7-.1 1 0 1.3.5 1.9 1.3 2.4 2.1.8 1.3 2.2 2.4 4.7 2.3 1.8-.1 3.7-.7 3.8-1.9.1-.6-.4-1.2-.8-1.8-2.3-2.8-6.2-4.8-9.2-7.3-1.8-1.5-3.3-3.2-3.7-5.1-.1-.6-.8-2 0-2.5.4-.2.8-.2 1.2-.1.4.1.7.2 1 .5 2.3 1.4 4.7 3 8.3 2.3.4-.1.7-.1 1-.4.1-.1.1-.2.1-.5.2-1.9-1.9-2.9-3.6-4.2-.3-.2-.5-.4-.7-.7-2.5-2.5-3-6-4.2-8.7-.1-.3-.2-.6-.3-.8-.4-.9-.8-1.8-1.1-2.7-1-2.5-1.9-5-2.8-7.5-.2-.7-.6-1.4-1.5-1.9-3.4-1.3-3.1 3.5-3.4 4.3-.1.7-.3 1.4-.5 2.1-.1.5-.3 1-.4 1.5-.3 1-.6 2-1 3-1.7 4.4-4.3 8.6-8.5 12.4-.7.7-1.4 1.5-1.7 2.3-.5 1.2-.3 2.3 1.5 2.7 4.3.8 7.7-5.4 10.9-3.5-.5 2.3-2.5 3.8-4.3 5.6-1.7 1.6-2.9 3.2-4.8 4.8-1.7 1.4-3.4 3-3.2 4.8 0 .6.2 1.2 1 1.4.5.2 1.1.2 1.5.2 2.2.1 4.4-.5 5.9-1.6.6-.5 1.1-1 1.8-1.3.7-.4 1.7-.7 2.6-.5 3.7.7-1.2 6.5-2.4 7.4-1.1.8-2.3 1.7-3.5 2.5-1.7 1.1-3.3 2.2-4.8 3.4-1.3 1.2-2.4 2.8-2.3 4.2.1 1 .7 2 2.2 2.4 1.1.2 2.4.1 3.3-.2 1-.3 1.8-.9 2.4-1.5 1-.7 1.8-1.5 2.5-2.4.5-.5 1.9-1.7 2.9-.7.3.4-.5 1.9-.6 2.3-.6 1.7-2.3 3.1-4 4.4-.2.1-.4.2-.6.5l-27.3-6.6c-2.1-1.4-4.7-3-6.6-4.4-1.8-1.3-3.3-2.7-4.4-4.2V1061h388.1c4.4 4.4 9 8.2 13.7 11.3-4.5-3.2-8.8-7-13-11.3H1358v-75.6l-86.1-8.4zM591 918.2c.6-.8 2.1.1 3.3 1.1H591c-.2-.5-.3-.9 0-1.1zm-253.4-59.8c-.4-.4-.8-.8-1.3-1.2-.5-.5-1.4-1.1-2.4-1.7v13.4c4.1 4.2 5.5 10.5 14.3 11.6 1.3.1 2.8.1 3.8-.2 1.8-.6 2.6-2 2.4-3.3-.2-1.3-1.3-2.5-2.4-3.6-4.5-5.1-9.3-10.1-14.4-15zm4.6-85.9c1.6-.6 2.3-1.8 2.4-3 .1-1.2-.5-2.3-1.1-3.3-2.1-3.4-5.4-6.6-9.5-9.3v14.5c.2.1.3.2.5.3 2 1.2 5.3 1.8 7.7.8zm-8.2 48.1v10c.2.1.3.2.5.3 2.3 1.2 5.6 3.8 9 2.4 2-1 1.9-2.9 1.1-4.3-2.1-3.4-6.4-5.9-10.6-8.4zm7.3-6.9c2.9-.7 2.8-3.2 1.9-5-.3-.6-.6-1.2-1-1.8-1.9-3.3-4.7-6.4-8.2-9.2v13c.1.1.2.1.2.2 1.9 1.4 3.5 3.6 7.1 2.8zm.2-67c.6-1.3.1-2.8-.6-4.2-1.6-2.9-4.2-5.5-6.9-8.1V749c.7.3 1.6.5 2.8.5 2.3-.2 4.1-1.4 4.7-2.8zm-3.8-31.6c-.3-1.4-2-2.5-3.5-3.6-.1 0-.1-.1-.2-.2v7.3c.3 0 .5-.1.8-.2 2-.5 3.2-1.9 2.9-3.3zM334 838v12c1.3 0 2.7.3 3.7.9 1.7 1.1 2.3 2.6 3.1 4.1.8 1.1 1.9 2.2 3.6 2.7.5.1 1 .2 1.5.2 1.1 0 2.2-.3 3.1-.8.6-.3 1-.7 1.3-1.1.7-1.1.7-2.4.4-3.5-.6-2.4-2.3-4.7-4.7-6.7-2.5-2-5.6-3.7-8.4-5.4-1.3-.8-2.5-1.6-3.6-2.4zm.9-44.4c1.3.9 2.9 1.6 4.5 1.5.4 0 .8-.1 1.2-.2 1.8-.5 2.4-1.9 2.5-3.1.1-.9 0-1.8-.2-2.6-1-4-4.7-7.5-9-10.9V792l-1.8-1c.7.7 1.2 1.3 1.4 1.5.1.1.3.2.4.3.4.4.7.6 1 .8z"/><path id="XMLID_39_" class="st21" d="M735.8 1072.3l3.6 2.4h.3c-1.4-.7-2.6-1.5-3.9-2.4zm617-201.5l-38.7 8.2-37.5 8h-.1l-14 3h-81.1c-.6-1.3-1.5-2.5-2.8-3.6-3.7-3.2-9.3-5-11.2-9.2-.2-.5-.4-1-.2-1.4.2-.5.8-1 1.6-1s1.3.4 1.8.6c1.6 1 3.8 2.9 6.2 1.8 1.4-.7 1.3-2.1.7-3.2-2.3-4-8.8-6.2-12.1-9.9-.7-.8-1.3-1.9-1.1-2.9.5-1.7 3.1-2.2 5-1.2 1.8 1 2.9 3.6 5.9 2.9 2-.5 1.9-2.4 1.3-3.7-1.4-3.1-3.8-6.1-6.9-8.6-2.8-2.3-6.7-3.7-6-7 .7-3.5 5.6 3.2 6.3 3.9 1.2 1.1 3 2.3 4.9 1.7 1.2-.4 1.7-1.4 1.8-2.3.2-2-.6-3.9-2-5.6-2.5-3.2-6.7-6-10.1-9-1-.8-4.1-5.6.4-5 1.1.1 1.8.8 2.4 1.4 1 1.1 1.8 2.4 3.2 3.2 1.4.8 3.7 1.3 5.4.6 1.1-.5 1.6-1.3 1.7-2.2 0-.8-.4-1.7-.7-2.4-.9-1.5-2.1-3-3.5-4.3-.4-.4-.7-.7-1.1-1-.8-.7-1.6-1.3-2.4-1.8-1.5-1-3.2-2-4.5-3.1-1-.8-1.6-1.8-1.7-2.8 0-.5.1-1 .6-1.3.7-.5 2-.5 3-.2.4.1.7.3 1 .5 1.2.8 1.9 1.7 4 1.6.8-.1 1.5-.3 2-.6.4-.2.7-.5.9-.8l.3-.6c.1-.3.2-.6.2-.9 0-.7-.2-1.4-.6-2.2-1.6-3.1-4.7-5.7-7.3-8.5-.3-.3-.6-.6-.8-.9l-.1-.1c-2.1-2.4-3.9-5-3.8-7.8v-.4c0-.5.1-1 .7-1.3.1-.1.2-.1.3-.2 1.1-.5 1.9.5 2.6 1 1.1.7 2.9.8 4.2.5 1.3-.5 2.3-1.5 2-2.5-.2-1.1-1.3-1.8-2.4-2.6-1.5-1.2-2.7-2.4-3.8-3.8-4.4-5.6-5.2-12.5-5.8-18.8-.1-1-.2-5.1-2.5-5.3-2.4-.1-2.2 4.7-2.2 5.6-.1 3.6.7 6.9-.4 10.4-1.1 3.6-3.3 7.1-6.6 10.2-1.1 1-2.2 1.9-2.6 3-.5 1.1-.1 2.5 1.3 3.1.8.4 2.5.5 3.4 0 1-.5.4-1.8 1.4-2 .7-.1 1.3.2 1.7.6.2.4.2.8.1 1.3-.5 2.4-2.6 4.3-4.6 6.3l-.7.7c-2.2 2.2-4.3 4.7-3.9 7.3 0 .2 0 .4.2.6l.1.1c.5.3 1.3.2 2 0 1.8-.7 3.6-3.1 6.2-2.4 3.4 1.1-1.2 5.2-3 5.9-1.4.6-3 1-4.3 1.7-1.1.6-1.8 1.3-2.3 2.1-.4.7-.5 1.7.2 2.3 2.9 2.3 6.3-3.2 9.1-2.3 3.5 1.2-4.1 7.3-5.5 8.1-2.4 1.4-4.9 3.1-5.3 5.3-.1.5 0 1.1.6 1.4.6.5 1.7.5 2.6.5 1.4-.1 2.8-.6 3.8-1.2.5-.4 1-.7 1.4-1 .6-.2 1.3-.5 1.9-.2.9.2 1.1 1.1 1 1.7-.4 1.8-3 3.8-4.4 5.4-1.9 2-3.9 4-5.9 6-.4.4-.7.7-.9 1.1-.2.3-.3.5-.4.8-.2.7.1 1.6 1.1 1.9 1.2.5 2.8.1 3.8-.5 1.1-.6 1.8-1.4 2.8-2 .2-.1.3-.2.5-.2 1-.4 2.3-.7 3.4-.2.2.1.3.1.5.2 1 .7.7 2 0 3-1.8 2.9-4.4 4.2-7.7 6.2-3.3 2.2-5.7 5-7.1 8-.2.5-.5 1.1-.2 1.6.6 1.3 3.5 1.4 5.1.7 2.2-.8 4.3-3.1 7.2-3.1 3.3 0 3.2 3 2.3 4.5-1.7 2.8-5.1 4.8-7.7 7.2-2.8 2.6-4.4 5.7-4.7 9 0 .3 0 .7.2 1 1.7 2.3 5.5-1.8 6.5-2.5.6-.5 1.2-1 2-1.3.8-.4 1.9-.4 2.8 0 .5.2.7.6.8 1 1.3 2.8-2.8 4.8-5.3 6.7-2.5 2-4.7 4.3-6 6.8h-19.1l-17.6 4.4c-2.6-1.7-4.4-3.5-5.2-6.3-.1-.5-.1-1 .1-1.4.4-.5 1.2-.7 1.8-.5 1 1.2 2.2 2.3 3.5 3.3.8.6 1.7 1.2 2.8 1.5 1.1.4 2.5.4 3.5-.2 1.6-.8 1-2.4.4-3.7-.7-1.4-1.4-2.8-2.8-3.9-1.1-1-2.5-1.8-3.8-2.5-2.6-1.6-4.9-3.4-7.3-5-.8-.6-1.7-1.2-1.9-2-.7-2.3 2.2-1.8 3.7-.7 1.6 1 2.5 2.3 4.1 3.2 2.2 1.4 6.5 1.8 7.8.1.6-.7.4-1.7 0-2.5-2.9-6.7-13.9-10.9-14.9-17.9-.1-.6-.1-1.3.7-1.7.8-.4 1.9 0 2.5.6 1.2 1.1 5 5.6 7.8 2.8.4-.4.5-1 .5-1.4-.1-3.5-3.8-6.3-6.1-9.3-.7-.9-2.7-3.3-2.4-4.8.1-.2.2-.4.4-.6l.1-.1c.4-.3 1-.5 2.1-.5.9 0 1.8.2 2.6.6 1.9.9 3.6 2.3 5.7 1.8 1.2-.3 1.8-.9 1.9-1.8.1-.8-.2-1.8-.7-2.5-.9-1.4-1.9-2.8-3-4.1-.6-.8-1.3-1.7-1.8-2.5-.5-.7-1-1.5-1.4-2.2-.7-1.2-1.2-2.4-1.6-3.7l-1.2-3.6-.3-.9c-.4-1.3-.8-2.7-1.1-4-1.3-4.9-2-9.9-1.2-14.8.1-.8.4-1.6-.2-2.3-.5-.7-1.9-1.2-2.9-.7-.5.2-.7.6-.8 1-5.1 9.6-5 21.2-13.4 29.9-1.2 1.2-2.5 2.4-2.6 3.8-.2 1.4 1.4 3 3.6 2.9 2.3-.2 2.4-1.8 3.7-2.5.6-.4 1.7-.4 2 0 .2.1.2.4.4.6.2 1.1-.5 2.3-1.1 3.2-.6.9-1.3 1.7-1.9 2.5l-3.9 4.8c-1.1 1.5-2.1 3-2.7 4.6-.4 1-.4 2.1 1.1 2.5 1.4.4 2.8-.6 3.6-1.4.8-.8 2.5-1.7 3.7-1.1.5.2.6.7.7 1.1 1.2 5.6-6.5 9.7-10.3 14-.7.8-1.6 1.7-1.6 2.8-.1 1.2 1.2 2.5 2.9 2.9 2.5.5 2.5-.5 3.7-1.7.5-.6 1.7-1.1 2.6-.8.6.2.8.6 1 1.1.9 2.6-1.3 5.3-3.9 7.4-2.6 2-5.9 4-7.5 6.3-1 1.4-1.4 3-1.7 4.5-.1.7-.2 1.4.1 2.2.8 1.7 2.9 1.8 4.8.8 2.6-1.3 5-2.9 7.1-4.5-1.6 4.1-4.9 7.9-9.3 10.9-2.5 1.7-5.5 3.7-6.2 5.7l-12.7 3.2-14.6 3.7c-.1-.1-.2-.2-.5-.2-2-1.3-3.9-2.3-5.1-4.1-1.2-1.7-1.7-3.5-1.5-5.3 0-.1 0-.2.1-.2h.1c.2-.2.6-.1.9 0 .3.1.6.3.9.5.6.4 1 1 1.4 1.6.7 1.3 2 2.4 4.3 2.3 1.3-.1 2.7-.5 3.3-1.2.2-.2.3-.4.3-.7.1-.6-.4-1.2-.7-1.8-2.2-2.8-5.9-4.8-8.6-7.3-1.7-1.5-3.1-3.2-3.5-5.1-.1-.6-.7-2 0-2.5.2-.2.7-.2 1.1-.1.4.1.7.2 1 .5 2.2 1.4 4.4 3 7.7 2.3.4-.1.7-.1.8-.4.1-.1.1-.2.1-.5.1-1.9-1.8-2.9-3.3-4.2-2.9-2.5-3.4-6.5-4.6-9.3-1.4-3.7-2.6-7.4-3.9-11.1-.2-.7-.6-1.4-1.4-1.9-3.1-1.3-3 3.5-3.1 4.3-.5 2.3-1 4.4-1.8 6.6-1.6 4.4-3.9 8.6-7.9 12.4-1.7 1.7-3.1 4.4-.2 5 4.1.8 7.2-5.4 10.2-3.5-.4 2.3-2.3 3.8-4.1 5.6-1.1 1.1-2.1 2.4-3.2 3.5-.4.4-.8.8-1.3 1.2-1.5 1.4-3.1 3-3.1 4.8 0 .6.2 1.2 1 1.4.5.2 1 .2 1.4.2 2 .1 4.2-.5 5.5-1.6.6-.5 1.1-1 1.7-1.3s1.5-.7 2.4-.5c3.5.7-1.2 6.5-2.3 7.4-1.1.8-2.1 1.7-3.2 2.5-1.6 1.1-3.2 2.1-4.4 3.3-1 1-1.8 2-2 3.2l-60.8 15.3-84.8 6.8-11.5.9-18 1.5c-.9-.5-1.6-1.1-2.3-1.6-1.6-1.3-2.8-2.9-3.3-5.1-.1-.5-.1-1 .1-1.4.4-.5 1.2-.7 1.8-.5.9 1.2 2.1 2.3 3.5 3.3.8.6 1.7 1.2 2.8 1.5 1.1.4 2.5.4 3.5-.2 1.6-.8 1-2.4.4-3.7-.7-1.4-1.4-2.8-2.8-3.9-1.1-1-2.5-1.8-3.8-2.5-2-1.2-3.8-2.5-5.6-3.8-.6-.4-1.1-.8-1.7-1.2-.8-.6-1.7-1.2-1.9-2-.7-2.3 2.2-1.8 3.7-.7 1.6 1 2.5 2.3 4.1 3.2.4.3.9.5 1.5.7 1.8.6 4.2.7 5.5 0 .3-.1.6-.3.8-.6.6-.7.4-1.7 0-2.5-2.9-6.7-13.9-10.9-15-17.9-.1-.6-.1-1.3.7-1.7.8-.4 1.9 0 2.5.6 1.2 1.1 5 5.6 7.8 2.8.2-.2.3-.4.4-.7.1-.2.1-.5.1-.7-.1-3.5-3.8-6.3-6.1-9.3-1-1.3-5-5.9.1-6 3.1-.1 5.3 3.1 8.3 2.4 2.4-.5 2.1-2.8 1.2-4.3-1.9-3-4.5-5.9-6.2-8.9-1.3-2.4-2-4.9-2.8-7.3-1-3.5-2-7-2.5-10.5-.2-1.5-.4-3-.4-4.5 0-.8 0-1.6.1-2.4 0-.8.2-1.5.3-2.3.1-.8.4-1.6-.2-2.3-.5-.7-1.9-1.2-2.9-.7-.5.2-.7.6-.8 1-.5 1-1 2.1-1.5 3.1-.1.3-.2.5-.3.8-.9 2.4-1.7 4.8-2.4 7.3-2 6.5-3.9 13.2-9.1 18.7-1.2 1.2-2.5 2.4-2.6 3.8-.2 1.4 1.4 3 3.6 2.9 2.3-.2 2.4-1.8 3.7-2.5.6-.4 1.7-.4 2 0 .2.1.2.4.4.6.2 1.1-.5 2.3-1.1 3.2-1.3 1.8-2.8 3.6-4.3 5.4-1.7 2.1-3.3 4.2-4.2 6.4-.4 1-.4 2.2 1.1 2.5 1.4.4 2.8-.6 3.6-1.4.8-.8 2.5-1.7 3.7-1.1.5.2.6.7.7 1.1 1.2 5.6-6.5 9.7-10.3 14-.7.8-1.6 1.7-1.6 2.8-.1 1.2 1.2 2.5 2.9 2.9 2.5.5 2.5-.5 3.7-1.7.5-.6 1.7-1.1 2.6-.8.6.2.8.6 1 1.1.9 2.5-1 4.9-3.4 6.9-.2.2-.4.3-.6.5-2.6 2-5.9 3.9-7.5 6.3-1 1.4-1.4 3-1.7 4.5-.1.7-.2 1.4.1 2.2.8 1.7 2.9 1.8 4.8.8 2.6-1.3 5-2.9 7.1-4.5-1.3 3.2-3.6 6.2-6.7 8.8-.7.6-1.4 1.1-2.2 1.7l-46.3 3.7-106.7 8.6-1 .1-71 5.7-63.8 5.1L394.7 977l-6.2.5-15.9 1.3-3.5.3-2.9.2-.9.1-16 1.3-15.2 1.2v79.1h388.1c4.4 4.4 9 8.2 13.7 11.3-4.5-3.2-8.8-7-13-11.3H1358V869.8l-5.2 1zm-180.3 20.5h-3.6c.8-.5 2.5-.5 3.6 0z"/><path class="st25" d="M334 37v755.1l-1.8-1c.7.7 1.2 1.3 1.4 1.5.1.1.3.2.4.3v1.2l-2.8 1.5c.6.4 1.3.8 1.9 1.3.3.2.6.5.9.7v32.9c-.6-.3-1.4-.6-2.2-.6-1.1.1-2 .7-2.3 1.3-.4.7-.1 1.4.2 2 1 1.9 2.4 3.4 4.2 4.7v12c-1.6 0-3.1.7-3.3 1.9-.1 1.1 1.6 2.5 3.3 3.6v13.4c-.8-.9-1.8-1.6-2.9-2.2 0 2.7 1 5.5 2.9 8V1061H722c4.4 4.4 9 8.2 13.7 11.3-4.5-3.2-8.8-7-13-11.3H1358V37H334zm401.8 1035.3l3.6 2.4h.3c-1.4-.7-2.6-1.5-3.9-2.4z"/><path id="XMLID_67_" class="st14" d="M735.8 1072.3l3.6 2.4h.3c-1.4-.7-2.6-1.5-3.9-2.4zm521.3-77.6l-14.2-5.7h-109.8l-53.6 5.7h-326l-25.2 5.1-23.1-5.1h-94.7c3.2-4 4.7-8.4 4-12.8-7.5.1-14.2 4.8-13.8 9.8-1.4.4-2.9-1.2-4.1-.7-.4.1-.6.5-.7.7-.6 1-1 2-1.3 3h-54.3l-8.4-13.4h-15.1l-6.6-4.3-3.3-2.2-.1-.1h-40.7l-3.4 2.3-9.5 6.2h-13.4l-4.8 11.5h-64.2c5.5-1.6 9.9-4.7 12.8-8.1 2.3-2.8 3.8-5.9 4.9-9.1.1-.2.1-.3.2-.5.3-1.1.7-2.1 1-3.2-5 .1-10 1.2-14 3.2-1.1.5-2.1 1.1-3.1 1.8-.5.4-1 .7-1.5 1.1-1.1.8-1.9 1.8-2.8 2.8.3-1.2.5-2.4.8-3.6.1-.7.3-1.4.4-2.1 2.1-13 1-26.2-3.2-39.1 1.1 13 1.1 26.1 0 39.1 0 .8-.1 1.5-.2 2.3-.1.7-.1 1.4-.2 2.2-.2-.7-.4-1.4-.7-2.1-.3-.8-.6-1.6-1-2.4-2.7-5.9-7.3-11.6-12.3-16.8-2.5 1.4-3.7 3.7-4.4 5.9-1.1 3.6-1.1 7.4.1 11 .4 1.2.9 2.3 1.5 3.5 0 0 .1.1.1.2 3 5.3 8.6 9.9 14.3 14.3H334v66h388.1c4.4 4.4 9 8.2 13.7 11.3-4.5-3.2-8.8-7-13-11.3H1358v-66.3h-100.9zm-890.8-1.1c.1.5.5 1 1.1 1.2h-1.5c0-.3.2-.8.4-1.2z"/><linearGradient id="SVGID_10_" gradientUnits="userSpaceOnUse" x1="1331.6107" y1="308.974" x2="1331.6107" y2="327.344"><stop offset="0" stop-color="#fff" stop-opacity="0"/><stop offset="1" stop-color="#fff"/></linearGradient><path d="M1358 311.6V329c-15-2.3-29.9-5.2-44.7-8.8-5-1.2-11-6.9-6.6-9.6 16.8 1.3 34.4 2.4 51.3 1z" fill="url(#SVGID_10_)"/><g id="XMLID_70_"><path d="M1358 37v476.2c-33.7 14.4-70.9 22.4-109.9 22.4-131.8 0-242.3-91.1-272-213.8-3.4-14-5.7-28.4-6.9-43.1-.6-7.6-.9-15.2-.9-22.9 0-88.6 41.2-167.6 105.4-218.8H1358z" opacity=".15" fill="#fff"/><linearGradient id="SVGID_11_" gradientUnits="userSpaceOnUse" x1="1219.04" y1="105.6207" x2="1219.04" y2="429.1976"><stop offset="0" stop-color="#fff" stop-opacity="0"/><stop offset="1" stop-color="#fff"/></linearGradient><path d="M1358 128.7v254.2c-29.5 25.5-67.9 40.9-109.9 40.9-71.3 0-132.2-44.4-156.6-107.1-2.6-6.7-4.8-13.6-6.5-20.7-3.2-12.9-4.8-26.4-4.8-40.2 0-92.8 75.2-168 168-168 41.9 0 80.3 15.4 109.8 40.9z" fill="url(#SVGID_11_)"/></g></g></g></g><path class="st25" d="M334 37h1024v1024H334z" id="Layer_2"/></svg>