<svg id="Layer_1" xmlns="http://www.w3.org/2000/svg" xmlns:xlink="http://www.w3.org/1999/xlink" viewBox="0 0 1536 426.44"><style>.st2{fill:#488fcc}.st3{fill:#3e83c4}.st4{fill:#95c8ec}.st5{fill:#57a0d7}.st8{fill:#2b66b1}.st9{fill:#fcb74e}.st11{fill:#ef4538}.st12{fill:#b72025}.st13{fill:#c52a29}.st14{fill:#d42f2f}.st16{fill:#e63b35}.st17{fill:#e57473}.st18{fill:#ee9a9b}</style><g id="XMLID_448_"><circle id="XMLID_429_" cx="760.17" cy="213.22" r="213.22" fill="#faa62a"/><g id="XMLID_427_"><defs><circle id="XMLID_405_" cx="760.17" cy="213.22" r="213.22"/></defs><clipPath id="XMLID_2_"><use xlink:href="#XMLID_405_" overflow="visible"/></clipPath><g id="XMLID_351_" clip-path="url(#XMLID_2_)"><path id="XMLID_388_" class="st2" d="M682.9 153.13l77.27-19.48 77.28 19.48-77.28 41.44z"/><path id="XMLID_387_" class="st2" d="M684.68 153.71l70.35-132.27 70.35 132.27z"/><path id="XMLID_386_" class="st3" d="M540.74 399.35h438.87L837.45 103.99l-77.28 49.71-77.27-49.71z"/><path id="XMLID_385_" class="st2" d="M760.17 153.7v190.93l120.09-151.69-42.81-88.95z"/><path id="XMLID_383_" class="st4" d="M755.03 21.44l17.04 18.69 19.71 7.19 18.85 33.31 26.82 23.36-28.7 18.46z"/><path id="XMLID_382_" class="st4" d="M808.75 122.45l20.3 70.49-12.31 80.24 63.52-80.24-42.81-88.95z"/><path id="XMLID_381_" class="st5" d="M682.9 103.99l33.63-10.17 92.22 28.63-48.58 66.14z"/><path id="XMLID_380_" class="st5" d="M808.75 122.45l1.88-41.82 26.82 23.36z"/><path id="XMLID_379_" class="st5" d="M829.05 192.94h51.21l-42.81-88.95-28.7 18.46z"/><g id="XMLID_354_"><g id="XMLID_357_"><path id="XMLID_378_" fill="#17499e" d="M590.38 265.85l-104.5 181.01 274.29-93.13z"/></g><path id="XMLID_356_" fill="#3474bb" d="M929.96 265.85l-169.79 87.88 274.3 93.13z"/><path id="XMLID_355_" class="st8" d="M760.17 353.73l-274.29 93.13h548.59z"/></g><path id="XMLID_353_" class="st8" d="M760.17 353.73l139.41-120.66 30.38 32.78z"/><path id="XMLID_352_" class="st8" d="M590.38 265.85l47.79-68.93 122 147.71v9.1"/></g></g></g><g id="XMLID_46_"><circle id="XMLID_444_" class="st9" cx="213.22" cy="213.22" r="213.22"/><g id="XMLID_249_"><defs><circle id="XMLID_428_" cx="213.22" cy="213.22" r="213.22"/></defs><clipPath id="XMLID_3_"><use xlink:href="#XMLID_428_" overflow="visible"/></clipPath><g id="XMLID_430_" clip-path="url(#XMLID_3_)"><g id="XMLID_434_"><path id="XMLID_443_" class="st11" d="M182.26 353.81l-266.49-56.75L49.01 72.33z"/><path id="XMLID_442_" class="st12" d="M182.26 353.81L49.01 521.78-84.23 297.06z"/><path id="XMLID_441_" class="st13" d="M182.26 353.81l133.25 167.97H49.01z"/><path id="XMLID_440_" class="st14" d="M182.26 353.81l266.49-56.75-133.24 224.72z"/><path id="XMLID_439_" fill="#ef5552" d="M76.8 131.03l66.93 11.6 38.53 59.35 67.65 8.23 17.33 37.56-84.98 106.04z"/><path id="XMLID_438_" class="st16" d="M182.26 353.81l84.98-106.04 54.15 5.35 40.25 19.29 87.11 24.65z"/><path id="XMLID_437_" class="st11" d="M182.26 201.98v151.83l84.98-106.04-17.33-37.56z"/><path id="XMLID_436_" class="st17" d="M49.01 72.33l44.75 25.03 49.97 45.27-66.93-11.6z"/><path id="XMLID_435_" class="st18" d="M76.8 131.03L1.15 153.05l47.86-80.72z"/></g><path id="XMLID_433_" class="st11" d="M216.55 188.54l-29.96-.45-14.57-25.49 15.38-25.04 29.96.46 14.57 25.49z"/><path id="XMLID_432_" class="st16" d="M308.06 241.28l-34.84-3.11-14.66-30.93 20.19-27.83 34.84 3.11 14.66 30.93z"/><path id="XMLID_431_" class="st12" d="M167.36 117.22l-28.84 7.64-21.2-20.51 7.63-28.13 28.84-7.64L175 89.09z"/></g></g></g><g id="XMLID_149_"><g id="XMLID_309_"><circle id="XMLID_348_" class="st9" cx="1322.78" cy="213.22" r="213.22"/></g><g id="XMLID_150_"><defs><circle id="XMLID_151_" cx="1322.78" cy="213.22" r="213.22"/></defs><clipPath id="XMLID_4_"><use xlink:href="#XMLID_151_" overflow="visible"/></clipPath><g id="XMLID_310_" clip-path="url(#XMLID_4_)"><g id="XMLID_335_"><g id="XMLID_344_"><g id="XMLID_345_"><ellipse id="XMLID_350_" class="st12" cx="1322.78" cy="285.66" rx="209.44" ry="203.93"/><ellipse id="XMLID_349_" class="st13" cx="1322.78" cy="285.66" rx="157.08" ry="152.95"/><ellipse id="XMLID_347_" class="st16" cx="1322.78" cy="285.66" rx="104.72" ry="101.97"/><ellipse id="XMLID_346_" class="st17" cx="1322.78" cy="285.66" rx="62.83" ry="61.18"/></g></g><g id="XMLID_336_"><g id="XMLID_342_"><path id="XMLID_343_" class="st14" d="M1438.7 88.31l-115.92 195.51-115.92-195.51c-67.05 38.65-112.04 109.75-112.04 191.12 0 122.6 102.06 221.98 227.97 221.98 125.9 0 227.97-99.38 227.97-221.98-.01-81.37-45-152.47-112.06-191.12z"/></g><g id="XMLID_340_"><path id="XMLID_341_" class="st11" d="M1413.5 133.21l-90.72 153.01-90.72-153.01c-52.48 30.24-87.69 85.89-87.69 149.57 0 95.94 79.88 173.72 178.41 173.72s178.41-77.78 178.41-173.72c0-63.67-35.21-119.32-87.69-149.57z"/></g><g id="XMLID_338_"><path id="XMLID_339_" class="st18" d="M1383.26 187.1l-60.48 102.01-60.48-102.01c-34.98 20.16-58.46 57.26-58.46 99.72 0 63.96 53.25 115.81 118.94 115.81s118.94-51.85 118.94-115.81c0-42.46-23.47-79.56-58.46-99.72z"/></g><ellipse id="XMLID_337_" class="st12" cx="1322.78" cy="287.02" rx="49.56" ry="48.26"/></g></g><path id="XMLID_334_" class="st9" d="M1322.78 238.76l-5.03-14.28v-28.35l-7.27-28.79v-36.83l-8.21-47.81 27.36-2.7 24.66 4.02-11.81 43.19 3.88 41.54-13.58 23.13z"/><path id="XMLID_315_" class="st13" d="M1302.27 82.7l14.51 5.61 6 40.32v10.85l-12.3-6.31v-2.66z"/><path id="XMLID_313_" class="st16" d="M1322.78 139.48v30.81l4.09 16.81-12.18-3.11-4.21-16.65v-34.17z"/><path id="XMLID_312_" class="st17" d="M1326.87 187.1l2.4 10.45-3.46 27-3.03 14.21-5.03-14.28v-28.35l-3.06-12.14"/><path id="XMLID_311_" class="st9" d="M1316.78 88.31l37.51-4.29-11.81 43.19 3.88 41.54-13.58 23.13-6.97 32.67 3.46-27-6.49-27.26v-41.66z"/></g></g></g></svg>