<?xml version="1.0" encoding="utf-8"?>
<!-- Generator: Adobe Illustrator 26.2.1, SVG Export Plug-In . SVG Version: 6.00 Build 0)  -->
<svg version="1.1" xmlns="http://www.w3.org/2000/svg" xmlns:xlink="http://www.w3.org/1999/xlink" x="0px" y="0px"
	 viewBox="0 0 1024 1024" style="enable-background:new 0 0 1024 1024;" xml:space="preserve">
<style type="text/css">
	.st0{fill:none;}
	.st1{fill:url(#SVGID_1_);}
	.st2{fill:#CEC0B7;}
	.st3{fill:#936D60;}
	.st4{fill:#A0776B;}
	.st5{fill:#0E2300;}
	.st6{fill:#0A3800;}
	.st7{fill:#0B5900;}
	.st8{fill:#0D4400;}
	.st9{fill:#1A6B00;}
	.st10{fill:#247C00;}
	.st11{fill:#439900;}
	.st12{fill:#7FC100;}
	.st13{fill:#7EC41A;}
	.st14{fill:#E8FF0D;}
	.st15{fill:#91D300;}
	.st16{fill:#A4E000;}
	.st17{fill:#4FAA00;}
	.st18{fill:#D5F900;}
	.st19{fill:#DAFF00;}
	.st20{fill:#C6F403;}
	.st21{fill:#823500;}
	.st22{fill:#4F2102;}
	.st23{fill:#A84400;}
	.st24{fill:#2B1608;}
	.st25{fill:#62B700;}
	.st26{fill:#6ABC00;}
	.st27{fill:#B8EA00;}
	.st28{fill:#90D200;}
	.st29{fill:#A3DF00;}
	.st30{fill:#7DC302;}
	.st31{fill:#62B600;}
	.st32{fill:#81C500;}
	.st33{fill:#053500;}
	.st34{fill:#439800;}
	.st35{fill:#145B00;}
	.st36{fill:#4FA900;}
	.st37{fill:#368800;}
	.st38{fill:#6ABB00;}
	.st39{fill:#BCE900;}
	.st40{fill:#C5F303;}
	.st41{fill:#D9FF00;}
	.st42{fill:#5B2E02;}
	.st43{fill:#7F461F;}
	.st44{fill:#B47C31;}
	.st45{fill:#BB5F20;}
	.st46{fill:#813500;}
	.st47{fill:#351101;}
	.st48{fill:#469F00;}
	.st49{fill:#C4F300;}
	.st50{fill:#EDEDED;}
	.st51{fill:#CACCCC;}
	.st52{fill:#E2E2E2;}
	.st53{fill:#DBDBDB;}
	.st54{fill:#F7F7F7;}
	.st55{fill:#B7B7B7;}
	.st56{fill:#999999;}
	.st57{fill:#C6C6C6;}
	.st58{fill:#A5A5A5;}
	.st59{fill:#AFAFAF;}
	.st60{fill:#777777;}
	.st61{fill:#636363;}
	.st62{fill:#898989;}
	.st63{fill:#4C5051;}
	.st64{fill:#363738;}
	.st65{fill:#BC5F20;}
	.st66{fill:#7DC402;}
	.st67{fill:#D1F400;}
	.st68{fill:#BDEA00;}
	.st69{fill:#2D7200;}
	.st70{fill:#1C5100;}
	.st71{fill:#123A00;}
	.st72{fill:#368900;}
	.st73{fill:#82C600;}
	.st74{fill:#51AA02;}
	.st75{fill:#9ED800;}
	.st76{fill:#C5F400;}
	.st77{fill:#46A000;}
	.st78{fill:#9B3F00;}
	.st79{fill:#E29B47;}
	.st80{fill:#F2AC5F;}
	.st81{fill:#FF6622;}
	.st82{fill:#FF4122;}
	.st83{fill:#EA0606;}
	.st84{fill:#F72626;}
	.st85{fill:#FF7F00;}
	.st86{fill:#FFBD29;}
	.st87{fill:#FF952C;}
	.st88{fill:#D1000B;}
	.st89{fill:#C90014;}
	.st90{fill:#D33802;}
	.st91{fill:#FF7F29;}
	.st92{fill:#DD4705;}
	.st93{fill:#EF5500;}
	.st94{fill:#D80000;}
	.st95{fill:#FFA522;}
	.st96{fill:#DB0505;}
	.st97{fill:#EF1C00;}
	.st98{fill:#FF860D;}
	.st99{fill:#F92E06;}
	.st100{fill:#FF3B0D;}
	.st101{fill:#FF7110;}
	.st102{fill:#FFD62C;}
	.st103{fill:#FF6008;}
	.st104{fill:#FF6F0D;}
	.st105{fill:#FF500B;}
	.st106{fill:#E50000;}
	.st107{fill:#0B3D00;}
	.st108{fill:#115600;}
	.st109{fill:#126600;}
	.st110{fill:#0C3F00;}
	.st111{fill:#013300;}
	.st112{fill:#D2F406;}
	.st113{fill:#98D600;}
	.st114{fill:#79B700;}
	.st115{fill:#378C00;}
	.st116{fill:#3A9300;}
	.st117{fill:#257500;}
	.st118{fill:#91CC00;}
	.st119{fill:#D6F400;}
	.st120{fill:#1D5E02;}
	.st121{fill:#8AC900;}
	.st122{fill:#DBF900;}
	.st123{fill:#185101;}
	.st124{fill:#0A3A01;}
	.st125{fill:#0A3300;}
	.st126{fill:#083A01;}
	.st127{fill:#53A809;}
	.st128{fill:#134C00;}
	.st129{fill:#0C4702;}
	.st130{fill:#0D3D00;}
	.st131{fill:#115602;}
	.st132{fill:#5CB506;}
	.st133{fill:#0D2D01;}
	.st134{fill:#113F00;}
	.st135{fill:#BC001B;}
	.st136{fill:#FFAA00;}
	.st137{fill:#F43400;}
	.st138{fill:#FF6700;}
	.st139{fill:#F72B2B;}
	.st140{fill:#FF7B7B;}
	.st141{fill:#FF4D4D;}
	.st142{fill:#9E0000;}
	.st143{fill:#700707;}
	.st144{fill:#490202;}
	.st145{fill:#7F3300;}
	.st146{fill:#421400;}
	.st147{fill:#703000;}
	.st148{fill:#4F1A00;}
	.st149{fill:#662900;}
	.st150{fill:#2D0500;}
	.st151{fill:#3A0A00;}
	.st152{fill:#3D1203;}
	.st153{fill:#FF4343;}
	.st154{fill:#702E01;}
	.st155{fill:#994704;}
	.st156{fill:#AF5D0C;}
	.st157{fill:#D39359;}
	.st158{fill:#CE964D;}
	.st159{fill:#A55004;}
	.st160{fill:#893C02;}
	.st161{fill:#722E00;}
	.st162{fill:#3A1300;}
	.st163{fill:#542200;}
	.st164{fill:#471D00;}
	.st165{fill:#491A00;}
	.st166{fill:#3D0A00;}
	.st167{fill:#491701;}
	.st168{fill:#350600;}
	.st169{fill:#5E2600;}
	.st170{fill:#9B4702;}
	.st171{fill:#B2680F;}
	.st172{fill:#492403;}
	.st173{fill:#F73434;}
	.st174{fill:#B56F31;}
	.st175{fill:#BA6520;}
	.st176{fill:#F43F00;}
	.st177{fill:#A00000;}
	.st178{fill:#C17C38;}
	.st179{fill:#B76720;}
	.st180{fill:#FFD550;}
	.st181{fill:#7C7B7B;}
	.st182{fill:#515151;}
	.st183{fill:#3D3D3D;}
	.st184{fill:#303030;}
	.st185{fill:#6D6D6D;}
	.st186{fill:#878787;}
	.st187{fill:#545454;}
	.st188{fill:#474747;}
	.st189{fill:#353535;}
	.st190{fill:#9B9B9B;}
	.st191{fill:#33C4DC;}
	.st192{fill:#727272;}
	.st193{fill:#F9F9F9;}
	.st194{fill:#CECECE;}
	.st195{fill:#F2F2F2;}
	.st196{fill:#D8D8D8;}
	.st197{fill:#919191;}
	.st198{fill:#B5B5B5;}
	.st199{fill:#6C6E70;}
	.st200{fill:#585B5E;}
	.st201{fill:#5E5E60;}
	.st202{fill:#69696B;}
	.st203{fill:#212121;}
	.st204{fill:#282828;}
	.st205{fill:#383838;}
	.st206{fill:#444444;}
	.st207{fill:#3F4144;}
	.st208{fill:#2D2D2D;}
	.st209{fill:#191919;}
	.st210{fill:#3F3F3F;}
	.st211{fill:#4A4B4C;}
	.st212{fill:#232323;}
	.st213{fill:#3A3A3A;}
	.st214{fill:#373738;}
	.st215{fill:#9E9E9E;}
	.st216{fill:#585859;}
	.st217{fill:#444647;}
	.st218{fill:#8E8D8D;}
	.st219{fill:#494949;}
	.st220{fill:#424242;}
	.st221{fill:#939393;}
	.st222{fill:#BABABA;}
	.st223{fill:#5B5B5B;}
	.st224{fill:#969696;}
	.st225{fill:#D3D3D3;}
	.st226{fill:#B2B2B2;}
	.st227{fill:#4C4C4C;}
	.st228{fill:#4B4D51;}
	.st229{fill:#4F5151;}
	.st230{fill:#4B4C4C;}
	.st231{fill:#5E5E5E;}
	.st232{fill:#565656;}
	.st233{fill:#55575B;}
	.st234{fill:#E0E0E0;}
	.st235{fill:#BCBCBC;}
	.st236{fill:#D1D1D1;}
	.st237{fill:#595959;}
	.st238{fill:#FFFFFF;}
	.st239{fill:#C7ECF9;}
	.st240{fill:#D4F4FC;}
	.st241{fill:#D7F1F7;}
	.st242{fill:#B8D9E8;}
	.st243{fill:#ACD4EA;}
	.st244{fill:#B7DCED;}
	.st245{fill:#CCE9F2;}
	.st246{fill:#95C2DB;}
	.st247{fill:#99C6D6;}
	.st248{fill:#8DBDD3;}
</style>
<g id="Layer_1">
	<path id="Layer_2_00000143611026285403826930000006467238328273244082_" class="st0" d="M0,0h1024v1024H0V0z"/>
</g>
<g id="Layer_2">
	<g>
		<linearGradient id="SVGID_1_" gradientUnits="userSpaceOnUse" x1="512" y1="1000.5825" x2="512" y2="196.2747">
			<stop  offset="0" style="stop-color:#FFFFFF"/>
			<stop  offset="0.1251" style="stop-color:#FBFDFE"/>
			<stop  offset="0.2506" style="stop-color:#EFF6F9"/>
			<stop  offset="0.3763" style="stop-color:#DBEBF2"/>
			<stop  offset="0.5023" style="stop-color:#BFDBE8"/>
			<stop  offset="0.6285" style="stop-color:#9AC6DB"/>
			<stop  offset="0.755" style="stop-color:#6EADCB"/>
			<stop  offset="0.8791" style="stop-color:#3A90B8"/>
			<stop  offset="1" style="stop-color:#006FA3"/>
		</linearGradient>
		<rect y="271.5" class="st1" width="1024" height="752.6"/>
		<g>
			<polygon class="st2" points="1024,898 1024,798.1 1021,800.1 943.7,769.1 924.6,749.7 900.1,749.7 862.1,702.4 850.1,690.5 
				841.4,690.5 815.1,727.1 787,727.1 746,757.8 708.3,737.4 680.4,733.2 662,697.3 640.9,690 629.3,652.3 618.5,656.1 604.8,676.7 
				593.6,676.7 561.1,732.3 530.3,729 490.4,786.1 440.3,789.5 367.5,898 			"/>
			<polygon class="st2" points="434.4,898 373.5,875.7 318.6,793.3 289.1,793.3 251.9,764.8 226.4,764.8 202.7,730.9 194.8,730.9 
				183.9,741.9 160.4,793.3 138.3,793.3 120.9,811.3 39.9,811.3 21,797.9 4.8,794.8 0,802.5 0,898 			"/>
			<path class="st3" d="M344.8,898l-7.5-2l-28.9-15.5c0,0-14.1-26.7-15.1-27.8c-1-1.1-14.3-14-14.3-14l-20.9,19.2L237,870.2
				l-19.1-19.9l-90.7,0.9l-22.2,18.4l-5.8-6.9l-12.7-9.2l-14.7,7.5l-12.2-3.2l-11.4,8l-10.6,0.4l-21.8-8.4L0,844.2V898H344.8z"/>
			<polygon class="st4" points="1024,896.9 1024,754.3 969.1,817 898.7,818.9 875,806.8 848.7,838.3 809.6,824 794.6,806.4 
				766.2,798.7 690.8,860 596.7,896.4 			"/>
		</g>
		<g>
			<polygon class="st5" points="47.6,883.1 48.6,875.9 60.4,883.1 			"/>
			<polygon class="st6" points="47.6,883.1 48.6,875.9 37.1,879.5 			"/>
			<polygon class="st6" points="60.4,883.1 71.7,877.9 65.1,876.8 			"/>
			<polygon class="st7" points="65.1,876.8 48.6,875.9 60.4,883.1 			"/>
			<polygon class="st8" points="37.1,879.5 32.3,875.3 38.5,871 			"/>
			<polygon class="st7" points="48.6,875.9 38.5,871 37.1,879.5 			"/>
			<polygon class="st5" points="32.3,875.3 27.9,868.7 38.5,871 			"/>
			<polygon class="st5" points="27.9,868.7 26.1,858 30.9,861.8 			"/>
			<polygon class="st9" points="38.5,871 49.6,865.2 30.9,861.8 			"/>
			<polygon class="st10" points="35.7,851.5 30.9,847.1 26.1,858 			"/>
			<polygon class="st10" points="48.6,875.9 49.6,865.2 38.5,871 			"/>
			<polygon class="st11" points="54.7,876.2 49.6,865.2 48.6,875.9 			"/>
			<polygon class="st7" points="71.7,877.9 65.1,876.8 79,868.7 			"/>
			<polygon class="st10" points="79,868.7 66.7,867.2 65.1,876.8 			"/>
			<polygon class="st12" points="80.5,857.6 79,868.7 66.7,867.2 			"/>
			<polygon class="st13" points="66.7,867.2 49.6,865.2 61.6,861 			"/>
			<polygon class="st10" points="49.6,865.2 35.7,851.5 30.9,861.8 			"/>
			<polygon class="st14" points="80.5,857.6 76,847.1 68.1,851 			"/>
			<polygon class="st15" points="61.6,861 59.8,854 47.4,852.5 			"/>
			<polygon class="st16" points="59.8,854 68.1,851 61.6,861 			"/>
			<polygon class="st17" points="30.9,847.1 36.7,842.7 35.7,851.5 			"/>
			<polygon class="st17" points="49.6,865.2 47.4,852.5 35.7,851.5 			"/>
			<polygon class="st18" points="76,847.1 66.1,845.1 68.1,851 			"/>
			<polygon class="st14" points="54,842.7 66.4,839.6 76,847.1 			"/>
			<polygon class="st15" points="43.9,840.3 36.7,842.7 41.5,847.1 			"/>
			<polygon class="st19" points="36.7,842.7 54,836.9 41.1,838.8 			"/>
			<polygon class="st20" points="54,836.9 54,842.7 43.9,840.3 			"/>
			<polygon class="st19" points="54,836.9 66.4,839.6 54,842.7 			"/>
			<polygon class="st21" points="56,883.1 54,883.1 54,898.6 			"/>
			<polygon class="st22" points="52,883.1 54,883.1 54,898.6 			"/>
			<polygon class="st23" points="56,883.1 54,898.6 56.9,898.4 			"/>
			<polygon class="st24" points="52,883.1 54,898.6 51.1,898.9 			"/>
			<polygon class="st9" points="30.9,861.8 35.7,851.5 26.1,858 			"/>
			<polygon class="st8" points="27.9,868.7 30.9,861.8 38.5,871 			"/>
			<polygon class="st11" points="54.7,876.2 66.7,867.2 65.1,876.8 			"/>
			<polygon class="st25" points="66.7,867.2 54.7,876.2 49.6,865.2 			"/>
			<polygon class="st26" points="47.4,852.5 36.7,842.7 35.7,851.5 			"/>
			<polygon class="st16" points="54,842.7 41.5,847.1 43.9,840.3 			"/>
			<polygon class="st26" points="47.4,852.5 61.6,861 49.6,865.2 			"/>
			<polygon class="st15" points="41.5,847.1 54,842.7 47.4,852.5 			"/>
			<polygon class="st20" points="68.1,851 66.1,845.1 54,842.7 			"/>
			<polygon class="st27" points="68.1,851 54,842.7 59.8,854 			"/>
			<polygon class="st16" points="59.8,854 47.4,852.5 54,842.7 			"/>
			<polygon class="st18" points="80.5,857.6 66.7,867.2 68.1,851 			"/>
			<polygon class="st27" points="66.7,867.2 68.1,851 61.6,861 			"/>
		</g>
		<g>
			<g>
				<polygon class="st28" points="175.6,796.1 182.2,801 198.2,794.8 				"/>
				<polygon class="st28" points="198.2,794.8 201.3,804.1 228.1,799.3 				"/>
				<polygon class="st29" points="217.5,801.2 225.7,807.4 228.1,799.3 				"/>
				<polygon class="st30" points="198.2,794.8 182.2,801 201.3,804.1 				"/>
				<polygon class="st6" points="210.6,835.4 221.8,820.9 205.5,828.7 				"/>
				<polygon class="st31" points="211.8,807.8 221.8,820.9 225.7,807.4 				"/>
				<polygon class="st32" points="225.7,807.4 221.8,820.9 231.3,812.6 				"/>
				<polyline class="st7" points="180.2,823 165.6,812.9 174.6,829.3 180.2,823 				"/>
				<polygon class="st8" points="189.1,836 205.5,828.7 193.1,826.8 				"/>
				<polygon class="st5" points="189.1,836 210.6,835.4 205.5,828.7 				"/>
				<polygon class="st33" points="181.2,828.4 189.1,836 193.1,826.8 				"/>
				<polygon class="st8" points="193.1,826.8 174.6,829.3 180.2,823 				"/>
				<polygon class="st34" points="165.6,812.9 167.1,806.5 177.1,813.9 				"/>
				<polygon class="st32" points="167.1,806.5 175.6,796.1 182.2,801 				"/>
				<polygon class="st9" points="221.8,820.9 208,816.6 193.1,826.8 				"/>
				<polygon class="st35" points="205.5,828.7 193.1,826.8 221.8,820.9 				"/>
				<polygon class="st9" points="193.1,826.8 189.8,820.8 180.2,823 				"/>
				<polygon class="st10" points="208,816.6 189.8,820.8 193.1,826.8 				"/>
				<polygon class="st36" points="208,816.6 211.8,807.8 221.8,820.9 				"/>
				<polygon class="st37" points="208,816.6 165.6,812.9 180.2,823 				"/>
				<polygon class="st36" points="177.1,813.9 182.2,801 167.1,806.5 				"/>
				<polygon class="st36" points="208,816.6 211.8,807.8 194.2,815.4 				"/>
				<polygon class="st31" points="177.1,813.9 182.2,801 189,809.1 				"/>
				<polygon class="st36" points="177.1,813.9 194.2,815.4 189,809.1 				"/>
				<polygon class="st38" points="182.2,801 201.3,804.1 194.2,815.4 				"/>
				<polygon class="st31" points="211.8,807.8 201.3,804.1 194.2,815.4 				"/>
				<polygon class="st30" points="211.8,807.8 217.5,801.2 225.7,807.4 				"/>
				<polygon class="st29" points="175.6,796.1 182.9,789.1 198.2,794.8 				"/>
				<polygon class="st39" points="182.9,789.1 200.8,785.9 198.2,794.8 				"/>
				<polygon class="st40" points="200.8,785.9 228.1,799.3 198.2,794.8 				"/>
				<polygon class="st38" points="211.8,807.8 217.5,801.2 201.3,804.1 				"/>
				<polygon class="st41" points="228.1,799.3 217.1,786.4 200.8,785.9 				"/>
				<polygon class="st5" points="189.1,836 174.6,829.3 181.2,828.4 				"/>
				<polygon class="st5" points="210.6,835.4 227.9,829.6 221.8,820.9 				"/>
				<polygon class="st37" points="227.9,829.6 231.3,812.6 221.8,820.9 				"/>
				<polygon class="st39" points="231.3,812.6 228.1,799.3 225.7,807.4 				"/>
				<polygon class="st42" points="197.3,871.3 198.7,835.7 201.5,871.1 				"/>
				<polygon class="st43" points="201.5,871.1 202.6,835.6 198.7,835.7 				"/>
				<polygon class="st44" points="205.4,871 202.6,835.6 201.5,871.1 				"/>
				<polygon class="st22" points="198.2,849.6 198.3,846.6 189.1,836 				"/>
				<polygon class="st45" points="203.1,842.2 210.6,835.4 203.2,843.9 				"/>
				<polygon class="st46" points="189.1,836 189.9,836 198.3,846.6 				"/>
				<polygon class="st46" points="207.8,838.7 216.2,836.1 206.6,840.1 				"/>
				<polygon class="st45" points="216.2,836.1 215.1,836.4 218.4,832.8 				"/>
			</g>
			<polygon class="st46" points="196.1,846.5 195.1,845.1 185.7,845 			"/>
			<polygon class="st45" points="182.1,843 185.7,845 182.5,842.8 			"/>
			<polygon class="st47" points="185.7,845 185.7,845.6 196.1,846.5 			"/>
			<polygon class="st22" points="185.7,845.6 182.1,843 185.7,845 			"/>
			<g>
				<polygon class="st40" points="174.5,826.1 183.3,827.7 179.5,829 				"/>
				<polygon class="st5" points="187.5,840.3 181.8,838.4 180.5,843.8 				"/>
				<polygon class="st33" points="174.9,839.9 180.5,843.8 181.8,838.4 				"/>
				<polygon class="st7" points="167,841.6 165.9,833.4 174.9,839.9 				"/>
				<polygon class="st48" points="165.9,833.4 179.5,829 170.8,837 				"/>
				<polygon class="st28" points="174.5,826.1 165.9,833.4 179.5,829 				"/>
				<polygon class="st38" points="188.7,834.2 187.5,840.3 180.6,833.5 				"/>
				<polygon class="st49" points="180.6,833.5 188.7,834.2 183.3,827.7 				"/>
				<polygon class="st41" points="179.5,829 183.3,827.7 180.6,833.5 				"/>
				<polygon class="st28" points="175.8,836.4 179.5,829 180.6,833.5 				"/>
				<polygon class="st48" points="180.6,833.5 175.8,836.4 187.5,840.3 				"/>
				<polygon class="st37" points="175.8,836.4 174.9,839.9 181.8,838.4 				"/>
				<polygon class="st5" points="180.5,843.8 167,841.6 174.9,839.9 				"/>
				<polygon class="st10" points="175.8,836.4 170.8,837 174.9,839.9 				"/>
				<polygon class="st36" points="175.8,836.4 179.5,829 170.8,837 				"/>
				<polygon class="st33" points="167,841.6 171.4,845.8 180.5,843.8 				"/>
			</g>
			<polygon class="st45" points="179,844.1 183.5,844 183.9,844.3 			"/>
		</g>
		<g>
			<polygon class="st50" points="929.7,543.5 923.7,528 936.8,534.6 			"/>
			<polygon class="st51" points="905.7,528 878.7,528 900,537.4 			"/>
			<polygon class="st52" points="900,537.4 929.7,543.5 923.7,528 			"/>
			<polygon class="st53" points="900,537.4 923.7,528 905.7,528 			"/>
			<polygon class="st54" points="970.3,548.2 929.7,543.5 936.8,534.6 			"/>
			<polygon class="st55" points="878.7,528 873.1,541 866,535.9 			"/>
			<polygon class="st56" points="866,535.9 840.2,543.3 873.1,541 			"/>
			<polygon class="st57" points="873.1,541 900,537.4 878.7,528 			"/>
			<polygon class="st58" points="954.4,564.9 970.3,548.2 994.2,557.9 			"/>
			<polygon class="st57" points="929.7,543.5 954.4,564.9 970.3,548.2 			"/>
			<polygon class="st55" points="900,537.4 859.1,552.6 873.1,541 			"/>
			<polygon class="st59" points="859.1,552.6 929.7,543.5 900,537.4 			"/>
			<polygon class="st58" points="859.1,552.6 954.4,564.9 929.7,543.5 			"/>
			<polygon class="st60" points="859.1,552.6 810.7,564.9 954.4,564.9 			"/>
			<polygon class="st57" points="1021.8,548.3 970.3,548.3 994.2,557.9 			"/>
			<polygon class="st61" points="840.2,543.3 742.7,552.6 859.1,552.6 			"/>
			<polygon class="st62" points="859.1,552.6 840.2,543.3 873.1,541 			"/>
			<polygon class="st63" points="810.7,564.9 742.7,552.6 859.1,552.6 			"/>
			<polygon class="st64" points="742.7,552.6 667,564.9 810.7,564.9 			"/>
			<polygon class="st50" points="970.3,548.2 1021.8,548.3 936.8,534.6 			"/>
			<polygon class="st62" points="954.4,564.9 1024,568.2 1024,552.6 			"/>
			<polygon class="st58" points="1024,552.6 1024,547.4 993.9,557.9 			"/>
		</g>
		<g>
			<polygon class="st65" points="121.2,893.3 110.9,806.2 109.1,893.3 			"/>
			<polygon class="st21" points="110.9,806.2 101.8,818.7 109.1,893.3 			"/>
			<polygon class="st47" points="101.8,818.7 94.4,893.3 109.1,893.3 			"/>
			<polygon class="st19" points="158.8,691.6 161.1,710.4 177.4,710.6 			"/>
			<polygon class="st66" points="128.5,733.9 153.2,721.5 135.5,719.8 			"/>
			<polygon class="st67" points="107.7,678.8 79.4,681.2 91.9,693.2 			"/>
			<polygon class="st19" points="124.1,687.5 107.7,678.8 91.9,693.2 			"/>
			<polygon class="st18" points="158.8,691.6 136.3,685.3 122.7,698.1 			"/>
			<polygon class="st19" points="141.2,708.1 161.1,710.4 135.5,719.8 			"/>
			<polygon class="st68" points="122.7,698.1 109.2,710.9 91.9,693.2 			"/>
			<polygon class="st9" points="101.1,764.4 106,747.8 91.6,746 			"/>
			<polygon class="st69" points="139,751.4 148.2,744.8 131.6,745.7 			"/>
			<polygon class="st6" points="75.8,773.4 82.5,761.8 70.8,766.6 			"/>
			<polygon class="st8" points="131.6,745.7 113.3,748.7 117,756.2 			"/>
			<polygon class="st10" points="77.7,746 88.1,752.5 91.6,746 			"/>
			<polygon class="st70" points="131.6,745.7 117,756.2 139,751.4 			"/>
			<polygon class="st35" points="91.6,746 88.1,752.5 101.1,764.4 			"/>
			<polygon class="st71" points="125,764.4 143,763.1 139,751.4 			"/>
			<polygon class="st5" points="117,756.2 125,764.4 139,751.4 			"/>
			<polygon class="st69" points="152.8,751.4 172.5,744.8 163.9,733.4 			"/>
			<polygon class="st68" points="79.4,681.2 75.5,699.2 91.9,693.2 			"/>
			<polygon class="st70" points="139,751.4 143,763.1 152.8,751.4 148.2,744.8 			"/>
			<polygon class="st17" points="43.3,707.7 17.7,715.3 40.1,717.3 			"/>
			<polygon class="st26" points="49.6,726.6 40.1,717.3 43.3,707.7 			"/>
			<polyline class="st7" points="45.9,760.3 24.6,748.9 29.8,767.6 45.9,760.3 			"/>
			<polygon class="st8" points="60.1,773.4 70.8,766.6 58.6,764.4 			"/>
			<polygon class="st33" points="67.5,784.6 75.8,773.4 70.8,766.6 			"/>
			<polygon class="st33" points="46.7,765.7 60.1,773.4 58.6,764.4 			"/>
			<polygon class="st8" points="58.6,764.4 29.8,767.6 45.9,760.3 			"/>
			<polygon class="st14" points="141.2,708.1 122.7,698.1 135.5,719.8 			"/>
			<polygon class="st72" points="148.2,744.8 163.9,733.4 152.8,751.4 			"/>
			<polygon class="st25" points="143.5,726.4 163.9,733.4 153.2,721.5 			"/>
			<polygon class="st11" points="143.5,726.4 148.2,744.8 128.5,733.9 			"/>
			<polygon class="st16" points="75.5,699.2 78,687.8 55.5,693.2 			"/>
			<polygon class="st15" points="43.3,707.7 55.5,693.2 75.5,699.2 			"/>
			<polygon class="st66" points="43.3,707.7 75.8,722 75.5,699.2 			"/>
			<polygon class="st35" points="15.6,742.1 30.3,726.6 17.7,715.3 			"/>
			<polygon class="st11" points="24.6,748.9 33.3,743.5 43.1,751.1 			"/>
			<polygon class="st9" points="15.6,742.1 35.5,735.6 30.3,726.6 			"/>
			<polygon class="st73" points="33.3,743.5 42.1,733.4 48.6,738.4 			"/>
			<polygon class="st9" points="82.5,761.8 73.7,754.7 58.6,764.4 			"/>
			<polygon class="st35" points="70.8,766.6 58.6,764.4 82.5,761.8 			"/>
			<polygon class="st9" points="58.6,764.4 55.5,758.3 45.9,760.3 			"/>
			<polygon class="st10" points="73.7,754.7 55.5,758.3 58.6,764.4 			"/>
			<polygon class="st72" points="73.7,754.7 77.7,746 88.1,752.5 			"/>
			<polygon class="st72" points="73.7,754.7 24.6,748.9 45.9,760.3 			"/>
			<polygon class="st17" points="43.1,751.1 48.6,738.4 33.3,743.5 			"/>
			<polygon class="st17" points="73.7,754.7 77.7,746 60.1,753.1 			"/>
			<polygon class="st25" points="43.1,751.1 48.6,738.4 55,746.7 			"/>
			<polygon class="st17" points="43.1,751.1 60.1,753.1 55,746.7 			"/>
			<polygon class="st26" points="48.6,738.4 67.5,742.1 60.1,753.1 			"/>
			<polygon class="st25" points="77.7,746 67.5,742.1 60.1,753.1 			"/>
			<polygon class="st7" points="15.6,742.1 42.1,733.4 33.3,743.5 			"/>
			<polygon class="st10" points="30.3,726.6 40.1,717.3 17.7,715.3 			"/>
			<polygon class="st26" points="42.1,733.4 49.6,726.6 48.6,738.4 			"/>
			<polygon class="st20" points="49.6,726.6 75.8,722 81.5,733.7 			"/>
			<polygon class="st74" points="77.7,746 94.1,738.1 67.5,742.1 			"/>
			<polygon class="st11" points="30.3,726.6 42.1,733.4 35.5,735.6 			"/>
			<polygon class="st11" points="49.6,726.6 40.1,717.3 30.3,726.6 			"/>
			<polygon class="st17" points="42.1,733.4 49.6,726.6 30.3,726.6 			"/>
			<polygon class="st25" points="75.8,722 43.3,707.7 49.6,726.6 			"/>
			<polygon class="st72" points="113.3,748.7 94.1,738.1 91.6,746 			"/>
			<polygon class="st26" points="94.1,738.1 81.5,733.7 67.5,742.1 			"/>
			<polygon class="st66" points="108,736.4 93.3,726.6 94.1,738.1 			"/>
			<polygon class="st10" points="108,736.4 113.3,748.7 94.1,738.1 			"/>
			<polygon class="st69" points="113.3,748.7 128.5,733.9 131.6,745.7 			"/>
			<polygon class="st5" points="106,747.8 106,757.1 101.1,764.4 			"/>
			<polygon class="st72" points="113.3,748.7 128.5,733.9 108,736.4 			"/>
			<polygon class="st75" points="93.3,726.6 128.5,733.9 135.5,719.8 			"/>
			<polygon class="st15" points="108,736.4 128.5,733.9 93.3,726.6 			"/>
			<polygon class="st72" points="148.2,744.8 131.6,745.7 128.5,733.9 			"/>
			<polygon class="st75" points="75.8,722 109.2,710.9 93.3,726.6 			"/>
			<polygon class="st15" points="109.2,710.9 75.5,699.2 75.8,722 			"/>
			<polygon class="st16" points="109.2,710.9 91.9,693.2 75.5,699.2 			"/>
			<polygon class="st8" points="143,763.1 148.2,744.8 152.8,751.4 			"/>
			<polygon class="st72" points="177.4,730 172.5,744.8 163.9,733.4 			"/>
			<polygon class="st17" points="148.2,744.8 163.9,733.4 143.5,726.4 			"/>
			<polygon class="st19" points="158.8,691.6 141.2,708.1 122.7,698.1 			"/>
			<polygon class="st20" points="136.3,685.3 91.9,693.2 122.7,698.1 			"/>
			<polygon class="st16" points="153.2,721.5 161.1,710.4 177.4,730 			"/>
			<polygon class="st15" points="177.4,730 163.9,733.4 153.2,721.5 			"/>
			<polygon class="st76" points="161.1,710.4 135.5,719.8 153.2,721.5 			"/>
			<polygon class="st27" points="135.5,719.8 93.3,726.6 109.2,710.9 			"/>
			<polygon class="st76" points="109.2,710.9 122.7,698.1 135.4,719.6 135.5,719.8 			"/>
			<polygon class="st14" points="141.2,708.1 158.8,691.6 161.1,710.4 			"/>
			<polygon class="st35" points="82.5,761.8 88.1,752.5 73.7,754.7 			"/>
			<polygon class="st70" points="106,747.8 113.3,748.7 117,756.2 			"/>
			<polygon class="st76" points="177.4,710.6 161.1,710.4 177.4,730 			"/>
			<polygon class="st5" points="106,757.1 109.1,759.5 117,756.2 			"/>
			<polygon class="st6" points="106,757.1 106,747.8 117,756.2 			"/>
			<polygon class="st33" points="88.1,752.5 101.1,764.4 82.5,761.8 			"/>
			<polygon class="st5" points="101.1,764.4 91,768.9 82.5,761.8 			"/>
			<polygon class="st8" points="91,768.9 75.8,773.4 82.5,761.8 			"/>
			<polygon class="st77" points="94.1,738.1 91.6,746 77.7,746 			"/>
			<polygon class="st19" points="75.8,722 93.3,726.6 81.5,733.7 			"/>
			<polygon class="st66" points="48.6,738.4 49.6,726.6 67.5,742.1 			"/>
			<polygon class="st15" points="93.3,726.6 94.1,738.1 81.5,733.7 			"/>
			<polygon class="st16" points="81.5,733.7 67.5,742.1 49.6,726.6 			"/>
			<polygon class="st78" points="101.8,818.7 101.1,764.4 110.9,806.2 			"/>
			<polygon class="st65" points="110.9,806.2 109.1,759.5 105.4,782.8 			"/>
			<polygon class="st78" points="105.4,782.8 106,757.1 109.1,759.5 			"/>
			<polygon class="st47" points="101.5,800.3 83.4,792.2 101.5,803.7 			"/>
			<polygon class="st21" points="101.5,800.3 84.6,790.2 83.4,792.2 			"/>
			<polygon class="st65" points="83.4,792.2 75.8,773.4 84.6,790.2 			"/>
			<polygon class="st79" points="84.6,790.2 78.3,772.7 75.8,773.4 			"/>
			<polygon class="st78" points="83.4,792.2 65.5,786.2 82.5,789.9 			"/>
			<polygon class="st79" points="82.5,789.9 67.5,784.6 65.5,786.2 			"/>
			<polygon class="st65" points="65.5,786.2 58.8,774.8 60.1,773.4 			"/>
			<polygon class="st80" points="67.5,784.6 60.1,773.4 65.5,786.2 			"/>
			<polygon class="st5" points="70.8,766.6 60.1,773.4 67.5,784.6 			"/>
			<polygon class="st8" points="60.1,773.4 50.5,784.6 46.7,765.7 			"/>
			<polygon class="st5" points="50.5,784.6 29.8,767.6 46.7,765.7 			"/>
			<polygon class="st5" points="50.5,784.6 62.7,781.4 58.8,774.8 			"/>
			<polygon class="st71" points="109.1,759.5 125,764.4 117,756.2 			"/>
			<polygon class="st80" points="80.8,779.6 91,768.9 81.5,781.4 			"/>
			<polygon class="st21" points="101.1,764.4 98.2,765.7 101.3,782.8 			"/>
			<polygon class="st21" points="109.5,769.9 125,764.4 109.6,773 			"/>
			<polygon class="st65" points="109.5,769.9 122.2,763.5 125,764.4 			"/>
			<polygon class="st65" points="110.9,806.2 122.1,803 111.4,809 			"/>
			<polygon class="st21" points="111.4,809 124.2,804.5 122.1,803 			"/>
			<polygon class="st65" points="124.2,804.5 132.5,797.5 122.1,803 			"/>
			<polygon class="st79" points="132.5,797.5 130.2,796.6 122.1,803 			"/>
			<g>
				<polygon class="st20" points="133.6,771.6 146.2,774.3 140.6,775.9 				"/>
				<polygon class="st5" points="151.6,792.3 143.6,789.4 139.6,800.4 				"/>
				<polygon class="st33" points="133.6,791.3 139.6,800.4 143.6,789.4 				"/>
				<polygon class="st7" points="122.3,793.4 121.1,781.7 133.6,791.3 				"/>
				<polygon class="st77" points="121.1,781.7 140.6,775.9 128,786.9 				"/>
				<polygon class="st15" points="133.6,771.6 121.1,781.7 140.6,775.9 				"/>
				<polygon class="st26" points="153.6,783.7 151.6,792.3 142,782.4 				"/>
				<polygon class="st76" points="142,782.4 153.6,783.7 146.2,774.3 				"/>
				<polygon class="st19" points="140.6,775.9 146.2,774.3 142,782.4 				"/>
				<polygon class="st15" points="135.1,786.3 140.6,775.9 142,782.4 				"/>
				<polygon class="st77" points="142,782.4 135.1,786.3 151.6,792.3 				"/>
				<polygon class="st72" points="135.1,786.3 133.6,791.3 143.6,789.4 				"/>
				<polygon class="st5" points="139.6,800.4 122.3,793.4 133.6,791.3 				"/>
				<polygon class="st10" points="135.1,786.3 128,786.9 133.6,791.3 				"/>
				<polygon class="st17" points="135.1,786.3 140.6,775.9 128,786.9 				"/>
			</g>
		</g>
		<g>
			<polygon class="st65" points="835.1,890.8 827.6,847.6 826.3,890.8 			"/>
			<polygon class="st21" points="827.6,847.6 821,856.7 826.3,890.8 			"/>
			<polygon class="st47" points="821,856.7 815.6,890.8 826.3,890.8 			"/>
			<polygon class="st19" points="862.5,764.3 864.1,777.9 876,778.1 			"/>
			<polygon class="st66" points="840.4,795 858.4,786 845.5,784.7 			"/>
			<polygon class="st67" points="825.3,754.9 804.7,756.7 813.8,765.4 			"/>
			<polygon class="st19" points="837.2,761.3 825.3,754.9 813.8,765.4 			"/>
			<polygon class="st18" points="862.5,764.3 846.1,759.7 836.2,769 			"/>
			<polygon class="st19" points="849.7,776.2 864.1,777.9 845.5,784.7 			"/>
			<polygon class="st68" points="836.2,769 826.3,778.3 813.8,765.4 			"/>
			<polygon class="st9" points="820.5,817.1 824,805.1 813.6,803.8 			"/>
			<polygon class="st69" points="848,807.7 854.7,802.9 842.7,803.6 			"/>
			<polygon class="st6" points="802.1,823.7 806.9,815.3 798.5,818.8 			"/>
			<polygon class="st8" points="842.7,803.6 829.4,805.7 832,811.2 			"/>
			<polygon class="st10" points="803.5,803.8 811.1,808.5 813.6,803.8 			"/>
			<polygon class="st70" points="842.7,803.6 832,811.2 848,807.7 			"/>
			<polygon class="st35" points="813.6,803.8 811.1,808.5 820.5,817.1 			"/>
			<polygon class="st71" points="837.8,817.1 851,816.2 848,807.7 			"/>
			<polygon class="st5" points="832,811.2 837.8,817.1 848,807.7 			"/>
			<polygon class="st69" points="858.1,807.7 872.4,802.9 866.2,794.6 			"/>
			<polygon class="st68" points="804.7,756.7 801.9,769.8 813.8,765.4 			"/>
			<polygon class="st70" points="848,807.7 851,816.2 858.1,807.7 854.7,802.9 			"/>
			<polygon class="st17" points="778.5,776 759.9,781.5 776.2,783 			"/>
			<polygon class="st26" points="783,789.7 776.2,783 778.5,776 			"/>
			<polyline class="st7" points="780.4,814.2 764.9,805.9 768.7,819.5 780.4,814.2 			"/>
			<polygon class="st8" points="790.7,823.7 798.5,818.8 789.6,817.1 			"/>
			<polygon class="st33" points="796,831.9 802.1,823.7 798.5,818.8 			"/>
			<polygon class="st33" points="780.9,818.1 790.7,823.7 789.6,817.1 			"/>
			<polygon class="st8" points="789.6,817.1 768.7,819.5 780.4,814.2 			"/>
			<polygon class="st14" points="849.7,776.2 836.2,769 845.5,784.7 			"/>
			<polygon class="st72" points="854.7,802.9 866.2,794.6 858.1,807.7 			"/>
			<polygon class="st25" points="851.3,789.5 866.2,794.6 858.4,786 			"/>
			<polygon class="st11" points="851.3,789.5 854.7,802.9 840.4,795 			"/>
			<polygon class="st16" points="801.9,769.8 803.7,761.5 787.4,765.4 			"/>
			<polygon class="st15" points="778.5,776 787.4,765.4 801.9,769.8 			"/>
			<polygon class="st66" points="778.5,776 802.1,786.3 801.9,769.8 			"/>
			<polygon class="st35" points="758.3,800.9 769,789.7 759.9,781.5 			"/>
			<polygon class="st11" points="764.9,805.9 771.2,801.9 778.3,807.5 			"/>
			<polygon class="st9" points="758.3,800.9 772.8,796.2 769,789.7 			"/>
			<polygon class="st73" points="771.2,801.9 777.6,794.6 782.3,798.3 			"/>
			<polygon class="st9" points="806.9,815.3 800.6,810.1 789.6,817.1 			"/>
			<polygon class="st35" points="798.5,818.8 789.6,817.1 806.9,815.3 			"/>
			<polygon class="st9" points="789.6,817.1 787.4,812.7 780.4,814.2 			"/>
			<polygon class="st10" points="800.6,810.1 787.4,812.7 789.6,817.1 			"/>
			<polygon class="st72" points="800.6,810.1 803.5,803.8 811.1,808.5 			"/>
			<polygon class="st72" points="800.6,810.1 764.9,805.9 780.4,814.2 			"/>
			<polygon class="st17" points="778.3,807.5 782.3,798.3 771.2,801.9 			"/>
			<polygon class="st17" points="800.6,810.1 803.5,803.8 790.7,808.9 			"/>
			<polygon class="st25" points="778.3,807.5 782.3,798.3 787,804.3 			"/>
			<polygon class="st17" points="778.3,807.5 790.7,808.9 787,804.3 			"/>
			<polygon class="st26" points="782.3,798.3 796,800.9 790.7,808.9 			"/>
			<polygon class="st25" points="803.5,803.8 796,800.9 790.7,808.9 			"/>
			<polygon class="st7" points="758.3,800.9 777.6,794.6 771.2,801.9 			"/>
			<polygon class="st10" points="769,789.7 776.2,783 759.9,781.5 			"/>
			<polygon class="st26" points="777.6,794.6 783,789.7 782.3,798.3 			"/>
			<polygon class="st20" points="783,789.7 802.1,786.3 806.2,794.8 			"/>
			<polygon class="st74" points="803.5,803.8 815.4,798.1 796,800.9 			"/>
			<polygon class="st11" points="769,789.7 777.6,794.6 772.8,796.2 			"/>
			<polygon class="st11" points="783,789.7 776.2,783 769,789.7 			"/>
			<polygon class="st17" points="777.6,794.6 783,789.7 769,789.7 			"/>
			<polygon class="st25" points="802.1,786.3 778.5,776 783,789.7 			"/>
			<polygon class="st72" points="829.4,805.7 815.4,798.1 813.6,803.8 			"/>
			<polygon class="st26" points="815.4,798.1 806.2,794.8 796,800.9 			"/>
			<polygon class="st66" points="825.5,796.8 814.8,789.7 815.4,798.1 			"/>
			<polygon class="st10" points="825.5,796.8 829.4,805.7 815.4,798.1 			"/>
			<polygon class="st69" points="829.4,805.7 840.4,795 842.7,803.6 			"/>
			<polygon class="st5" points="824,805.1 824.1,811.9 820.5,817.1 			"/>
			<polygon class="st72" points="829.4,805.7 840.4,795 825.5,796.8 			"/>
			<polygon class="st75" points="814.8,789.7 840.4,795 845.5,784.7 			"/>
			<polygon class="st15" points="825.5,796.8 840.4,795 814.8,789.7 			"/>
			<polygon class="st72" points="854.7,802.9 842.7,803.6 840.4,795 			"/>
			<polygon class="st75" points="802.1,786.3 826.3,778.3 814.8,789.7 			"/>
			<polygon class="st15" points="826.3,778.3 801.9,769.8 802.1,786.3 			"/>
			<polygon class="st16" points="826.3,778.3 813.8,765.4 801.9,769.8 			"/>
			<polygon class="st8" points="851,816.2 854.7,802.9 858.1,807.7 			"/>
			<polygon class="st72" points="876,792.2 872.4,802.9 866.2,794.6 			"/>
			<polygon class="st17" points="854.7,802.9 866.2,794.6 851.3,789.5 			"/>
			<polygon class="st19" points="862.5,764.3 849.7,776.2 836.2,769 			"/>
			<polygon class="st20" points="846.1,759.7 813.8,765.4 836.2,769 			"/>
			<polygon class="st16" points="858.4,786 864.1,777.9 876,792.2 			"/>
			<polygon class="st15" points="876,792.2 866.2,794.6 858.4,786 			"/>
			<polygon class="st76" points="864.1,777.9 845.5,784.7 858.4,786 			"/>
			<polygon class="st27" points="845.5,784.7 814.8,789.7 826.3,778.3 			"/>
			<polygon class="st76" points="826.3,778.3 836.2,769 845.4,784.6 845.5,784.7 			"/>
			<polygon class="st14" points="849.7,776.2 862.5,764.3 864.1,777.9 			"/>
			<polygon class="st35" points="806.9,815.3 811.1,808.5 800.6,810.1 			"/>
			<polygon class="st70" points="824,805.1 829.4,805.7 832,811.2 			"/>
			<polygon class="st76" points="876,778.1 864.1,777.9 876,792.2 			"/>
			<polygon class="st5" points="824.1,811.9 826.3,813.6 832,811.2 			"/>
			<polygon class="st6" points="824.1,811.9 824,805.1 832,811.2 			"/>
			<polygon class="st33" points="811.1,808.5 820.5,817.1 806.9,815.3 			"/>
			<polygon class="st5" points="820.5,817.1 813.1,820.4 806.9,815.3 			"/>
			<polygon class="st8" points="813.1,820.4 802.1,823.7 806.9,815.3 			"/>
			<polygon class="st77" points="815.4,798.1 813.6,803.8 803.5,803.8 			"/>
			<polygon class="st19" points="802.1,786.3 814.8,789.7 806.2,794.8 			"/>
			<polygon class="st66" points="782.3,798.3 783,789.7 796,800.9 			"/>
			<polygon class="st15" points="814.8,789.7 815.4,798.1 806.2,794.8 			"/>
			<polygon class="st16" points="806.2,794.8 796,800.9 783,789.7 			"/>
			<polygon class="st78" points="821,856.7 820.5,817.1 827.6,847.6 			"/>
			<polygon class="st65" points="827.6,847.6 826.3,813.6 823.6,830.5 			"/>
			<polygon class="st78" points="823.6,830.5 824.1,811.9 826.3,813.6 			"/>
			<polygon class="st47" points="820.8,843.3 807.6,837.4 820.8,845.7 			"/>
			<polygon class="st21" points="820.8,843.3 808.5,835.9 807.6,837.4 			"/>
			<polygon class="st65" points="807.6,837.4 802.1,823.7 808.5,835.9 			"/>
			<polygon class="st79" points="808.5,835.9 803.9,823.2 802.1,823.7 			"/>
			<polygon class="st78" points="807.6,837.4 794.6,833 806.9,835.7 			"/>
			<polygon class="st79" points="806.9,835.7 796,831.9 794.6,833 			"/>
			<polygon class="st65" points="794.6,833 789.7,824.7 790.7,823.7 			"/>
			<polygon class="st80" points="796,831.9 790.7,823.7 794.6,833 			"/>
			<polygon class="st5" points="798.5,818.8 790.7,823.7 796,831.9 			"/>
			<polygon class="st8" points="790.7,823.7 783.7,831.9 780.9,818.1 			"/>
			<polygon class="st5" points="783.7,831.9 768.7,819.5 780.9,818.1 			"/>
			<polygon class="st5" points="783.7,831.9 792.6,829.5 789.7,824.7 			"/>
			<polygon class="st71" points="826.3,813.6 837.8,817.1 832,811.2 			"/>
			<polygon class="st80" points="805.7,828.2 813.1,820.4 806.2,829.5 			"/>
			<polygon class="st21" points="820.5,817.1 818.4,818.1 820.7,830.5 			"/>
			<polygon class="st21" points="826.6,821.2 837.8,817.1 826.7,823.4 			"/>
			<polygon class="st65" points="826.6,821.2 835.8,816.5 837.8,817.1 			"/>
			<polygon class="st65" points="827.6,847.6 835.8,845.2 828,849.6 			"/>
			<polygon class="st21" points="828,849.6 837.3,846.3 835.8,845.2 			"/>
			<polygon class="st65" points="837.3,846.3 843.3,841.2 835.8,845.2 			"/>
			<polygon class="st79" points="843.3,841.2 841.6,840.6 835.8,845.2 			"/>
			<g>
				<polygon class="st20" points="844.1,822.4 853.3,824.3 849.2,825.5 				"/>
				<polygon class="st5" points="857.2,837.5 851.4,835.3 848.5,843.3 				"/>
				<polygon class="st33" points="844.1,836.7 848.5,843.3 851.4,835.3 				"/>
				<polygon class="st7" points="835.9,838.2 835,829.7 844.1,836.7 				"/>
				<polygon class="st77" points="835,829.7 849.2,825.5 840,833.5 				"/>
				<polygon class="st15" points="844.1,822.4 835,829.7 849.2,825.5 				"/>
				<polygon class="st26" points="858.7,831.2 857.2,837.5 850.2,830.3 				"/>
				<polygon class="st76" points="850.2,830.3 858.7,831.2 853.3,824.3 				"/>
				<polygon class="st19" points="849.2,825.5 853.3,824.3 850.2,830.3 				"/>
				<polygon class="st15" points="845.2,833.1 849.2,825.5 850.2,830.3 				"/>
				<polygon class="st77" points="850.2,830.3 845.2,833.1 857.2,837.5 				"/>
				<polygon class="st72" points="845.2,833.1 844.1,836.7 851.4,835.3 				"/>
				<polygon class="st5" points="848.5,843.3 835.9,838.2 844.1,836.7 				"/>
				<polygon class="st10" points="845.2,833.1 840,833.5 844.1,836.7 				"/>
				<polygon class="st17" points="845.2,833.1 849.2,825.5 840,833.5 				"/>
			</g>
		</g>
		<g>
			<polygon class="st81" points="441.5,592.7 447.6,585.8 434.3,587.8 			"/>
			<polygon class="st82" points="447.6,585.8 429,582.2 434.3,587.8 			"/>
			<polygon class="st83" points="429,582.2 416.6,586.4 420.8,590.4 			"/>
			<polygon class="st84" points="434.3,587.8 420.8,590.4 429,582.2 			"/>
			<polygon class="st85" points="445.6,607.1 465.8,607.3 456.6,602.9 			"/>
			<polygon class="st86" points="465.8,607.3 454.4,594.1 456.6,602.9 			"/>
			<polygon class="st87" points="441,604.8 441.5,592.7 454.4,594.1 			"/>
			<polygon class="st87" points="445.6,607.1 441,604.8 456.6,602.9 			"/>
			<polygon class="st82" points="426.8,599.4 441.5,592.7 434.3,587.8 			"/>
			<polygon class="st88" points="418,609.3 426.8,599.4 410.6,597.9 			"/>
			<polygon class="st89" points="426.8,599.4 420.8,590.4 410.6,597.9 			"/>
			<polygon class="st90" points="426.8,599.4 435.2,608.2 418,609.3 			"/>
			<polygon class="st91" points="454.4,594.1 447.6,585.8 441.5,592.7 			"/>
			<polygon class="st92" points="441,604.8 435.2,608.2 426.8,599.4 			"/>
			<polygon class="st93" points="435.2,608.2 445.6,607.1 441,604.8 			"/>
			<polygon class="st83" points="426.8,599.4 420.8,590.4 434.3,587.8 			"/>
			<polygon class="st94" points="416.6,586.4 410.6,597.9 420.8,590.4 			"/>
			<polygon class="st81" points="441.5,592.7 426.8,599.4 441,604.8 			"/>
			<polygon class="st95" points="454.4,594.1 456.6,602.9 441,604.8 			"/>
		</g>
		<g>
			<polygon class="st88" points="520.7,624.4 527.2,612.3 533.7,612.3 			"/>
			<polygon class="st96" points="520.7,624.4 533.7,612.3 533.5,617.7 			"/>
			<polygon class="st83" points="533.5,617.7 546.3,614.4 533.7,612.3 			"/>
			<polygon class="st97" points="527.2,612.3 537.4,599.9 539.8,605.2 			"/>
			<polygon class="st82" points="537.4,599.9 550.4,595.5 550.4,600.6 			"/>
			<polygon class="st97" points="539.8,605.2 533.7,612.3 546.3,614.4 			"/>
			<polygon class="st98" points="550.4,595.5 561.4,601.3 573.2,597.2 			"/>
			<polygon class="st99" points="539.8,605.2 537.4,599.9 550.4,600.6 			"/>
			<polygon class="st99" points="546.3,614.4 539.8,605.2 552.9,608.6 			"/>
			<polygon class="st95" points="573.2,597.2 570.8,608 561.4,601.3 			"/>
			<polygon class="st100" points="546.3,614.4 561.8,616.7 552.9,608.6 			"/>
			<polygon class="st101" points="561.4,601.3 570.8,608 561.8,616.7 			"/>
			<polygon class="st86" points="573.2,597.2 586.2,608 570.8,608 			"/>
			<polygon class="st98" points="561.8,616.7 574.4,620 570.8,608 			"/>
			<polygon class="st95" points="586.2,608 574.4,620 570.8,608 			"/>
			<polygon class="st102" points="586.2,608 584.3,616.5 574.4,620 			"/>
			<polygon class="st103" points="561.4,601.3 561.8,616.7 552.9,608.6 			"/>
			<polygon class="st104" points="550.4,595.5 550.4,600.6 561.4,601.3 			"/>
			<polygon class="st105" points="552.9,608.6 550.4,600.6 561.4,601.3 			"/>
			<polygon class="st100" points="552.9,608.6 550.4,600.6 539.8,605.2 			"/>
			<polygon class="st106" points="539.8,605.2 533.7,612.3 527.2,612.3 			"/>
		</g>
		<g>
			<g>
				<g>
					<polygon class="st107" points="966.9,887.3 951.7,868.6 913.2,891.5 					"/>
					<polygon class="st7" points="898.1,860.9 913.2,891.5 951.7,868.6 					"/>
					<polygon class="st11" points="898.1,860.9 912.5,828.1 939,853 					"/>
					<polygon class="st26" points="958.5,851.6 951.5,843.5 939,853 					"/>
					<polygon class="st66" points="912.5,828.1 962.2,835.5 939,853 					"/>
					<polygon class="st16" points="951,818.5 912.5,828.1 962.2,835.5 					"/>
					<polygon class="st26" points="983.3,866.4 951.7,868.6 958.5,851.6 					"/>
					<polygon class="st19" points="951,818.5 976.4,837.6 962.2,835.5 					"/>
					<polygon class="st76" points="958.5,851.6 983.3,866.4 976.4,837.6 					"/>
					<polygon class="st16" points="962.2,835.5 976.4,837.6 958.5,851.6 					"/>
					<polygon class="st15" points="951.5,843.5 962.2,835.5 958.5,851.6 					"/>
					<polygon class="st77" points="958.5,851.6 939,853 951.7,868.6 					"/>
					<polygon class="st72" points="939,853 898.1,860.9 951.7,868.6 					"/>
				</g>
				<polygon class="st72" points="951.7,868.6 983.3,866.4 966.9,887.3 				"/>
			</g>
			<g>
				<polygon class="st5" points="971.4,886.9 978.8,873.9 998.8,884.8 				"/>
				<polygon class="st72" points="1006,866.9 998.8,884.8 998.4,868.9 				"/>
				<polygon class="st11" points="998.4,868.9 993.4,859.7 987.1,865.5 				"/>
				<polygon class="st66" points="976.9,864.8 975,856.4 987.1,865.5 				"/>
				<polygon class="st16" points="993.4,859.7 975,856.4 987.1,865.5 				"/>
				<polygon class="st16" points="980.8,847.5 991.3,850 975,856.4 				"/>
				<polygon class="st72" points="963.9,872.6 978.8,873.9 976.9,864.8 				"/>
				<polygon class="st66" points="980.8,847.5 967.5,857.5 975,856.4 				"/>
				<polygon class="st11" points="976.9,864.8 963.9,872.6 967.5,857.5 				"/>
				<polygon class="st26" points="975,856.4 967.5,857.5 976.9,864.8 				"/>
				<polygon class="st77" points="976.9,864.8 987.1,865.5 978.8,873.9 				"/>
				<polygon class="st72" points="987.1,865.5 998.4,868.9 978.8,873.9 				"/>
				<polygon class="st19" points="993.4,859.7 991.3,850 1001.1,852.5 				"/>
				<polygon class="st16" points="1001.1,852.5 1006,866.9 993.4,859.7 				"/>
				<polygon class="st26" points="1006,866.9 998.4,868.9 993.4,859.7 				"/>
				<polygon class="st76" points="993.4,859.7 991.3,850 975,856.4 				"/>
				<polygon class="st7" points="963.9,872.6 971.4,886.9 978.8,873.9 				"/>
				<polygon class="st7" points="978.8,873.9 998.4,868.9 998.8,884.8 				"/>
			</g>
			<g>
				<polygon class="st108" points="889,893.3 876.3,878.6 858.8,887.7 				"/>
				<polygon class="st109" points="841.2,869.7 858.8,887.7 876.3,878.6 				"/>
				<polygon class="st11" points="841.2,869.7 847.6,851 865.6,867.9 				"/>
				<polygon class="st26" points="878.8,866.9 874.1,861.5 865.6,867.9 				"/>
				<polygon class="st66" points="847.6,851 881.3,856 865.6,867.9 				"/>
				<polygon class="st16" points="873.7,844.5 847.6,851 881.3,856 				"/>
				<polygon class="st26" points="895.5,877 876.3,878.6 878.8,866.9 				"/>
				<polygon class="st19" points="873.7,844.5 890.9,857.5 881.3,856 				"/>
				<polygon class="st76" points="878.8,866.9 895.5,877 890.9,857.5 				"/>
				<polygon class="st16" points="881.3,856 890.9,857.5 878.8,866.9 				"/>
				<polygon class="st15" points="874.1,861.5 881.3,856 878.8,866.9 				"/>
				<polygon class="st77" points="878.8,866.9 865.6,867.9 876.3,878.6 				"/>
				<polygon class="st72" points="865.6,867.9 841.2,869.7 876.3,878.6 				"/>
				<polygon class="st72" points="895.5,877 889,893.3 876.3,878.6 				"/>
				<polygon class="st110" points="847.6,891.2 841.2,869.7 858.8,887.7 				"/>
				<polygon class="st111" points="889,893.3 873.9,894.6 858.8,887.7 				"/>
				<polygon class="st5" points="847.6,891.2 873.9,894.6 858.8,887.7 				"/>
			</g>
		</g>
		<g>
			<polygon class="st14" points="745.9,920.5 760.4,902.8 603.3,921.3 			"/>
			<polygon class="st112" points="760.4,902.8 809.5,924.2 745.9,920.5 			"/>
			<polyline class="st27" points="809.5,924.2 760.4,902.8 873.1,894.5 809.5,924.2 			"/>
			<polygon class="st113" points="997.9,884.8 873.1,894.5 809.5,924.2 			"/>
			<polygon class="st11" points="809.5,924.2 873.1,954.8 971.9,930.1 			"/>
			<polygon class="st114" points="873.1,954.8 780.1,940.6 809.5,924.2 			"/>
			<polygon class="st113" points="745.9,920.5 724.9,932.2 780.1,940.6 			"/>
			<polygon class="st16" points="724.9,932.2 745.9,920.5 603.3,921.3 			"/>
			<polygon class="st115" points="166.3,905.4 156.1,889.9 52.3,898.7 			"/>
			<polygon class="st116" points="156.1,889.9 236.7,915.4 178.7,924.2 			"/>
			<polygon class="st66" points="156.1,889.9 251.4,889.9 203.8,905 			"/>
			<polygon class="st16" points="314.1,902.8 251.4,889.9 203.8,905 			"/>
			<polygon class="st66" points="203.8,905 236.7,915.4 314.1,902.8 			"/>
			<polygon class="st117" points="178.7,924.2 166.3,905.4 52.3,898.7 			"/>
			<polygon class="st75" points="52.3,898.7 38,890.6 53.5,911.5 			"/>
			<polygon class="st17" points="38,890.6 0,891.7 0,905.9 			"/>
			<polygon class="st27" points="52.3,898.7 93.8,915.4 53.5,911.5 			"/>
			<polygon class="st25" points="53.5,911.5 0,905.9 38,890.6 			"/>
			<polygon class="st16" points="53.5,911.5 107.9,926.8 93.8,915.4 			"/>
			<polygon class="st76" points="93.8,915.4 178.7,924.2 107.9,926.8 			"/>
			<polygon class="st33" points="52.3,898.7 93.8,915.4 178.7,924.2 			"/>
			<polygon class="st75" points="178.7,924.2 232.6,942 107.9,926.8 			"/>
			<polygon class="st17" points="53.5,911.5 58.1,933.1 0,905.9 			"/>
			<polygon class="st25" points="58.1,933.1 107.9,926.8 53.5,911.5 			"/>
			<polygon class="st9" points="58.1,933.1 0,933.1 0,905.9 			"/>
			<polygon class="st33" points="58.1,933.1 83.7,980.1 0,954.8 			"/>
			<polygon class="st5" points="58.1,933.1 0,933.1 0,954.8 			"/>
			<polygon class="st72" points="107.9,926.8 83.7,980.1 58.1,933.1 			"/>
			<polygon class="st11" points="83.7,980.1 232.6,942 107.9,926.8 			"/>
			<polygon class="st33" points="232.6,942 302.9,968.2 83.7,980.1 			"/>
			<polygon class="st112" points="724.9,932.2 873.1,954.8 591.8,964.3 			"/>
			<polygon class="st118" points="745.9,920.5 809.5,924.2 780.1,940.6 			"/>
			<polygon class="st76" points="251.4,889.9 379.9,889.9 313.7,902.8 			"/>
			<polygon class="st119" points="178.7,924.2 232.6,942 267.9,930.1 			"/>
			<polygon class="st117" points="236.7,915.4 267.9,930.1 178.7,924.2 			"/>
			<polygon class="st75" points="267.9,930.1 330.4,939 232.6,942 			"/>
			<polygon class="st11" points="330.4,939 302.9,968.2 232.6,942 			"/>
			<polygon class="st72" points="330.4,939 418.4,954.8 302.9,968.2 			"/>
			<polygon class="st115" points="236.7,915.4 267.9,930.1 306.7,922.7 			"/>
			<polygon class="st120" points="330.4,939 306.7,922.7 267.9,930.1 			"/>
			<polygon class="st25" points="306.7,922.7 276.8,908.8 236.7,915.4 			"/>
			<polygon class="st121" points="306.7,922.7 313.7,902.8 276.8,908.8 			"/>
			<polygon class="st33" points="306.7,922.7 418.4,954.8 330.4,939 			"/>
			<polygon class="st27" points="385.1,912.8 313.7,902.8 355.9,894.5 			"/>
			<polygon class="st122" points="379.9,889.9 464.9,902.8 355.9,894.5 			"/>
			<polygon class="st76" points="355.9,894.5 409.8,898.7 385.1,912.8 			"/>
			<polygon class="st14" points="464.9,902.8 603.3,921.3 491.2,930.1 			"/>
			<polygon class="st112" points="491.2,930.1 464.9,902.8 409.8,898.7 			"/>
			<polygon class="st27" points="409.8,898.7 385.1,912.8 491.2,930.1 			"/>
			<polygon class="st16" points="418.4,954.8 455,924.2 385.1,912.8 			"/>
			<polygon class="st113" points="491.2,930.1 418.4,954.8 455,924.2 			"/>
			<polygon class="st14" points="603.3,921.3 724.9,932.2 591.8,964.3 			"/>
			<polygon class="st112" points="591.8,964.3 491.2,930.1 603.3,921.3 			"/>
			<polygon class="st27" points="591.8,964.3 418.4,954.8 491.2,930.1 			"/>
			<polygon class="st113" points="313.7,902.8 306.7,922.7 385.1,912.8 			"/>
			<polygon class="st66" points="385.1,912.8 418.4,954.8 306.7,922.7 			"/>
			<polygon class="st117" points="873.1,954.8 1024,969.8 971.9,930.1 			"/>
			<polygon class="st66" points="971.9,930.1 997.9,884.8 809.5,924.2 			"/>
			<polygon class="st11" points="997.9,884.8 1024,969.8 971.9,930.1 			"/>
			<polygon class="st117" points="997.9,884.8 1024,882.2 1024,969.8 			"/>
			<polygon class="st72" points="603.3,921.3 760.4,902.8 694.5,890.5 			"/>
			<polygon class="st17" points="694.5,890.5 760.4,902.8 739.3,888.5 			"/>
			<polygon class="st113" points="873.1,894.5 760.4,902.8 828.9,889.1 			"/>
			<polygon class="st114" points="739.3,888.5 828.9,889.1 760.4,902.8 			"/>
			<polygon class="st123" points="603.3,921.3 543.8,895.9 464.9,902.8 			"/>
			<polygon class="st9" points="694.5,890.5 543.8,895.9 603.3,921.3 			"/>
			<polygon class="st5" points="0,954.8 0,1024.1 100.9,1024.1 			"/>
			<polygon class="st124" points="83.7,980.1 100.9,1024.1 0,954.8 			"/>
			<polygon class="st125" points="83.7,980.1 100.9,1024.1 179.7,1002.1 			"/>
			<polygon class="st126" points="302.9,968.2 179.7,1002.1 83.7,980.1 			"/>
			<polygon class="st11" points="418.4,954.8 395,988.7 302.9,968.2 			"/>
			<polygon class="st127" points="395,988.7 517.2,960.2 418.4,954.8 			"/>
			<polygon class="st128" points="395,988.7 543.8,1024.1 531.7,995 			"/>
			<polygon class="st66" points="591.8,964.3 517.2,960.2 531.7,995 			"/>
			<polygon class="st72" points="543.8,1024.1 531.7,995 737.8,998.9 			"/>
			<polygon class="st113" points="591.8,964.3 737.8,998.9 531.7,995 			"/>
			<polygon class="st27" points="591.8,964.3 737.8,998.9 873.1,954.8 			"/>
			<polygon class="st114" points="873.1,954.8 1024,969.8 914.8,992.8 			"/>
			<polygon class="st16" points="914.8,992.8 873.1,954.8 788.9,982.3 			"/>
			<polygon class="st11" points="1024,969.8 1024,1024.1 914.8,992.8 			"/>
			<polygon class="st129" points="179.7,1002.1 302.9,968.2 225.7,1024.1 			"/>
			<polygon class="st130" points="543.8,1024.1 395,988.7 225.7,1024.1 			"/>
			<polygon class="st5" points="100.9,1024.1 179.7,1002.1 225.7,1024.1 			"/>
			<polygon class="st131" points="302.9,968.2 395,988.7 225.7,1024.1 			"/>
			<polygon class="st132" points="517.2,960.2 531.7,995 395,988.7 			"/>
			<polygon class="st133" points="543.8,1024.1 737.8,998.9 828.9,1024.1 			"/>
			<polygon class="st114" points="737.8,998.9 914.8,992.8 788.9,982.3 			"/>
			<polygon class="st131" points="737.8,998.9 828.9,1024.1 914.8,992.8 			"/>
			<polygon class="st134" points="914.8,992.8 1024,1024.1 828.9,1024.1 			"/>
		</g>
		<g>
			<polygon class="st101" points="507.5,649.5 509.7,641.3 483.9,651.6 			"/>
			<polygon class="st135" points="450.1,653.8 418.1,691.4 440.4,711.1 			"/>
			<polygon class="st135" points="386.9,695.2 418.1,691.4 403,705.4 			"/>
			<polygon class="st94" points="355.7,743.6 386.9,695.2 402.9,705.4 			"/>
			<polygon class="st85" points="445,632.9 484,651.7 490.6,630.8 			"/>
			<polygon class="st136" points="490.6,630.8 509.7,641.3 484,651.7 			"/>
			<polygon class="st137" points="484,651.7 450.2,653.8 445,632.9 			"/>
			<polygon class="st88" points="450.2,653.8 503.8,667.3 484,651.7 			"/>
			<polygon class="st83" points="507.5,649.5 503.8,667.4 484,651.7 			"/>
			<polygon class="st136" points="509.7,641.3 529.4,630.8 531.4,641.3 			"/>
			<polygon class="st138" points="552.3,651.7 529.4,630.8 531.4,641.3 			"/>
			<polygon class="st83" points="334.9,762.4 313.3,762.1 283,785.9 			"/>
			<polygon class="st89" points="465.3,681.1 481.2,661.7 450.2,653.8 			"/>
			<polygon class="st139" points="440.4,711.1 402.9,705.4 385.6,719.4 			"/>
			<polygon class="st140" points="552.3,651.7 561,691.4 539,655.9 			"/>
			<polygon class="st94" points="465.2,681.1 503.8,667.4 481.2,661.7 			"/>
			<polygon class="st139" points="535.9,697.3 548.1,708.6 561,691.4 			"/>
			<polygon class="st141" points="548.1,708.6 603,711.1 561,691.4 			"/>
			<polygon class="st139" points="590.7,725.7 603,711.1 548.1,708.6 			"/>
			<polygon class="st106" points="548.1,708.6 535.9,697.2 496.3,691.4 			"/>
			<polygon class="st94" points="496.3,691.4 524.3,726 548.1,708.6 			"/>
			<polygon class="st89" points="548.1,708.6 557.5,752.8 524.3,726 			"/>
			<polygon class="st142" points="524.3,726 552.3,770 557.5,752.8 			"/>
			<polygon class="st143" points="557.5,752.8 587.6,779.1 552.3,770 			"/>
			<polygon class="st144" points="587.6,779.1 622.9,814 552.3,770 			"/>
			<polygon class="st144" points="223.4,853.9 271.8,801.2 288.6,798.9 			"/>
			<polygon class="st145" points="293.9,831.9 288.6,798.9 337.9,792 			"/>
			<polygon class="st146" points="223.4,853.9 158.9,866.5 200.8,874 			"/>
			<polygon class="st147" points="293.9,831.9 329.2,850.4 223.4,853.9 			"/>
			<polygon class="st148" points="200.8,874 252.3,889.9 223.4,853.9 			"/>
			<polygon class="st149" points="329.2,850.4 252.3,889.9 223.4,853.9 			"/>
			<polygon class="st150" points="158.9,866.5 53.1,898.7 156.9,889.9 			"/>
			<polygon class="st151" points="200.8,874 156.9,889.9 158.9,866.5 			"/>
			<polygon class="st152" points="252.3,889.9 156.9,889.9 200.8,874 			"/>
			<polygon class="st153" points="440.4,711.1 386,740.4 385.6,719.4 			"/>
			<polygon class="st139" points="355.7,743.6 386,740.4 385.6,719.4 			"/>
			<polygon class="st83" points="465.2,681.1 496.3,691.4 440.4,711.1 			"/>
			<polygon class="st89" points="355.7,743.6 313.3,762.1 334.9,762.4 			"/>
			<polygon class="st154" points="293.9,831.9 337.9,792 329.2,850.4 			"/>
			<polygon class="st155" points="386,740.4 411.4,757.1 367,757.1 			"/>
			<polygon class="st154" points="337.9,792 367,757.1 392,792 			"/>
			<polygon class="st156" points="496.3,691.4 487.2,719.6 440.4,711.1 			"/>
			<polygon class="st157" points="584.1,740 548.1,708.6 590.7,725.7 			"/>
			<polygon class="st145" points="622.9,814 552.3,770 513.6,786.3 			"/>
			<polygon class="st155" points="524.3,726 552.3,770 496.8,755.6 			"/>
			<polygon class="st158" points="647.6,772.1 697.5,764.1 747.8,807.5 			"/>
			<polygon class="st156" points="557.5,752.8 587.6,779.1 584.1,740 			"/>
			<polygon class="st159" points="647.6,772.1 622.9,814 587.6,779.1 			"/>
			<polygon class="st145" points="622.9,814 655.2,830.5 575.5,844.8 			"/>
			<polygon class="st160" points="676.2,802.3 622.9,814 647.6,772.1 			"/>
			<polygon class="st159" points="747.8,807.5 711.4,794.6 738.7,829 			"/>
			<polygon class="st161" points="513.6,786.3 575.5,844.8 622.9,814 			"/>
			<polygon class="st139" points="440.4,711.1 418.2,723 429,755.2 			"/>
			<polygon class="st159" points="487.2,719.4 429,755.2 440.4,711.1 			"/>
			<polygon class="st159" points="411.4,757.1 418.2,723 386,740.4 			"/>
			<polygon class="st160" points="496.8,755.6 429,755.2 392,792 			"/>
			<polygon class="st155" points="496.8,755.6 487.2,719.4 429,755.2 			"/>
			<polygon class="st162" points="252.3,889.9 380.7,889.9 329.2,850.4 			"/>
			<polygon class="st163" points="329.2,850.4 392,792 410.6,830.9 			"/>
			<polygon class="st164" points="380.7,889.9 410.6,830.9 329.2,850.4 			"/>
			<polygon class="st152" points="465.7,902.8 380.7,889.9 410.6,830.9 			"/>
			<polygon class="st149" points="471.6,804.3 410.6,830.9 392,792 			"/>
			<polygon class="st165" points="410.6,830.9 496.3,867.9 465.7,902.8 			"/>
			<polygon class="st166" points="544.6,895.9 496.3,867.9 465.7,902.8 			"/>
			<polygon class="st167" points="575.5,844.8 496.3,867.9 544.6,895.9 			"/>
			<polygon class="st163" points="513.6,786.3 410.6,830.9 496.3,867.9 			"/>
			<polygon class="st149" points="575.5,844.8 496.3,867.9 513.6,786.3 			"/>
			<polygon class="st166" points="575.5,844.8 604.1,867.3 544.6,895.9 			"/>
			<polygon class="st149" points="655.2,830.5 575.5,844.8 604.1,867.3 			"/>
			<polygon class="st168" points="695.4,890.5 604.1,867.3 544.6,895.9 			"/>
			<polygon class="st169" points="676.2,802.3 655.2,830.5 622.9,814 			"/>
			<polygon class="st170" points="738.7,829 676.2,802.3 711.4,794.6 			"/>
			<polygon class="st163" points="703.9,839.1 604.1,867.3 655.2,830.5 			"/>
			<polygon class="st171" points="747.8,807.5 738.7,829 829.7,889.1 			"/>
			<polygon class="st89" points="315.9,781.9 334.9,762.4 283,785.9 			"/>
			<polygon class="st94" points="355.7,743.6 334.9,762.4 367,757.1 			"/>
			<polygon class="st83" points="355.7,743.6 386,740.4 367,757.1 			"/>
			<polygon class="st143" points="283,785.9 271.8,801.2 288.6,798.9 			"/>
			<polygon class="st142" points="315.9,781.9 288.6,798.9 283,785.9 			"/>
			<polygon class="st149" points="293.9,831.9 288.6,798.9 223.4,853.9 			"/>
			<polygon class="st160" points="337.9,792 315.9,781.9 288.6,798.9 			"/>
			<polygon class="st154" points="334.9,762.4 367,757.1 315.9,781.9 			"/>
			<polygon class="st21" points="337.9,792 367,757.1 315.9,781.9 			"/>
			<polygon class="st149" points="329.2,850.4 337.9,792 392,792 			"/>
			<polygon class="st172" points="829.7,889.1 740.2,888.5 766.9,874.1 			"/>
			<polygon class="st166" points="703.9,839.1 740.2,888.5 695.4,890.5 			"/>
			<polygon class="st83" points="418.2,723 411.4,757.1 429,755.2 			"/>
			<polygon class="st89" points="429,755.2 392,792 411.4,757.1 			"/>
			<polygon class="st160" points="392,792 411.4,757.1 367,757.1 			"/>
			<polygon class="st167" points="703.9,839.1 695.4,890.5 604.1,867.3 			"/>
			<polygon class="st89" points="496.3,691.4 503.8,667.4 465.2,681.1 			"/>
			<polygon class="st156" points="487.2,719.4 524.3,726 496.8,755.6 			"/>
			<polygon class="st153" points="552.3,677.2 517.9,680.4 539,655.9 			"/>
			<polygon class="st139" points="503.8,667.4 539,655.9 517.9,680.4 			"/>
			<polygon class="st153" points="603,711.1 590.7,725.7 647.6,772.1 			"/>
			<polygon class="st173" points="697.5,764.1 639.2,760.5 647.6,772.1 			"/>
			<polygon class="st174" points="590.7,725.7 647.6,772.1 584.1,740 			"/>
			<polygon class="st160" points="738.7,829 766.9,874.1 829.7,889.1 			"/>
			<polygon class="st160" points="703.9,839.1 676.2,802.3 738.7,829 			"/>
			<polygon class="st167" points="655.2,830.5 676.2,802.3 703.9,839.1 			"/>
			<polygon class="st175" points="647.6,772.1 711.4,794.6 676.2,802.3 			"/>
			<polygon class="st163" points="738.7,829 740.2,888.5 766.9,874.1 			"/>
			<polygon class="st165" points="738.7,829 703.9,839.1 740.2,888.5 			"/>
			<polygon class="st94" points="552.3,651.6 519.1,662.4 528.2,651.6 			"/>
			<polygon class="st83" points="507.5,649.5 528.2,651.6 519.2,662.4 			"/>
			<polygon class="st176" points="531.4,641.3 528.2,651.6 552.3,651.6 			"/>
			<polygon class="st101" points="509.7,641.3 528.2,651.6 531.4,641.3 			"/>
			<polygon class="st88" points="519.2,662.4 503.8,667.3 507.5,649.5 			"/>
			<polygon class="st176" points="528.2,651.6 507.5,649.5 509.7,641.3 			"/>
			<polygon class="st94" points="503.8,667.3 535.9,697.2 496.2,691.3 			"/>
			<polygon class="st83" points="517.9,680.4 560.9,691.3 535.9,697.2 			"/>
			<polygon class="st139" points="560.9,691.3 517.9,680.4 552.3,677.2 			"/>
			<polygon class="st94" points="465.3,681.1 450.1,653.8 440.5,711.2 			"/>
			<polygon class="st177" points="418.2,691.3 445,632.9 450.1,653.8 			"/>
			<polygon class="st174" points="524.3,726.1 496.2,691.3 487.2,719.4 			"/>
			<polygon class="st160" points="513.6,786.3 496.8,755.6 552.3,769.9 			"/>
			<polygon class="st149" points="496.8,755.6 513.6,786.3 471.6,804.3 			"/>
			<polygon class="st154" points="392,792.1 471.6,804.3 496.8,755.6 			"/>
			<polygon class="st94" points="402.8,705.4 418.2,691.3 440.5,711.2 			"/>
			<polygon class="st178" points="548.1,708.6 557.5,752.8 584.1,740 			"/>
			<polygon class="st179" points="587.6,779.1 584.1,740 647.6,772.1 			"/>
		</g>
		<polygon class="st81" points="477,617.8 467.8,582.1 468.4,600 		"/>
		<polygon class="st95" points="561.2,580.5 597.3,573.6 579.5,573 		"/>
		<polygon class="st95" points="584.1,640.5 619.1,652 603.7,642.9 		"/>
		<g>
			<polygon class="st95" points="445,564.1 423.1,551.4 401.4,548.8 			"/>
			<polygon class="st84" points="401.4,548.8 370.1,554.1 416.5,554.1 			"/>
			<polygon class="st81" points="445,564.1 401.4,554.1 416.6,554.1 			"/>
		</g>
		<g>
			<polygon class="st95" points="683.5,612.8 663.2,597.7 641.9,592.5 			"/>
			<polygon class="st84" points="641.9,592.5 610.2,594.3 656.3,599.6 			"/>
			<polygon class="st81" points="683.5,612.8 641.3,597.9 656.4,599.6 			"/>
		</g>
		<g>
			<polygon class="st95" points="424.1,625.8 406.1,625.1 381.9,635.6 			"/>
			<polygon class="st84" points="381.9,635.6 353.9,661.6 402.4,630.9 			"/>
			<polygon class="st81" points="424.1,625.8 388.9,639.5 402.4,630.9 			"/>
			<polygon class="st86" points="424.1,625.8 406.1,625.1 428,619.8 			"/>
			<polygon class="st180" points="428,619.8 424.1,625.8 450.1,621.3 			"/>
		</g>
		<g>
			<polygon class="st95" points="569.2,550 554.1,553.3 536.2,567.1 			"/>
			<polygon class="st84" points="536.2,567.1 518.4,594.5 552.2,558.8 			"/>
			<polygon class="st81" points="569.2,550 542.8,568.8 552.2,558.8 			"/>
			<polygon class="st86" points="569.2,550 554.1,553.3 571.1,544.3 			"/>
			<polygon class="st180" points="571.1,544.3 569.2,550 589.8,540.8 			"/>
		</g>
		<g>
			<polygon class="st181" points="121.6,279.9 154.4,288.9 171.1,245.1 			"/>
			<polygon class="st182" points="58.6,298.7 0,326.1 0,279.9 			"/>
			<polygon class="st183" points="0,326.1 37.6,354.5 58.6,298.7 			"/>
			<polygon class="st183" points="129.6,322.2 91.1,345.7 58.6,298.7 			"/>
			<polygon class="st184" points="37.6,354.5 0,355.1 0,326.1 			"/>
			<polygon class="st185" points="1002.1,341.4 904.4,368.6 904.4,294.6 			"/>
			<polygon class="st186" points="839,342.5 904.4,294.6 904.4,368.6 			"/>
			<polygon class="st61" points="922.6,273.5 1024,279.7 980.1,301.5 			"/>
			<polygon class="st181" points="980.1,301.5 1002.1,341.4 904.4,294.6 			"/>
			<polygon class="st187" points="1002.1,341.4 1024,279.7 980.1,301.5 			"/>
			<polygon class="st188" points="1002.1,341.4 1024,343.7 1024,279.7 			"/>
			<polygon class="st189" points="904.4,368.6 962.9,360.2 1002.1,341.4 			"/>
			<polygon class="st61" points="962.9,360.2 981.2,373.1 1002.1,341.4 			"/>
			<polygon class="st187" points="1024,343.7 981.2,373.1 1002.1,341.4 			"/>
			<polygon class="st58" points="0,189.9 58.6,298.7 77.2,237.7 			"/>
			<polygon class="st190" points="171.1,245.1 121.6,279.9 77.2,237.7 			"/>
			<polygon class="st191" points="773.3,266.5 877.7,292.3 818.3,292.3 			"/>
			<polygon class="st192" points="129.6,322.2 58.6,298.7 121.6,279.9 			"/>
			<polygon class="st56" points="0,279.9 58.6,298.7 0,189.9 			"/>
			<path class="st193" d="M791.3,3.8"/>
			<polygon class="st50" points="544.7,67.4 400.5,108.5 427.3,0.6 			"/>
			<polygon class="st52" points="427.3,0.6 400.5,108.5 286.7,96.4 			"/>
			<polyline class="st57" points="901.7,187.7 1024,87.8 1024,279.7 901.7,187.7 			"/>
			<polygon class="st58" points="922.6,273.5 1024,279.7 901.7,187.7 			"/>
			<polygon class="st194" points="793.6,231.9 791.8,164.4 901.7,187.7 			"/>
			<polygon class="st194" points="605.4,124.9 714,169.2 599.5,176.2 			"/>
			<polygon class="st193" points="544.7,67.4 565.7,0.6 427.3,0.6 			"/>
			<polygon class="st52" points="605.4,124.9 1024,87.8 901.7,187.7 			"/>
			<polygon class="st195" points="605.4,124.9 791.3,0 837.5,105.4 			"/>
			<polygon class="st50" points="1024,89.7 837.5,105.4 791.3,0 			"/>
			<path class="st57" d="M112.2,50.7"/>
			<polygon class="st52" points="112.2,50.7 286.7,96.4 254.2,0.6 			"/>
			<polygon class="st59" points="112.2,54 0,87.8 0,0 			"/>
			<polygon class="st50" points="286.7,94.9 121.6,148.4 112.2,50.7 			"/>
			<polygon class="st196" points="121.6,148.4 0,87.8 112.2,50.7 			"/>
			<polygon class="st50" points="234,148.4 286.7,172.4 286.7,94.9 			"/>
			<polygon class="st57" points="121.6,148.4 0,87.8 0,189.9 			"/>
			<polygon class="st55" points="77.2,237.7 0,189.9 121.6,148.4 			"/>
			<polygon class="st197" points="171.1,245.1 253.8,207.8 237.5,257.4 			"/>
			<polygon class="st185" points="980.1,301.5 904.4,294.6 922.6,273.5 			"/>
			<polygon class="st198" points="793.6,231.9 922.6,273.5 901.7,187.7 			"/>
			<polygon class="st52" points="791.3,0 1024,89.7 1023.2,0.6 			"/>
			<polygon class="st57" points="179.5,203.6 121.6,148.4 77.2,237.7 			"/>
			<polygon class="st52" points="286.7,94.9 179.5,203.6 121.6,148.4 			"/>
			<path class="st196" d="M112.2,50.7"/>
			<polygon class="st50" points="254.2,0.6 286.7,96.4 427.3,0.6 			"/>
			<polygon class="st199" points="253.8,207.8 270.8,267.6 237.5,257.4 			"/>
			<polygon class="st200" points="221.1,280.7 237.5,257.4 270.8,267.6 			"/>
			<polygon class="st181" points="171.1,245.1 221.1,280.7 237.5,257.4 			"/>
			<polygon class="st201" points="171.1,245.1 221.1,280.7 154.4,288.9 			"/>
			<polygon class="st202" points="121.6,279.9 154.4,288.9 129.6,322.2 			"/>
			<polygon class="st183" points="205,379.6 201,312.6 176.7,350.9 			"/>
			<polygon class="st184" points="176.7,350.9 205,379.6 171.1,401.2 			"/>
			<polygon class="st184" points="232.1,422.9 250.1,390.9 205,379.6 			"/>
			<polygon class="st52" points="617.9,232.7 555.3,219.5 569.2,247.8 			"/>
			<polygon class="st194" points="414.7,187.8 464,144.1 501,183.8 			"/>
			<polygon class="st194" points="555.3,219.5 501,183.8 599.5,176.2 			"/>
			<polygon class="st196" points="617.9,232.7 599.5,176.2 555.3,219.5 			"/>
			<polygon class="st52" points="599.5,176.2 690.4,221.2 617.9,232.7 			"/>
			<polygon class="st183" points="200.9,312.7 154.4,288.9 221.2,280.7 			"/>
			<polygon class="st184" points="154.4,288.9 129.6,322.2 176.7,350.9 			"/>
			<polygon class="st203" points="129.6,322.2 134.3,373.2 171.1,401.2 			"/>
			<polygon class="st204" points="171.1,401.2 176.7,350.9 129.6,322.2 			"/>
			<polygon class="st205" points="250.1,390.9 278.1,422.9 232.1,422.9 			"/>
			<polygon class="st204" points="171.1,401.2 232.1,422.9 205,379.6 			"/>
			<polygon class="st206" points="221.2,280.7 263.5,306.1 200.9,312.7 			"/>
			<polygon class="st207" points="270.8,267.6 286.5,234.7 304.5,288.9 			"/>
			<polygon class="st200" points="357.8,230.4 286.5,234.7 318,259.9 			"/>
			<polygon class="st57" points="690.4,221.2 745.7,277.2 685.1,281.8 			"/>
			<polygon class="st186" points="650.4,445.5 704,428.7 716.9,374.3 			"/>
			<polygon class="st55" points="775.5,342.3 704,428.7 716.9,374.3 			"/>
			<polygon class="st188" points="650.4,445.5 534.9,460.6 544.2,412.5 			"/>
			<polygon class="st187" points="544.2,412.5 622.2,397.6 650.4,445.5 			"/>
			<polygon class="st208" points="523.8,502.9 541.2,502.5 512.4,545.6 			"/>
			<polygon class="st209" points="474.3,519.6 512.4,545.6 498.5,593.5 			"/>
			<polygon class="st203" points="413.2,497 461.3,486.2 474.3,519.6 			"/>
			<polygon class="st208" points="423.6,448.2 461.3,486.2 413.2,497 			"/>
			<polygon class="st210" points="399.7,414.2 447.1,414.2 423.6,448.2 			"/>
			<polygon class="st204" points="320.3,441.7 399.7,414.2 357.8,401.2 			"/>
			<polygon class="st211" points="310,377.2 326.7,404.2 357.8,401.2 			"/>
			<polygon class="st188" points="447.1,414.2 486,436.5 455.3,455.6 			"/>
			<polygon class="st210" points="544.2,412.5 534.9,460.6 509,414.2 			"/>
			<polygon class="st212" points="474.3,519.6 512.4,545.6 523.8,502.9 			"/>
			<polygon class="st208" points="461.3,486.2 523.8,502.9 474.3,519.6 			"/>
			<polygon class="st213" points="423.6,448.2 461.3,486.2 447.1,414.2 			"/>
			<polygon class="st199" points="318,259.9 383.4,288.9 357.8,230.4 			"/>
			<polygon class="st214" points="221.1,280.7 304.5,288.9 270.8,267.6 			"/>
			<polygon class="st188" points="250.1,390.9 205,379.6 235.9,355.5 			"/>
			<polygon class="st205" points="320.4,441.9 326.7,404.2 278.1,422.9 			"/>
			<polygon class="st182" points="201,312.6 235.9,355.5 205,379.6 			"/>
			<polygon class="st201" points="263.5,306.1 235.9,355.5 201,312.6 			"/>
			<polygon class="st215" points="414.7,187.8 443.3,251.9 357.8,230.4 			"/>
			<polygon class="st57" points="501,183.8 414.7,187.8 555.3,219.5 			"/>
			<polygon class="st216" points="263.5,306.1 288.4,352.3 235.9,355.6 			"/>
			<polygon class="st217" points="354.3,346.8 382.2,370.9 326.7,358.8 			"/>
			<polygon class="st187" points="250.1,390.9 288.4,352.3 235.9,355.5 			"/>
			<polygon class="st217" points="399.7,414.2 357.8,401.2 382.2,370.9 			"/>
			<polygon class="st182" points="310,377.2 357.8,401.2 348.9,363.6 			"/>
			<polygon class="st211" points="382.2,370.9 357.8,401.2 348.9,363.6 			"/>
			<polygon class="st218" points="443.4,251.9 469.5,270.3 383.4,288.9 			"/>
			<polygon class="st186" points="443.3,251.9 383.4,288.9 357.8,230.4 			"/>
			<polygon class="st219" points="447.1,414.2 430.8,336.1 399.7,414.2 			"/>
			<polygon class="st220" points="486,436.5 461.3,486.2 455.3,455.6 			"/>
			<polygon class="st188" points="534.9,460.6 509,414.2 486,436.5 			"/>
			<polygon class="st189" points="461.3,486.2 534.9,460.6 523.8,502.9 			"/>
			<polygon class="st183" points="534.9,460.6 486,436.5 461.3,486.2 			"/>
			<polygon class="st182" points="509,414.2 447.1,414.2 486,436.5 			"/>
			<polygon class="st221" points="622.2,397.6 567.9,360.6 557.2,385.5 			"/>
			<polygon class="st210" points="382.2,370.9 399.7,414.2 430.8,336.1 			"/>
			<polygon class="st181" points="469.4,308.9 504.1,363.5 430.8,336.1 			"/>
			<polygon class="st188" points="544.2,412.6 504.1,363.5 509,414.2 			"/>
			<polygon class="st186" points="469.4,308.9 534.9,308.9 504.1,363.5 			"/>
			<polygon class="st222" points="567.9,360.6 569.2,322.5 597.3,332 			"/>
			<polygon class="st181" points="504.1,363.5 557.2,385.5 567.9,360.6 			"/>
			<polygon class="st221" points="534.9,308.9 504.1,363.5 567.9,360.6 			"/>
			<polygon class="st223" points="509,414.2 504.1,363.5 438.5,373.2 			"/>
			<polygon class="st55" points="443.3,251.9 414.7,187.8 555.3,219.5 			"/>
			<polygon class="st192" points="383.4,288.9 430.8,336.1 469.5,308.9 			"/>
			<polygon class="st57" points="555.3,219.5 569.2,247.8 504.9,234.2 			"/>
			<polygon class="st58" points="443.3,251.9 531.2,257.1 504.9,234.2 			"/>
			<polygon class="st57" points="617.9,232.7 569.2,247.8 615.9,284.4 			"/>
			<polygon class="st58" points="531.2,257.1 534.9,308.9 569.2,247.8 			"/>
			<polygon class="st196" points="615.9,284.4 597.3,332 569.2,322.5 			"/>
			<polygon class="st55" points="569.2,247.8 615.9,284.4 553.8,275.3 			"/>
			<polygon class="st215" points="469.5,270.3 531.2,257.1 535.1,308.9 			"/>
			<polygon class="st224" points="534.9,308.9 469.5,270.3 469.4,308.9 			"/>
			<polygon class="st225" points="615.9,284.4 685.1,281.8 617.9,232.7 			"/>
			<polygon class="st181" points="622.2,397.6 716.9,374.3 650.4,445.5 			"/>
			<polygon class="st226" points="597.3,332 648,350.2 622.2,397.6 			"/>
			<polygon class="st57" points="775.5,342.3 716.9,374.3 721.2,331.1 			"/>
			<polygon class="st186" points="622.2,397.6 716.9,374.3 648,350.2 			"/>
			<polygon class="st58" points="716.9,374.3 648,350.2 721.2,331.1 			"/>
			<polygon class="st196" points="464,144.1 518.1,150.1 501,183.8 			"/>
			<polygon class="st196" points="518.1,150.1 566.7,178.7 501,183.8 			"/>
			<polygon class="st205" points="423.6,448.2 357.9,428.7 399.7,414.2 			"/>
			<polygon class="st55" points="569.2,247.8 504.9,234.2 531.2,257.1 			"/>
			<polygon class="st198" points="775.6,342.2 812.8,298.9 839,342.5 			"/>
			<polygon class="st198" points="745.7,277.2 793.6,231.9 812.8,298.9 			"/>
			<polygon class="st215" points="839,342.5 904.4,294.6 812.8,298.9 			"/>
			<polygon class="st215" points="793.6,231.9 867,255.6 812.8,298.9 			"/>
			<polygon class="st185" points="438.5,373.2 430.8,336.1 504.2,363.6 			"/>
			<polygon class="st186" points="383.4,288.9 469.5,308.9 469.5,270.3 			"/>
			<polygon class="st224" points="443.4,251.9 469.5,270.3 531.2,257.1 			"/>
			<polygon class="st227" points="382.3,336.1 383.4,288.9 430.8,336.1 			"/>
			<polygon class="st228" points="304.5,288.9 318,259.9 286.5,234.7 			"/>
			<polygon class="st184" points="357.8,401.3 320.4,441.9 326.7,404.2 			"/>
			<polygon class="st183" points="250,390.8 326.7,404.2 278,422.8 			"/>
			<polygon class="st183" points="304.5,330.6 304.5,288.9 221.2,280.7 			"/>
			<polygon class="st210" points="354.3,346.8 382.3,336.1 382.2,370.9 			"/>
			<polygon class="st189" points="334.4,325.3 304.5,330.6 304.5,288.9 			"/>
			<polygon class="st213" points="334.4,325.3 354.3,346.8 382.3,336.1 			"/>
			<polygon class="st229" points="304.5,330.6 263.5,306.1 288.4,352.3 			"/>
			<polygon class="st202" points="310,377.2 250,390.8 288.4,352.3 			"/>
			<polygon class="st182" points="326.7,404.2 310,377.2 250,390.8 			"/>
			<polygon class="st229" points="304.5,330.6 354.3,346.8 326.7,358.8 			"/>
			<polygon class="st230" points="348.9,363.6 326.7,358.8 310,377.2 			"/>
			<polygon class="st216" points="304.5,330.6 310,377.2 326.7,358.8 			"/>
			<polygon class="st231" points="288.4,352.3 304.5,330.6 310,377.2 			"/>
			<polygon class="st183" points="541.2,502.5 523.8,502.9 534.9,460.6 			"/>
			<polygon class="st188" points="382.2,370.9 430.8,336.1 382.3,336.1 			"/>
			<polygon class="st232" points="509,414.2 447.1,414.2 438.5,373.2 			"/>
			<polygon class="st189" points="200.9,312.7 176.7,350.9 154.4,288.9 			"/>
			<polygon class="st210" points="354.3,346.8 334.4,325.3 304.5,330.6 			"/>
			<polygon class="st186" points="414.7,187.8 336.9,172.5 357.8,230.4 			"/>
			<polygon class="st233" points="336.9,172.5 286.5,234.7 357.8,230.4 			"/>
			<polygon class="st58" points="597.3,332 622.2,397.6 567.9,360.6 			"/>
			<polygon class="st225" points="569.2,322.5 553.8,275.3 615.9,284.4 			"/>
			<polygon class="st190" points="534.9,308.9 569.2,322.5 567.9,360.6 			"/>
			<polygon class="st55" points="534.9,308.9 553.8,275.3 569.2,322.5 			"/>
			<polygon class="st223" points="557.2,385.5 544.2,412.6 504.2,363.6 			"/>
			<polygon class="st185" points="557.2,385.5 544.2,412.6 622.2,397.6 			"/>
			<polygon class="st196" points="676.7,300.9 685.1,281.8 615.9,284.4 			"/>
			<polygon class="st234" points="685.1,281.8 676.7,300.9 745.7,277.2 			"/>
			<polygon class="st196" points="676.7,300.9 745.7,277.2 721.2,331.1 			"/>
			<polygon class="st234" points="745.7,277.2 775.6,342.2 721.2,331.1 			"/>
			<polygon class="st235" points="645.6,313.1 676.7,300.9 670.9,330 			"/>
			<polygon class="st57" points="670.9,330 648,350.2 645.6,313.1 			"/>
			<polygon class="st222" points="648,350.2 670.9,330 721.2,331.1 			"/>
			<polygon class="st57" points="676.7,300.9 721.2,331.1 670.9,330 			"/>
			<polygon class="st228" points="336.9,172.5 286.7,172.4 286.5,234.7 			"/>
			<polygon class="st210" points="253.8,207.8 286.5,234.7 286.7,172.4 			"/>
			<polygon class="st228" points="253.8,207.8 270.8,267.6 286.5,234.7 			"/>
			<polygon class="st201" points="37.6,354.5 58.6,298.7 91.1,345.7 			"/>
			<polygon class="st197" points="77.2,237.7 58.6,298.7 121.6,279.9 			"/>
			<polygon class="st57" points="179.5,203.6 253.8,207.8 234,148.4 			"/>
			<polygon class="st196" points="234,148.4 253.8,207.8 286.7,172.4 			"/>
			<polygon class="st56" points="286.7,172.4 336.9,172.5 286.7,124.5 			"/>
			<polygon class="st57" points="286.7,124.5 336.9,172.5 400.5,107.6 			"/>
			<polygon class="st196" points="286.7,124.5 400.5,107.6 286.7,94.9 			"/>
			<polygon class="st57" points="409.4,139.2 414.7,187.8 464,144.1 			"/>
			<polygon class="st57" points="605.4,124.9 599.5,176.2 566.7,178.7 			"/>
			<polygon class="st193" points="605.4,124.9 528.6,118.4 584.9,153.5 			"/>
			<polygon class="st194" points="584.9,153.5 566.7,178.7 552.1,133 			"/>
			<polygon class="st236" points="552.1,133 518.1,150.1 566.7,178.7 			"/>
			<polygon class="st50" points="518.1,150.1 528.6,118.4 552.1,133 			"/>
			<polygon class="st50" points="605.4,124.9 528.6,118.7 565.7,0.6 			"/>
			<polygon class="st52" points="565.7,0.6 605.4,124.9 791.3,0 			"/>
			<polygon class="st188" points="1024,343.7 1024,388.7 981.2,373.1 			"/>
			<polygon class="st196" points="599.5,176.2 690.4,221.2 714,169.2 			"/>
			<polygon class="st194" points="745.7,277.2 690.4,221.2 714,169.2 			"/>
			<polygon class="st198" points="714,169.2 791.8,164.4 793.6,231.9 			"/>
			<polygon class="st196" points="409.4,139.2 400.5,107.6 464,144.1 			"/>
			<polygon class="st52" points="528.6,118.4 464,144.1 518.1,150.1 			"/>
			<polygon class="st234" points="400.5,107.6 544.7,64.3 464,144.1 			"/>
			<polygon class="st55" points="179.5,203.6 171.1,245.1 77.2,237.7 			"/>
			<polygon class="st58" points="179.5,203.6 171.1,245.1 253.8,207.8 			"/>
			<polygon class="st196" points="464,144.1 544.7,64.3 528.6,118.4 			"/>
			<polygon class="st55" points="400.5,107.6 409.4,139.2 336.9,172.5 			"/>
			<polygon class="st183" points="304.5,288.9 334.4,325.3 383.4,288.9 			"/>
			<polygon class="st237" points="318,259.9 383.4,288.9 304.5,288.9 			"/>
			<polygon class="st215" points="409.4,139.2 414.7,187.8 336.9,172.5 			"/>
			<polygon class="st210" points="334.4,325.3 383.4,288.9 382.3,336.1 			"/>
			<polygon class="st52" points="597.3,332 615.9,284.4 676.7,300.9 			"/>
			<polygon class="st196" points="597.3,332 645.6,313.1 648,350.2 			"/>
			<polygon class="st196" points="617.9,232.7 690.4,221.2 685.1,281.8 			"/>
			<polygon class="st57" points="714,169.2 793.6,231.9 745.7,277.2 			"/>
			<polygon class="st221" points="867,255.6 904.4,294.6 812.8,298.9 			"/>
			<polygon class="st186" points="867,255.6 922.6,273.5 904.4,294.6 			"/>
			<polygon class="st57" points="812.8,298.9 775.6,342.2 745.7,277.2 			"/>
			<polygon class="st50" points="605.4,124.9 714,169.2 791.8,164.4 			"/>
		</g>
		<g>
			<polygon class="st196" points="0.8,486.3 59.2,475.6 214.9,491.8 			"/>
			<polygon class="st58" points="0.8,486.3 0.8,494 214.9,491.8 			"/>
		</g>
		<g>
			<polygon class="st238" points="272.6,629.6 276.2,619 268.4,623.5 			"/>
			<polygon class="st239" points="286.9,619 302.9,619 290.3,625.4 			"/>
			<polygon class="st239" points="290.3,625.4 272.6,629.6 276.2,619 			"/>
			<polygon class="st240" points="290.3,625.4 276.2,619 286.9,619 			"/>
			<polygon class="st241" points="248.5,632.8 272.6,629.6 268.4,623.5 			"/>
			<polygon class="st242" points="302.9,619 306.3,627.8 310.5,624.4 			"/>
			<polygon class="st243" points="310.5,624.4 325.8,629.5 306.3,627.8 			"/>
			<polygon class="st240" points="306.3,627.8 290.3,625.4 302.9,619 			"/>
			<polygon class="st243" points="260.6,640.8 248.5,632.8 234.3,639.4 			"/>
			<polygon class="st244" points="272.6,629.6 260.6,640.8 248.5,632.8 			"/>
			<polygon class="st243" points="290.3,625.4 321.1,640.8 306.3,627.8 			"/>
			<polygon class="st242" points="321.1,640.8 272.6,629.6 290.3,625.4 			"/>
			<polygon class="st243" points="321.1,640.8 260.6,640.8 272.6,629.6 			"/>
			<polygon class="st245" points="218,632.8 268.4,623.5 234.3,639.4 			"/>
			<polygon class="st246" points="321.1,640.8 325.8,629.5 306.3,627.8 			"/>
			<polygon class="st238" points="248.5,632.8 218,632.8 268.4,623.5 			"/>
			<polygon class="st244" points="216.6,636.9 216.6,632.2 234.5,639.4 			"/>
			<polygon class="st238" points="208,635.7 216.6,632.2 216.6,636.9 			"/>
			<polygon class="st246" points="208,635.7 216.6,641.7 234.5,639.4 			"/>
			<polygon class="st247" points="325.8,629.5 334.7,635.8 321.1,640.8 			"/>
			<polygon class="st248" points="321.1,640.8 335.6,640.8 334.7,635.8 			"/>
		</g>
		<polygon class="st52" points="0,0 112.2,54 254.2,0.6 		"/>
	</g>
</g>
</svg>
